<svg xmlns="http://www.w3.org/2000/svg" viewBox="0 0 762.61 509.07"><defs><style>.aa21c42a-0255-4fc4-b0e8-4e9d42a3b8ae{fill:#79b2ac;}.ab225097-3c52-4e54-8b6a-333fae1a1a4b{fill:#559695;}.f0aece2d-d163-4339-a63f-ccbfaefb3913{fill:#639e9b;}.a2f2a081-ecf1-4edf-819c-c7b20d536a52{fill:#f09b36;}.a2f8f1b3-a722-4ec6-a042-e375dc4ecc61{fill:#c6fff9;}.f846f719-acde-426e-b792-a0678c5391ed{fill:#ffe653;}.b8ccd719-4ba6-45c5-bbc3-1c5929ac1f3a{fill:#eb6d33;}.af9ba16e-04f5-47ac-af18-49a0197f3075{fill:#d8552d;}.a9b34357-ce0a-471e-8815-2c4b736e45b6{fill:#fff;}.a643efdf-931a-48d7-9f3a-f430d1067ddc{fill:#6f0908;}</style></defs><title>addIngredientsImage</title><g id="ad2fa198-e76e-4a19-b4d5-4684f95c5cd6" data-name="Layer 7"><path class="aa21c42a-0255-4fc4-b0e8-4e9d42a3b8ae" d="M768.57,325.91V258.8H436.77c-22.49,0-40.72,15-40.72,33.55h0c0,18.53,18.23,33.56,40.72,33.56h46c17.52,0,31.72,11.69,31.72,26.12h0c0,14.43-14.2,26.13-31.72,26.13H337.12c-22.43,0-40.61,15-40.61,33.45h0c0,18.48,18.18,33.46,40.61,33.46h114.3c17.52,0,31.72,11.69,31.72,26.12h0c0,14.43-14.2,26.12-31.72,26.12H439.57c-20,0-36.24,13.37-36.24,29.86h0c0,16.49,16.23,29.85,36.24,29.85h53.15c15.73,0,28.47,10.5,28.47,23.46h0c0,13-12.74,23.45-28.47,23.45H424.91c-14.37,0-26,9.6-26,21.45h0c0,11.84,11.66,21.45,26,21.45H724v-42.9h-9.81V557h6.94v-58.1H739V445.07h33.78V378.16h41.56V325.91Z" transform="translate(-296.51 -258.52)"/><path class="ab225097-3c52-4e54-8b6a-333fae1a1a4b" d="M412.23,536.54H358.42a15.66,15.66,0,0,1-15.67-15.66h0a15.66,15.66,0,0,1,15.67-15.67h53.81a15.66,15.66,0,0,1,15.67,15.67h0A15.66,15.66,0,0,1,412.23,536.54Z" transform="translate(-296.51 -258.52)"/><path class="ab225097-3c52-4e54-8b6a-333fae1a1a4b" d="M366.45,434.89h-42.7a20,20,0,0,1-20-20h0a20,20,0,0,1,20-20h42.7a20,20,0,0,1,20,20h0A20,20,0,0,1,366.45,434.89Z" transform="translate(-296.51 -258.52)"/><path class="aa21c42a-0255-4fc4-b0e8-4e9d42a3b8ae" d="M670.23,325.63V258.52H943.57a33.56,33.56,0,0,1,33.55,33.56h0a33.55,33.55,0,0,1-33.55,33.55H905.69a26.13,26.13,0,0,0-26.13,26.13h0a26.13,26.13,0,0,0,26.13,26.13h120a33.44,33.44,0,0,1,33.45,33.45h0a33.45,33.45,0,0,1-33.45,33.45H931.5a26.12,26.12,0,0,0-26.12,26.13h0a26.12,26.12,0,0,0,26.12,26.13h9.77a29.84,29.84,0,0,1,29.85,29.85h0a29.85,29.85,0,0,1-29.85,29.86H897.48A23.45,23.45,0,0,0,874,580.21h0a23.45,23.45,0,0,0,23.46,23.45h55.86a21.45,21.45,0,0,1,21.45,21.45h0a21.45,21.45,0,0,1-21.45,21.45H707v-42.9H715v-46.9h-5.72V498.65H694.56V444.79H666.73v-66.9H632.5V325.63Z" transform="translate(-296.51 -258.52)"/><path class="ab225097-3c52-4e54-8b6a-333fae1a1a4b" d="M941.65,532.43h53.82a15.68,15.68,0,0,0,15.67-15.67h0a15.68,15.68,0,0,0-15.67-15.67H941.65A15.67,15.67,0,0,0,926,516.76h0A15.67,15.67,0,0,0,941.65,532.43Z" transform="translate(-296.51 -258.52)"/><path class="ab225097-3c52-4e54-8b6a-333fae1a1a4b" d="M954.05,436h42.7a20,20,0,0,0,20-20h0a20,20,0,0,0-20-20h-42.7a20,20,0,0,0-20,20h0A20,20,0,0,0,954.05,436Z" transform="translate(-296.51 -258.52)"/><path class="f0aece2d-d163-4339-a63f-ccbfaefb3913" d="M467.6,326.48c9,0,9-14,0-14s-9,14,0,14Z" transform="translate(-296.51 -258.52)"/><path class="f0aece2d-d163-4339-a63f-ccbfaefb3913" d="M462.33,364.88c9,0,9-14,0-14s-9,14,0,14Z" transform="translate(-296.51 -258.52)"/><path class="f0aece2d-d163-4339-a63f-ccbfaefb3913" d="M499,350.88c9,0,9-14,0-14s-9,14,0,14Z" transform="translate(-296.51 -258.52)"/><path class="f0aece2d-d163-4339-a63f-ccbfaefb3913" d="M467.33,567.88V505.21c0-9-14-9-14,0v62.67c0,9,14,9,14,0Z" transform="translate(-296.51 -258.52)"/><path class="f0aece2d-d163-4339-a63f-ccbfaefb3913" d="M467.33,474.54v-16c0-9-14-9-14,0v16c0,9,14,9,14,0Z" transform="translate(-296.51 -258.52)"/><path class="f0aece2d-d163-4339-a63f-ccbfaefb3913" d="M828,354.88c9,0,9-14,0-14s-9,14,0,14Z" transform="translate(-296.51 -258.52)"/><path class="f0aece2d-d163-4339-a63f-ccbfaefb3913" d="M850,329.88c9,0,9-14,0-14s-9,14,0,14Z" transform="translate(-296.51 -258.52)"/><path class="f0aece2d-d163-4339-a63f-ccbfaefb3913" d="M863,352.88c9,0,9-14,0-14s-9,14,0,14Z" transform="translate(-296.51 -258.52)"/><path class="aa21c42a-0255-4fc4-b0e8-4e9d42a3b8ae" d="M934,522.88c9,0,9-14,0-14s-9,14,0,14Z" transform="translate(-296.51 -258.52)"/><path class="f0aece2d-d163-4339-a63f-ccbfaefb3913" d="M923.5,554.88c9,0,9-14,0-14s-9,14,0,14Z" transform="translate(-296.51 -258.52)"/><path class="f0aece2d-d163-4339-a63f-ccbfaefb3913" d="M951.5,553.88c9,0,9-14,0-14s-9,14,0,14Z" transform="translate(-296.51 -258.52)"/><path class="f0aece2d-d163-4339-a63f-ccbfaefb3913" d="M901.08,409c9,0,9-14,0-14s-9,14,0,14Z" transform="translate(-296.51 -258.52)"/><path class="f0aece2d-d163-4339-a63f-ccbfaefb3913" d="M763.56,557.92c9,0,9-14,0-14s-9,14,0,14Z" transform="translate(-296.51 -258.52)"/></g><g id="f9e62af7-2b95-4597-a359-81209adf2065" data-name="Layer 3"><path class="a2f2a081-ecf1-4edf-819c-c7b20d536a52" d="M495.49,577.59a15.84,15.84,0,0,1,31.67,0v61.59a14.5,14.5,0,0,0,29,0V577.59a15.84,15.84,0,0,1,31.67,0v5.16a4.51,4.51,0,1,0,9,0,4.08,4.08,0,0,1,.25-1.4,18.68,18.68,0,0,1,37.1,3.08v32.09a18,18,0,0,0,36,0V577.59a15.83,15.83,0,0,1,31.32-3.3,4,4,0,0,1,.35,1.63,4.51,4.51,0,1,0,9,0v-2.49c0-9.36,8.38-17,18.67-17s18.68,7.62,18.68,17v43.09a18,18,0,0,0,36,0V596.26a15.84,15.84,0,0,1,31.67,0v1.34a5.91,5.91,0,1,0,11.82,0V579.78a13.25,13.25,0,0,1,26.5,0v24.56a7.5,7.5,0,0,0,15,0V577.59a10.84,10.84,0,0,1,21.67,0v29.5a4.42,4.42,0,0,0,4.41,4.42,16.94,16.94,0,0,0,16.92-16.92V524.76h-438v69.83a16.94,16.94,0,0,0,16.92,16.92,4.42,4.42,0,0,0,4.41-4.42Zm334-43.08h56.67c3.87,0,3.86,6,0,6H829.49C825.63,540.51,825.63,534.51,829.49,534.51Zm-39.33,0h8.67c3.86,0,3.86,6,0,6h-8.67C786.29,540.51,786.3,534.51,790.16,534.51Zm-254.67,0H768.83c3.86,0,3.86,6,0,6H535.49C531.63,540.51,531.63,534.51,535.49,534.51Zm-35.33,0h19.33c3.87,0,3.86,6,0,6H500.16C496.29,540.51,496.3,534.51,500.16,534.51Z" transform="translate(-296.51 -258.52)"/><path class="a2f8f1b3-a722-4ec6-a042-e375dc4ecc61" d="M882.83,577.59a2.84,2.84,0,0,0-5.67,0v26.75a15.5,15.5,0,0,1-31,0V579.78a5.25,5.25,0,0,0-10.5,0V597.6a13.91,13.91,0,1,1-27.82,0v-1.34a7.84,7.84,0,0,0-15.67,0v20.26a26,26,0,0,1-52,0V573.43c0-4.95-4.79-9-10.68-9s-10.67,4-10.67,9v2.49a12.51,12.51,0,0,1-24.45,3.73,4,4,0,0,1-.56-2.06,7.84,7.84,0,0,0-15.67,0v38.93a26,26,0,0,1-52,0V584.43a10.68,10.68,0,1,0-21.35,0,4,4,0,0,1-.57,2.05,12.5,12.5,0,0,1-24.44-3.73v-5.16a7.84,7.84,0,0,0-15.67,0v61.59a22.5,22.5,0,0,1-45,0V577.59a7.84,7.84,0,0,0-15.67,0v29.5a12.37,12.37,0,0,1-3.09,8.18A164.18,164.18,0,0,0,663.66,759.59h59A164.18,164.18,0,0,0,885.92,615.27a12.37,12.37,0,0,1-3.09-8.18Zm-290,77.25c-3.87,0-3.86-6,0-6S596.69,654.84,592.83,654.84Zm1.66-11.33c-3.86,0-3.86-6,0-6S598.35,643.51,594.49,643.51Zm10.34,4.67c-3.87,0-3.86-6,0-6S608.69,648.18,604.83,648.18Zm37.33,94c-3.87,0-3.86-6,0-6S646,742.18,642.16,742.18Zm7.67-13.67c3.86,0,3.86,6,0,6S646,728.51,649.83,728.51Zm3,18.67c-3.87,0-3.86-6,0-6S656.69,747.18,652.83,747.18Zm69.33-91c-3.87,0-3.86-6,0-6S726,656.18,722.16,656.18Zm83.67,67.33c-3.87,0-3.86-6,0-6S809.69,723.51,805.83,723.51Zm1.33-13.33c-3.87,0-3.86-6,0-6S811,710.18,807.16,710.18Zm11,3.66c-3.87,0-3.86-6,0-6S822,713.84,818.16,713.84Z" transform="translate(-296.51 -258.52)"/><path class="f846f719-acde-426e-b792-a0678c5391ed" d="M534,462.4a34.59,34.59,0,0,1,64.88-19.53c14.75-5.12,23.69-12.91,27.27-16.53-14.82-23.46-45.94-34-75.22-25.24s-49.39,34.84-48.8,62.58C507.11,464.72,518.87,466.28,534,462.4Zm49.38-57.46a20.82,20.82,0,0,1,17.48,7,2.5,2.5,0,0,1-.26,3.53,2.49,2.49,0,0,1-3.52-.26,15.75,15.75,0,0,0-13.22-5.28,2.5,2.5,0,1,1-.48-5Zm-17.33,2.32c2.58,0,2.58,4,0,4S563.48,407.26,566.05,407.26Zm-3.75-3.75c2.58,0,2.58,4,0,4S559.73,403.51,562.3,403.51Zm-2,5.25c2.58,0,2.58,4,0,4S557.73,408.76,560.3,408.76Zm-45,41.29a32.11,32.11,0,0,1,10.24-20.14,2.5,2.5,0,0,1,3.36,3.71,27,27,0,0,0-8.63,17,2.5,2.5,0,0,1-2.48,2.24l-.27,0A2.48,2.48,0,0,1,515.26,450.05Z" transform="translate(-296.51 -258.52)"/><path class="f846f719-acde-426e-b792-a0678c5391ed" d="M694.38,331.69a34.4,34.4,0,0,1,33.88,27.6c15.6-.64,26.41-5.53,30.88-8-7.43-26.74-34.18-45.86-64.76-45.86s-57.33,19.12-64.76,45.86c4.47,2.43,15.28,7.32,30.88,8A34.4,34.4,0,0,1,694.38,331.69Zm35.67,15.57c-2.57,0-2.57-4,0-4S732.63,347.26,730.05,347.26ZM734.3,352c-2.57,0-2.57-4,0-4S736.88,352,734.3,352Zm4.25-5.75c-2.57,0-2.57-4,0-4S741.13,346.26,738.55,346.26Zm-17.14-25.78a2.5,2.5,0,0,1,2.94-2,20.79,20.79,0,0,1,14.72,11.73,2.5,2.5,0,0,1-1.26,3.3,2.49,2.49,0,0,1-3.3-1.26,15.72,15.72,0,0,0-11.13-8.87A2.49,2.49,0,0,1,721.41,320.48ZM650.72,344a2.5,2.5,0,0,1-4.61-1.95,32.2,32.2,0,0,1,15.62-16.33,2.5,2.5,0,1,1,2.14,4.52A27.09,27.09,0,0,0,650.72,344Z" transform="translate(-296.51 -258.52)"/><path class="f846f719-acde-426e-b792-a0678c5391ed" d="M787.19,447.92a34.59,34.59,0,0,1,65.12,18.71c15.27,3.71,27,2,31.89.88.24-27.76-20.19-53.52-49.59-62s-60.38,2.55-74.9,26.19C763.33,435.31,772.37,443,787.19,447.92Zm69.26-20.49a2.48,2.48,0,0,1,3.36-1.08,20.79,20.79,0,0,1,10.92,15.34,2.5,2.5,0,0,1-2.13,2.82l-.35,0a2.49,2.49,0,0,1-2.47-2.15,15.75,15.75,0,0,0-8.25-11.6A2.49,2.49,0,0,1,856.45,427.43ZM820.3,406.26c2.58,0,2.58,4,0,4S817.73,406.26,820.3,406.26Zm-4,10.75c-2.57,0-2.57-4,0-4S818.88,417,816.3,417Zm-2.75-9.75c2.58,0,2.58,4,0,4S811,407.26,813.55,407.26Zm-35.43,20.13A32.14,32.14,0,0,1,797.63,416a2.5,2.5,0,0,1,.82,4.94A27.07,27.07,0,0,0,782,430.53a2.5,2.5,0,1,1-3.89-3.14Z" transform="translate(-296.51 -258.52)"/></g><g id="bb6feb69-0e06-43ed-94de-08f6bb14f77e" data-name="Layer 4"><path class="b8ccd719-4ba6-45c5-bbc3-1c5929ac1f3a" d="M492,557.5c3.22,0,3.22-5,0-5s-3.22,5,0,5Z" transform="translate(-296.51 -258.52)"/><path class="b8ccd719-4ba6-45c5-bbc3-1c5929ac1f3a" d="M541.4,551.86a5.26,5.26,0,0,0-3.74,5.42,5,5,0,0,0,10,0,5.28,5.28,0,0,0-3.58-5.38,2.5,2.5,0,1,0-1.33,4.82c-.29-.14-.31-.14-.07,0q-.32-.29-.12-.09c.12.13.1.08-.07-.14.07.11.14.22.2.33-.21-.33-.08-.09,0,.15-.17-.39,0-.19,0,.12.06-.34.06-.37,0-.09l.11-.24c-.14.24-.12.23.06,0-.17.17-.19.19,0,.07s.13-.11-.07,0q.47-.17.06,0c-.53.09.47,0-.12,0s.48.15-.11,0,.37.05-.12,0c.24.2.25.21,0,0,.16.23.19.27.09.11s-.07-.11,0,.13c-.07-.28-.08-.26,0,.07v-.2c0-.29,0-.27,0,0,.34-.47-.4.23,0-.16.16-.24.14-.24,0,0l.14-.14c-.25.17-.26.18,0,0q-.43.17,0,0a2.5,2.5,0,1,0-1.33-4.82Z" transform="translate(-296.51 -258.52)"/><path class="b8ccd719-4ba6-45c5-bbc3-1c5929ac1f3a" d="M562.33,551.83c3.22,0,3.23-5,0-5s-3.22,5,0,5Z" transform="translate(-296.51 -258.52)"/><path class="b8ccd719-4ba6-45c5-bbc3-1c5929ac1f3a" d="M532.67,547.83c3.21,0,3.22-5,0-5s-3.23,5,0,5Z" transform="translate(-296.51 -258.52)"/><path class="af9ba16e-04f5-47ac-af18-49a0197f3075" d="M602.33,560.17c3.22,0,3.23-5,0-5s-3.22,5,0,5Z" transform="translate(-296.51 -258.52)"/><path class="af9ba16e-04f5-47ac-af18-49a0197f3075" d="M649.92,577.16c-1.73.15-3.55.39-4.88,1.64a4.67,4.67,0,0,0-1.45,4.43c.82,3.35,4.74,3.48,7.48,2.85s5.24-3.17,4.13-6.24c-1.35-3.7-5.55-3.64-8.66-2.6s-1.73,5.84,1.33,4.82a9.84,9.84,0,0,1,1.76-.51c.16,0,.86.1.9.08s-.12.07,0-.14a2.42,2.42,0,0,0,0-.38c-.1-.11-.11,0-.46.07a12.26,12.26,0,0,0-2,.25,8.72,8.72,0,0,1,.36.94c.35.32-.29,0,.07,0a6.65,6.65,0,0,0,1.41-.25,2.55,2.55,0,0,0,2.5-2.5,2.52,2.52,0,0,0-2.5-2.5Z" transform="translate(-296.51 -258.52)"/><path class="af9ba16e-04f5-47ac-af18-49a0197f3075" d="M659.33,546.83c3.22,0,3.23-5,0-5s-3.22,5,0,5Z" transform="translate(-296.51 -258.52)"/><path class="af9ba16e-04f5-47ac-af18-49a0197f3075" d="M696.29,547.87a4.12,4.12,0,0,0-.78,8.11,4.62,4.62,0,0,0,5.09-2.22,5.27,5.27,0,0,0-.79-5.86,2.51,2.51,0,0,0-3.54,0,2.57,2.57,0,0,0,0,3.53c-.18-.24-.22-.28-.12-.13s.07.1-.06-.18c0,0,.27.58.1.2s.11.16,0,.22q.09-.49,0-.21a2.5,2.5,0,0,1-.07.26l.1-.27c-.12.19-.13.21,0,0s.12-.16,0,0l.23-.2c-.35.29.42-.1,0,0,.26,0,.46,0,.09,0s.62.15.1,0l.31.13c-.18-.12-.19-.12,0,0a1.65,1.65,0,0,1,.46.7c-.13-.47,0,.59,0,.1,0,.21-.15.54,0,.17s-.28.5,0,.14c-.25.29-.31.37-.18.23s.06-.08-.24.17l.12-.07a1.32,1.32,0,0,1-.72.21,2.55,2.55,0,0,0,2.5-2.5,2.53,2.53,0,0,0-2.5-2.5Z" transform="translate(-296.51 -258.52)"/><path class="af9ba16e-04f5-47ac-af18-49a0197f3075" d="M771.67,599.17c3.21,0,3.22-5,0-5s-3.23,5,0,5Z" transform="translate(-296.51 -258.52)"/><path class="af9ba16e-04f5-47ac-af18-49a0197f3075" d="M784.35,563a4.37,4.37,0,0,0-2.13,5,4.23,4.23,0,0,0,8.27-1.18,4.42,4.42,0,0,0-4.16-4.25,2.5,2.5,0,0,0-2.5,2.5,2.57,2.57,0,0,0,2.5,2.5c-.42-.08-.5-.08-.24,0q-.51-.24-.27-.09c.16.1.09,0-.22-.18q.21.23,0,0c-.13-.18-.14-.18,0,0s.09.17-.08-.2c.15.43,0-.57,0-.09.07-.4.08-.5,0-.31s0,.1.12-.27c-.2.42.38-.42.06-.09.33-.25.39-.3.17-.17l.35-.14-.26.07c.42,0,.53-.06.33,0-.54,0,.36.1.13,0s-.09,0,.29.14c-.23-.13-.17-.07.17.17-.32-.3.26.51,0,.09l.15.35a2.33,2.33,0,0,1-.07-.25.67.67,0,0,1,0,.66,1.31,1.31,0,0,1,.06-.27l-.15.35a1.71,1.71,0,0,1,.13-.23l-.22.29c.18-.17.11-.13-.21.14l.24-.13a2.51,2.51,0,0,0,.9-3.42,2.57,2.57,0,0,0-3.42-.89Z" transform="translate(-296.51 -258.52)"/><path class="af9ba16e-04f5-47ac-af18-49a0197f3075" d="M813,570.17c3.22,0,3.22-5,0-5s-3.22,5,0,5Z" transform="translate(-296.51 -258.52)"/><path class="af9ba16e-04f5-47ac-af18-49a0197f3075" d="M807.33,555.17c3.22,0,3.23-5,0-5s-3.22,5,0,5Z" transform="translate(-296.51 -258.52)"/><path class="af9ba16e-04f5-47ac-af18-49a0197f3075" d="M820,558.83c3.22,0,3.22-5,0-5s-3.22,5,0,5Z" transform="translate(-296.51 -258.52)"/><path class="af9ba16e-04f5-47ac-af18-49a0197f3075" d="M884.86,557.81a1.74,1.74,0,0,1-.68-.77c-.09-.24-.1-.27,0-.09,0-.15,0-.3,0-.45s-.05.63,0,0c0-.24,0-.29,0-.17s0,.08.15-.33c-.16.28.17-.22.19-.24a1.19,1.19,0,0,1,.53-.33c.21-.08.26-.1.13-.06s-.08,0,.36,0l.43,0c-.4-.06.43.23.2.08s-.08,0,.1.09a1,1,0,0,1,.39.43c-.17-.29.08.23.09.27a1.16,1.16,0,0,1,0,.64c0,.23-.05.28,0,.15s0-.08-.14.33l-.25.32c.25-.3-.44.26-.19.13s-.63.17-.21.1c0,0-.66.05-.32.05a1.07,1.07,0,0,1-.63-.14c-.22-.11-.25-.11-.08,0a2.53,2.53,0,0,0,3.42-.9,2.56,2.56,0,0,0-.9-3.42,3.82,3.82,0,0,0-5.09,1.26,3.67,3.67,0,0,0,6.3,3.78,3.9,3.9,0,0,0,.39-2.8,3.84,3.84,0,0,0-1.6-2.24,2.5,2.5,0,0,0-1.93-.25,2.53,2.53,0,0,0-1.49,1.15,2.49,2.49,0,0,0-.25,1.92,2.9,2.9,0,0,0,1.15,1.5Z" transform="translate(-296.51 -258.52)"/><path class="a9b34357-ce0a-471e-8815-2c4b736e45b6" d="M474.5,530H913c4.51,0,4.51-7,0-7H474.5c-4.5,0-4.51,7,0,7Z" transform="translate(-296.51 -258.52)"/><path class="aa21c42a-0255-4fc4-b0e8-4e9d42a3b8ae" d="M680.76,599.66a22.54,22.54,0,0,1,3.92-12.95,21.42,21.42,0,0,1,5.51-5.56c1.39-.95,3.39-1.6,4.48-2.91,5.15-6.19-4.41-11.61-9.84-10.27S671.59,578,675,583.89a5.48,5.48,0,0,0,7.13,2.13,6.9,6.9,0,0,0,2.94-2.35c.74-1,1.5-5.12,2.55-5.47,4.25-1.42,2.43-8.19-1.86-6.75-2.3.77-4.67,2.45-5.24,5a10,10,0,0,0-.63,1.84q2.32,2,3-.51c1.44-1.42,4.79-5.66,6.54-1.52-.12-.9-.23-1.8-.35-2.69-.13.63-4.46,3-5.47,3.88a29.89,29.89,0,0,0-5.38,6.33,29.44,29.44,0,0,0-4.46,15.87c0,4.5,7,4.51,7,0Z" transform="translate(-296.51 -258.52)"/><path class="aa21c42a-0255-4fc4-b0e8-4e9d42a3b8ae" d="M716.77,576.57a28.31,28.31,0,0,1,11.69,5.88c3,2.57,4.53,6.17,7.29,8.81,2,1.94,5,2.58,7.39.79,2.69-2.07,2.54-6.69,2.47-9.74-.17-7.3-3.35-14.84-10.37-18A12.86,12.86,0,0,0,718.6,570a3.56,3.56,0,0,0,2.1,5.15,19,19,0,0,1,6.49,3c1.72,1.24,2.79,3,4.39,4.32a4.82,4.82,0,0,0,7.17-.69c4.61-6.35-5.46-12.16-10.42-12.82-4.45-.58-4.41,6.42,0,7-.1,0,4.67,1.74,4.37,2.29l2.1-1.61-.87.35,2.69.35c-2.14-1-4-4-6.1-5.4a25.86,25.86,0,0,0-8-3.49q1,2.57,2.09,5.14c2.57-5,8.51-3.63,11.41.3s3.32,9.81,1.94,14.26l1.6-2.09c1.85-1.34-7.15-9.32-8.21-10.13a35.17,35.17,0,0,0-12.76-6c-4.36-1.12-6.23,5.63-1.86,6.75Z" transform="translate(-296.51 -258.52)"/><path class="aa21c42a-0255-4fc4-b0e8-4e9d42a3b8ae" d="M738,585.17c4.5,0,4.51-7,0-7s-4.51,7,0,7Z" transform="translate(-296.51 -258.52)"/><path class="aa21c42a-0255-4fc4-b0e8-4e9d42a3b8ae" d="M604.59,588a27.41,27.41,0,0,1,24-6.3c3.64.77,6.52-4.69,2.7-6.4-8.72-3.89-19.49-7.3-27,.79-3.06,3.3,1.88,8.26,4.95,5,5.1-5.49,12.79-2.25,18.52.31q1.35-3.21,2.69-6.4a34.89,34.89,0,0,0-30.86,8.1c-3.38,3,1.58,7.92,5,5Z" transform="translate(-296.51 -258.52)"/><path class="aa21c42a-0255-4fc4-b0e8-4e9d42a3b8ae" d="M579.67,569a20.63,20.63,0,0,0-19.27,14.83h6.75c-1.68-5,1.48-9.54,6.84-9.41,4.5.11,4.5-6.89,0-7a13.84,13.84,0,0,0-13.59,18.27,3.53,3.53,0,0,0,6.75,0A13.46,13.46,0,0,1,579.67,576c4.49-.13,4.51-7.13,0-7Z" transform="translate(-296.51 -258.52)"/><path class="aa21c42a-0255-4fc4-b0e8-4e9d42a3b8ae" d="M502.4,580.77c1.89-1.92,3.85-4,6.45-4.95,1.88-.68,6.32-.69,5.58,2.57-1,4.39,5.75,6.26,6.75,1.86a9.63,9.63,0,0,0-7.51-11.64c-6.51-1.43-11.95,2.88-16.22,7.21-3.16,3.22,1.78,8.17,4.95,4.95Z" transform="translate(-296.51 -258.52)"/><path class="aa21c42a-0255-4fc4-b0e8-4e9d42a3b8ae" d="M791.8,596.06a10.79,10.79,0,0,1,14,1.51c3.12,3.27,8.06-1.69,5-5a17.81,17.81,0,0,0-22.44-2.6c-3.75,2.46-.24,8.53,3.54,6Z" transform="translate(-296.51 -258.52)"/><path class="aa21c42a-0255-4fc4-b0e8-4e9d42a3b8ae" d="M835.77,585.44a10,10,0,0,1,9.11-3c4,.78,5.86-4,2.7-6.4a16.93,16.93,0,0,0-9.91-3.29c-4.51-.09-4.51,6.91,0,7a10.65,10.65,0,0,1,6.37,2.34l2.7-6.4a17.25,17.25,0,0,0-15.92,4.8c-3.16,3.22,1.79,8.17,4.95,5Z" transform="translate(-296.51 -258.52)"/><path class="aa21c42a-0255-4fc4-b0e8-4e9d42a3b8ae" d="M876.89,586.05a11.83,11.83,0,0,1,6.23-2,3.54,3.54,0,0,0,3.37-4.43,7.28,7.28,0,0,0-9-4.93c-4.29,1.31-2.46,8.06,1.87,6.75.16-.05.53-.05.23-.07s.22.16.17.07c-.19-.3.13.55,0,0l3.38-4.43a19,19,0,0,0-9.76,2.92c-3.79,2.42-.28,8.48,3.53,6Z" transform="translate(-296.51 -258.52)"/><path class="aa21c42a-0255-4fc4-b0e8-4e9d42a3b8ae" d="M642.45,676.29c-4.07-2.86-6.4-7.77-11.85-8.31-3.84-.38-7.71,1.86-8.51,5.81a10,10,0,0,0,.78,5.72c.58,1.47,2.31,3.86,2.29,5.38,0,1.24-1,2.64-1.42,3.77-1.29,3.61-1.64,7.92,2,10.35,3,2,6.92,1.38,9.71-.66a17,17,0,0,0,4.06-4.85,15.82,15.82,0,0,1,4.92-5.11c3-2.11,4.82-5.33,2.35-8.72-2.9-4-10.37-5.19-14.68-6.79-2.24-.84-4.34,1.28-4.43,3.37a14.52,14.52,0,0,0,1.22,6.3c.52,1.29,2.72,5,1.21,6l4.79,4.79c.41-.94,4.58-9.16,3.83-9.7l-1.61-2.09.18-1.33,2.48-1-.75,0c-4.5-.23-4.49,6.77,0,7,5.42.28,7-7.38,1.93-9.37-7.33-2.87-10.13,8.51-12.1,13-1.23,2.81,1.59,7.06,4.79,4.79a8.52,8.52,0,0,0,3.92-7.2c0-4-3.06-7.21-2.89-11.17l-4.43,3.38c2.82,1,5.65,2.07,8.46,3.15l2,.79c0-1-.34-1.16-.92-.62a16.68,16.68,0,0,0-2.31,1.6,19.93,19.93,0,0,0-3.34,4.3c-.74,1.18-4.14,6.58-4,2.54.08-1.67,1.57-3.41,1.8-5.17a10.76,10.76,0,0,0-1-6c-.67-1.51-1.92-2.3-.72-3.85s2.14,0,3.49,1.32a39.42,39.42,0,0,0,5.16,4.67c3.7,2.6,7.2-3.47,3.54-6Z" transform="translate(-296.51 -258.52)"/><path class="aa21c42a-0255-4fc4-b0e8-4e9d42a3b8ae" d="M670,658.55c-9.15-.14-6.2,16.39,2,14.61,4-.86,5.39-4.84,5.06-8.51-.29-3.13-1.46-7.08-5.11-7.64a3.62,3.62,0,0,0-4.31,2.45c-.45,1.65.57,4,2.45,4.3.56.15.55.06,0-.27s-.57-.45-.22,0a4.65,4.65,0,0,1,.15.65c.11.5-.12,1.67.14,2.24.12.25,0,0,1,.14,4,.45.65.21.76,0,0,0-.45-1.45-.46-1.49-.54-1.35.83.5-1.37.47,4.5.07,4.5-6.93,0-7Z" transform="translate(-296.51 -258.52)"/><path class="aa21c42a-0255-4fc4-b0e8-4e9d42a3b8ae" d="M742.36,696.16c-6.88.54-13,2.65-15.21,9.82-1.62,5.26-2.26,15.48,3.54,18.62,6,3.29,11.71-1.87,16.67-4.56,4.73-2.57,12.94-1.93,12.81-9.36a9.25,9.25,0,0,0-3.83-6.9,26.47,26.47,0,0,0-4.54-2.53c-1.94-1-2.89-2.25-4.44-3.66-5.29-4.81-11.54-1.08-15,3.81-3.2,4.48-5.18,12.43.46,16.06a6.61,6.61,0,0,0,7.11-.22c3.83-2.4,5.78-5.27,10.53-6.18a3.52,3.52,0,0,0,2.09-5.14c-3.87-5.51-13.34-10.63-17.57-2.24a7.09,7.09,0,0,0,2.21,8.85c4,3.16,8.39,1.55,13,2.22l.93-6.87a35.73,35.73,0,0,0-11.65,3.43c-4,2-.5,8,3.53,6a25.15,25.15,0,0,1,8.12-2.47c3.48-.44,5.22-6.24.93-6.88-2.41-.35-4.69,0-7.07-.22-.18,0-3.95-.58-3.27-1.36,1.41-1.62,4.39,2.38,4.85,3,.69-1.72,1.39-3.43,2.09-5.15a21.18,21.18,0,0,0-7.72,3c-1,.65-2,1.9-3,2.43-.68,1.35-1.24,1.39-1.66.11.13-.62.27-1.24.4-1.86.35-1.22,1.85-4,3.17-4.57,3.09-1.4,4,.81,5.78,2.19,1.49,1.15,8.75,3.77,6.21,5.66-.87.65-2.87.56-4,.9a19.57,19.57,0,0,0-3.35,1.47c-2.48,1.33-4.68,3.4-7.34,4.37-4.82,1.75-4-4-3.68-7.32.56-5.52,3.77-7.14,8.94-7.55,4.46-.35,4.5-7.36,0-7Z" transform="translate(-296.51 -258.52)"/><path class="aa21c42a-0255-4fc4-b0e8-4e9d42a3b8ae" d="M742.33,708.5c4.51,0,4.51-7,0-7s-4.51,7,0,7Z" transform="translate(-296.51 -258.52)"/><path class="a9b34357-ce0a-471e-8815-2c4b736e45b6" d="M471.5,530v75c0,4.5,7,4.51,7,0V530c0-4.5-7-4.51-7,0Z" transform="translate(-296.51 -258.52)"/><path class="a9b34357-ce0a-471e-8815-2c4b736e45b6" d="M534,618.5a63.29,63.29,0,0,0,.35,11.76,3.63,3.63,0,0,0,3.5,3.5c1.72,0,3.73-1.62,3.5-3.5A63.29,63.29,0,0,1,541,618.5c.27-4.5-6.73-4.48-7,0Z" transform="translate(-296.51 -258.52)"/><path class="a9b34357-ce0a-471e-8815-2c4b736e45b6" d="M660.31,623.34c3.45-2.72,4.64-7.06,4-11.26-.28-1.87-2.64-2.9-4.3-2.45-2,.55-2.73,2.43-2.45,4.31s-.88,3.39-2.22,4.45-1.23,3.72,0,5c1.47,1.47,3.46,1.17,4.95,0Z" transform="translate(-296.51 -258.52)"/><path class="a9b34357-ce0a-471e-8815-2c4b736e45b6" d="M661,604.25c4.5,0,4.51-7,0-7s-4.51,7,0,7Z" transform="translate(-296.51 -258.52)"/><path class="a9b34357-ce0a-471e-8815-2c4b736e45b6" d="M752,588.25v9c0,4.5,7,4.51,7,0v-9c0-4.5-7-4.51-7,0Z" transform="translate(-296.51 -258.52)"/><path class="a9b34357-ce0a-471e-8815-2c4b736e45b6" d="M756.5,615.25c4.5,0,4.51-7,0-7s-4.51,7,0,7Z" transform="translate(-296.51 -258.52)"/><path class="a9b34357-ce0a-471e-8815-2c4b736e45b6" d="M858.75,601.75c4.5,0,4.51-7,0-7s-4.51,7,0,7Z" transform="translate(-296.51 -258.52)"/><path class="a9b34357-ce0a-471e-8815-2c4b736e45b6" d="M907.5,590.5V578.75c0-4.5-7-4.51-7,0V590.5c0,4.5,7,4.51,7,0Z" transform="translate(-296.51 -258.52)"/><path class="a9b34357-ce0a-471e-8815-2c4b736e45b6" d="M903,572c4.5,0,4.51-7,0-7s-4.51,7,0,7Z" transform="translate(-296.51 -258.52)"/><path class="a2f2a081-ecf1-4edf-819c-c7b20d536a52" d="M542.82,684.11a98,98,0,0,0,24.61,32.47c3.39,2.94,8.37-2,5-5a93.19,93.19,0,0,1-23.52-31c-1.91-4.08-8-.53-6,3.53Z" transform="translate(-296.51 -258.52)"/><path class="a2f2a081-ecf1-4edf-819c-c7b20d536a52" d="M596.58,404.58a46.89,46.89,0,0,1,16.65,29.31,3.48,3.48,0,0,0,3.37,2.57,10.53,10.53,0,0,0,9.5-12.78c-1.49-7.85-9-11.48-14.32-16.53l-4.95,5a30.06,30.06,0,0,1,10.11,16.37c1.06,4.38,7.81,2.52,6.75-1.86a36.32,36.32,0,0,0-11.91-19.46c-3.39-2.87-8.25,1.8-4.95,5,2.44,2.33,5.21,4.18,7.76,6.38a15.9,15.9,0,0,1,3.57,3.93c1.13,1.94,2.36,6.7-1.56,7L620,432a52.65,52.65,0,0,0-18.45-32.39c-3.44-2.86-8.42,2.07-4.95,4.94Z" transform="translate(-296.51 -258.52)"/><path class="a2f2a081-ecf1-4edf-819c-c7b20d536a52" d="M726.87,315.28a59.68,59.68,0,0,1,7.52,17.86c1.49,6.31,1.12,12.21,1.34,18.58.13,3.89,1.2,7.93,5,9.79,4.31,2.14,9.81-.32,14.1-1.42,12.59-3.23,6.94-15.47,3.19-23.86-4.49-10-11.72-19.31-23-21.79a3.54,3.54,0,0,0-3.95,5.14,78.74,78.74,0,0,1,10.69,35.07c.23,3.84,5.78,4.89,6.87.94a48.13,48.13,0,0,0-.41-27.4l-6.75,1.86,7.85,22.89,6.75-1.86q-5-12.87-9.88-25.74l-6.4,2.7a152.79,152.79,0,0,1,15.12,25.75c1.88,4.09,7.92.54,6-3.53a152.74,152.74,0,0,0-15.11-25.75c-2.13-2.93-7.94-1.32-6.4,2.69q4.93,12.87,9.88,25.74c1.58,4.13,8.23,2.46,6.75-1.86l-7.85-22.89c-1.44-4.22-8.1-2.48-6.75,1.86a41.13,41.13,0,0,1,.41,23.67l6.88.93a86.66,86.66,0,0,0-11.65-38.6l-4,5.14c8.89,2,14.3,9.09,18,16.95.89,1.88,1.67,3.8,2.44,5.73.7,1.77,2.62,5.13,2.33,7.07-.42,2.81-7,3.44-9.24,4-5.47,1.4-3.83-6-3.85-9.28a66.25,66.25,0,0,0-1-11.06,65.05,65.05,0,0,0-8.91-22.86c-2.37-3.82-8.43-.31-6,3.53Z" transform="translate(-296.51 -258.52)"/><path class="a2f2a081-ecf1-4edf-819c-c7b20d536a52" d="M857.17,473.48c6-1.61,8-7.54,9.42-13A60.35,60.35,0,0,0,867.93,436c-2.19-13.91-10.45-26.55-23.07-33.1a3.5,3.5,0,0,0-3.53,6.05,87.9,87.9,0,0,1,27.5,28.85,86.23,86.23,0,0,1,8,17.95c.68,2.18,2.73,6.42,1.22,8.07-.65.71-4.5.49-5.68.61l-7.58.82,3.5,3.5q1.51-13.35,4.36-26.47l-6.4.84a46.75,46.75,0,0,1,7.79,21.59l6.52-1.77q-4.32-6.49-8.63-13c-1.57-2.38-5.66-2.25-6.39.83-1.06,4.47-2.21,12.31,1.28,16.08,3.84,4.13,8.5,0,9.61-4.13,1.18-4.35-5.57-6.21-6.75-1.86L869.1,462l2.7-.36c.5,1,.58,1,.26,0a13,13,0,0,1-.41-3.23,21.07,21.07,0,0,1,.67-5.7l-6.4.83,8.62,13c1.75,2.63,6.88,1.95,6.53-1.77a54.18,54.18,0,0,0-8.75-25.13c-1.55-2.34-5.72-2.28-6.39.84q-3,14.06-4.61,28.33a3.5,3.5,0,0,0,3.5,3.5c5.17-.56,10.5-.79,15.62-1.7,3.13-.55,5.56-2.12,5.73-5.56.2-3.74-1.66-8.31-2.8-11.83a95,95,0,0,0-38.51-50.26L841.33,409a37.28,37.28,0,0,1,18.72,23.58,48.48,48.48,0,0,1,1.29,18c-.41,3.87-1.31,14.91-6,16.17-4.35,1.16-2.51,7.92,1.86,6.75Z" transform="translate(-296.51 -258.52)"/><path class="a9b34357-ce0a-471e-8815-2c4b736e45b6" d="M509,466.31a69,69,0,0,1,22.08-55.94c3.33-3.06-1.63-8-5-4.95A75.7,75.7,0,0,0,502,466.31c.33,4.47,7.34,4.5,7,0Z" transform="translate(-296.51 -258.52)"/><path class="a9b34357-ce0a-471e-8815-2c4b736e45b6" d="M632.41,355.86A106.62,106.62,0,0,1,658.76,314c3.21-3.17-1.74-8.12-5-4.95A114.28,114.28,0,0,0,625.66,354c-1.45,4.27,5.3,6.11,6.75,1.86Z" transform="translate(-296.51 -258.52)"/><path class="a9b34357-ce0a-471e-8815-2c4b736e45b6" d="M763,436.31c3.1-9.69,10.71-21.69,20.26-25.91,4.11-1.82.55-7.85-3.54-6-11.2,4.95-19.85,18.8-23.47,30.08-1.38,4.3,5.38,6.15,6.75,1.87Z" transform="translate(-296.51 -258.52)"/><path class="a9b34357-ce0a-471e-8815-2c4b736e45b6" d="M638,561.33c3.86,0,3.87-6,0-6s-3.87,6,0,6Z" transform="translate(-296.51 -258.52)"/><path class="a9b34357-ce0a-471e-8815-2c4b736e45b6" d="M516,557c3.86,0,3.87-6,0-6s-3.87,6,0,6Z" transform="translate(-296.51 -258.52)"/><path class="a9b34357-ce0a-471e-8815-2c4b736e45b6" d="M766,565c3.86,0,3.87-6,0-6s-3.87,6,0,6Z" transform="translate(-296.51 -258.52)"/><path class="a9b34357-ce0a-471e-8815-2c4b736e45b6" d="M859,556c3.86,0,3.87-6,0-6s-3.87,6,0,6Z" transform="translate(-296.51 -258.52)"/></g><g id="a68a4286-8aab-4b5a-bf4f-9718163d31ec" data-name="Layer 2 copy"><path class="a643efdf-931a-48d7-9f3a-f430d1067ddc" d="M916.16,516.76h-446a4,4,0,0,0-4,4v73.83a25,25,0,0,0,24.92,24.92,13.23,13.23,0,0,0,1.79-.14c.47,3.33,1,6.65,1.7,9.94a1.83,1.83,0,0,1,.3.55,9.65,9.65,0,0,1,.48,2.57c0,.37.06.74.1,1.11a2.17,2.17,0,0,0,0,.25l.09.42c.11.63.18,1.27.29,1.9a9,9,0,0,0,.21.9s0,.1.05.15a2.89,2.89,0,0,1,.15.31,1.87,1.87,0,0,1,.15.32h.07q1.68,6.59,3.87,13l-.05,0a1,1,0,0,0,0,.1c.68,1.77,1.24,3.57,1.89,5.35.16.47.34.94.53,1.41l.1.25v0l.21.43a6.15,6.15,0,0,1,.56,1.59l.12,0a172.1,172.1,0,0,0,26.85,44.95c.51.53,1,1.06,1.5,1.55a20.16,20.16,0,0,1,2.78,3.42l.38.43a1.48,1.48,0,0,1,.7.78,3.43,3.43,0,0,1,.49.28,4.64,4.64,0,0,1,1.91,2.34,1.47,1.47,0,0,1,.85.86l.72.72.22.18c.28.27.54.55.8.85,2.34,2.37,4.73,4.7,7.22,7,.76.68,1.53,1.35,2.3,2a1.65,1.65,0,0,1,.46.32l.39.33c.7.53,1.44,1,2.12,1.57a6.51,6.51,0,0,1,1.21,1.3,172,172,0,0,0,56,30.47,1.56,1.56,0,0,1,1.11.2,8.61,8.61,0,0,0,2.51.78,24.11,24.11,0,0,1,2.49.81c1.49.56,3,1.16,4.45,1.75a61.39,61.39,0,0,0,6.39,1.32,35.84,35.84,0,0,1,3.73.63c1.14.29,2.23.64,3.39.85,2.48.45,5,.48,7.48.9a25.57,25.57,0,0,0,3.17.22,26.6,26.6,0,0,1,4.78.27,58.88,58.88,0,0,0,6.37.11,1.53,1.53,0,0,1,.54.09,10.67,10.67,0,0,1,3.24,0c.9.1,1.79.15,2.7.18a17.11,17.11,0,0,1,2.62.21h74.38a28.76,28.76,0,0,1,4.91-.36c.87-.05,1.74-.2,2.61-.27.72-.05,1.44,0,2.16,0a7.63,7.63,0,0,0,2-.58,3.94,3.94,0,0,1,1.47-.21c.8-.2,1.61-.38,2.43-.55a59.56,59.56,0,0,0,6.69-2c2.13-.68,4.33-1,6.43-1.8a54.36,54.36,0,0,1,6.08-2.39,1.32,1.32,0,0,1,.26,0,1.52,1.52,0,0,1,.92-.24,172.59,172.59,0,0,0,99.3-83.65,2.3,2.3,0,0,1,.12-.34,6.87,6.87,0,0,1,.76-1.24c.07-.09.14-.17.2-.26.2-.42.39-.84.6-1.25s.58-1.1.88-1.64c.15-.27.29-.55.42-.82l.07-.18.18-.47a6.73,6.73,0,0,1,.43-1l.17-.31a2,2,0,0,1,.23-.58,1.59,1.59,0,0,1,.26-.52h-.07a171.73,171.73,0,0,0,13.9-47.52,13.23,13.23,0,0,0,1.79.14,25,25,0,0,0,24.92-24.92V520.76A4,4,0,0,0,916.16,516.76ZM722.66,759.59h-59A164.18,164.18,0,0,1,500.4,615.27a12.37,12.37,0,0,0,3.09-8.18v-29.5a7.84,7.84,0,0,1,15.67,0v61.59a22.5,22.5,0,0,0,45,0V577.59a7.84,7.84,0,0,1,15.67,0v5.16a12.5,12.5,0,0,0,24.44,3.73,4,4,0,0,0,.57-2.05,10.68,10.68,0,1,1,21.35,0v32.09a26,26,0,0,0,52,0V577.59a7.84,7.84,0,0,1,15.67,0,4,4,0,0,0,.56,2.06,12.51,12.51,0,0,0,24.45-3.73v-2.49c0-4.95,4.79-9,10.67-9s10.68,4,10.68,9v43.09a26,26,0,0,0,52,0V596.26a7.84,7.84,0,0,1,15.67,0v1.34a13.91,13.91,0,1,0,27.82,0V579.78a5.25,5.25,0,0,1,10.5,0v24.56a15.5,15.5,0,0,0,31,0V577.59a2.84,2.84,0,0,1,5.67,0v29.5a12.37,12.37,0,0,0,3.09,8.18A164.18,164.18,0,0,1,722.66,759.59Zm189.5-165a16.94,16.94,0,0,1-16.92,16.92,4.42,4.42,0,0,1-4.41-4.42v-29.5a10.84,10.84,0,0,0-21.67,0v26.75a7.5,7.5,0,0,1-15,0V579.78a13.25,13.25,0,0,0-26.5,0V597.6a5.91,5.91,0,1,1-11.82,0v-1.34a15.84,15.84,0,0,0-31.67,0v20.26a18,18,0,0,1-36,0V573.43c0-9.36-8.38-17-18.68-17s-18.67,7.62-18.67,17v2.49a4.51,4.51,0,1,1-9,0,4,4,0,0,0-.35-1.63,15.83,15.83,0,0,0-31.32,3.3v38.93a18,18,0,0,1-36,0V584.43a18.68,18.68,0,0,0-37.1-3.08,4.08,4.08,0,0,0-.25,1.4,4.51,4.51,0,1,1-9,0v-5.16a15.84,15.84,0,0,0-31.67,0v61.59a14.5,14.5,0,0,1-29,0V577.59a15.84,15.84,0,0,0-31.67,0v29.5a4.42,4.42,0,0,1-4.41,4.42,16.94,16.94,0,0,1-16.92-16.92V524.76h438Z" transform="translate(-296.51 -258.52)"/><path class="a643efdf-931a-48d7-9f3a-f430d1067ddc" d="M622.71,356.5c.63.44,15.68,10.86,41.23,10.86a4,4,0,0,0,4-3.62,26.58,26.58,0,0,1,52.92,0,4,4,0,0,0,4,3.62c25.55,0,40.6-10.42,41.23-10.86a4,4,0,0,0,1.59-4.14c-7.1-31.8-37.91-54.89-73.26-54.89s-66.16,23.09-73.26,54.89A4,4,0,0,0,622.71,356.5Zm71.67-51c30.58,0,57.33,19.12,64.76,45.86-4.47,2.43-15.28,7.32-30.88,8a34.59,34.59,0,0,0-67.76,0c-15.6-.64-26.41-5.53-30.88-8C637.05,324.59,663.8,305.47,694.38,305.47Z" transform="translate(-296.51 -258.52)"/><path class="a643efdf-931a-48d7-9f3a-f430d1067ddc" d="M723.38,323.41a15.72,15.72,0,0,1,11.13,8.87,2.5,2.5,0,0,0,4.56-2,20.79,20.79,0,0,0-14.72-11.73,2.5,2.5,0,1,0-1,4.9Z" transform="translate(-296.51 -258.52)"/><path class="a643efdf-931a-48d7-9f3a-f430d1067ddc" d="M665.06,326.91a2.51,2.51,0,0,0-3.33-1.18,32.2,32.2,0,0,0-15.62,16.33,2.5,2.5,0,1,0,4.61,1.95,27.09,27.09,0,0,1,13.15-13.76A2.51,2.51,0,0,0,665.06,326.91Z" transform="translate(-296.51 -258.52)"/><path class="a643efdf-931a-48d7-9f3a-f430d1067ddc" d="M751.25,430.39a4,4,0,0,0,.39,4.42c.48.6,12.07,14.77,36.63,21.82a4,4,0,0,0,4.83-2.39A26.58,26.58,0,0,1,844,468.85a4,4,0,0,0,2.82,4.58,86.81,86.81,0,0,0,24,3.47c11.21,0,18.2-2.37,18.66-2.53a4,4,0,0,0,2.67-3.54c1.95-32.53-21.29-63.22-55.26-73S766.86,401.78,751.25,430.39Zm83.36-24.84c29.4,8.44,49.83,34.2,49.59,62-4.94,1.11-16.62,2.83-31.89-.88a34.59,34.59,0,0,0-65.12-18.71c-14.82-4.92-23.86-12.61-27.48-16.18C774.23,408.1,805.22,397.1,834.61,405.55Z" transform="translate(-296.51 -258.52)"/><path class="a643efdf-931a-48d7-9f3a-f430d1067ddc" d="M857.53,430.79a15.75,15.75,0,0,1,8.25,11.6,2.49,2.49,0,0,0,2.47,2.15l.35,0a2.5,2.5,0,0,0,2.13-2.82,20.79,20.79,0,0,0-10.92-15.34,2.5,2.5,0,0,0-2.28,4.44Z" transform="translate(-296.51 -258.52)"/><path class="a643efdf-931a-48d7-9f3a-f430d1067ddc" d="M778.49,430.91a2.51,2.51,0,0,0,3.52-.38,27.07,27.07,0,0,1,16.44-9.59,2.5,2.5,0,0,0-.82-4.94,32.14,32.14,0,0,0-19.51,11.39A2.51,2.51,0,0,0,778.49,430.91Z" transform="translate(-296.51 -258.52)"/><path class="a643efdf-931a-48d7-9f3a-f430d1067ddc" d="M497,470.62c.45.15,7.06,2.29,17.68,2.29a86.63,86.63,0,0,0,24.93-3.77,4,4,0,0,0,2.77-4.62,26.58,26.58,0,0,1,50.67-15.26,4,4,0,0,0,4.86,2.33c24.46-7.37,35.87-21.68,36.34-22.29a4,4,0,0,0,.34-4.42c-16-28.41-52.13-41.63-86-31.44s-56.69,41.18-54.33,73.68A4,4,0,0,0,497,470.62Zm53.92-69.52c29.28-8.81,60.4,1.78,75.22,25.24-3.58,3.62-12.52,11.41-27.27,16.53A34.59,34.59,0,0,0,534,462.4c-15.13,3.88-26.89,2.32-31.87,1.28C501.54,435.94,521.64,409.92,550.93,401.1Z" transform="translate(-296.51 -258.52)"/><path class="a643efdf-931a-48d7-9f3a-f430d1067ddc" d="M583.86,409.92a15.75,15.75,0,0,1,13.22,5.28,2.49,2.49,0,0,0,3.52.26,2.5,2.5,0,0,0,.26-3.53,20.82,20.82,0,0,0-17.48-7,2.5,2.5,0,1,0,.48,5Z" transform="translate(-296.51 -258.52)"/><path class="a643efdf-931a-48d7-9f3a-f430d1067ddc" d="M517.48,452.8l.27,0a2.5,2.5,0,0,0,2.48-2.24,27,27,0,0,1,8.63-17,2.5,2.5,0,0,0-3.36-3.71,32.11,32.11,0,0,0-10.24,20.14A2.48,2.48,0,0,0,517.48,452.8Z" transform="translate(-296.51 -258.52)"/><path class="a643efdf-931a-48d7-9f3a-f430d1067ddc" d="M734.3,348c-2.57,0-2.57,4,0,4S736.88,348,734.3,348Z" transform="translate(-296.51 -258.52)"/><path class="a643efdf-931a-48d7-9f3a-f430d1067ddc" d="M730.05,343.26c-2.57,0-2.57,4,0,4S732.63,343.26,730.05,343.26Z" transform="translate(-296.51 -258.52)"/><path class="a643efdf-931a-48d7-9f3a-f430d1067ddc" d="M738.55,346.26c2.58,0,2.58-4,0-4S736,346.26,738.55,346.26Z" transform="translate(-296.51 -258.52)"/><path class="a643efdf-931a-48d7-9f3a-f430d1067ddc" d="M562.3,407.51c2.58,0,2.58-4,0-4S559.73,407.51,562.3,407.51Z" transform="translate(-296.51 -258.52)"/><path class="a643efdf-931a-48d7-9f3a-f430d1067ddc" d="M560.3,412.76c2.58,0,2.58-4,0-4S557.73,412.76,560.3,412.76Z" transform="translate(-296.51 -258.52)"/><path class="a643efdf-931a-48d7-9f3a-f430d1067ddc" d="M566.05,411.26c2.58,0,2.58-4,0-4S563.48,411.26,566.05,411.26Z" transform="translate(-296.51 -258.52)"/><path class="a643efdf-931a-48d7-9f3a-f430d1067ddc" d="M813.55,411.26c2.58,0,2.58-4,0-4S811,411.26,813.55,411.26Z" transform="translate(-296.51 -258.52)"/><path class="a643efdf-931a-48d7-9f3a-f430d1067ddc" d="M816.3,417c2.58,0,2.58-4,0-4S813.73,417,816.3,417Z" transform="translate(-296.51 -258.52)"/><path class="a643efdf-931a-48d7-9f3a-f430d1067ddc" d="M820.3,410.26c2.58,0,2.58-4,0-4S817.73,410.26,820.3,410.26Z" transform="translate(-296.51 -258.52)"/><path class="a643efdf-931a-48d7-9f3a-f430d1067ddc" d="M805.83,717.51c-3.86,0-3.87,6,0,6S809.69,717.51,805.83,717.51Z" transform="translate(-296.51 -258.52)"/><path class="a643efdf-931a-48d7-9f3a-f430d1067ddc" d="M807.16,704.18c-3.86,0-3.87,6,0,6S811,704.18,807.16,704.18Z" transform="translate(-296.51 -258.52)"/><path class="a643efdf-931a-48d7-9f3a-f430d1067ddc" d="M818.16,707.84c-3.86,0-3.87,6,0,6S822,707.84,818.16,707.84Z" transform="translate(-296.51 -258.52)"/><path class="a643efdf-931a-48d7-9f3a-f430d1067ddc" d="M594.49,637.51c-3.86,0-3.86,6,0,6S598.36,637.51,594.49,637.51Z" transform="translate(-296.51 -258.52)"/><path class="a643efdf-931a-48d7-9f3a-f430d1067ddc" d="M592.83,648.84c-3.86,0-3.87,6,0,6S596.69,648.84,592.83,648.84Z" transform="translate(-296.51 -258.52)"/><path class="a643efdf-931a-48d7-9f3a-f430d1067ddc" d="M604.83,642.18c-3.86,0-3.87,6,0,6S608.69,642.18,604.83,642.18Z" transform="translate(-296.51 -258.52)"/><path class="a643efdf-931a-48d7-9f3a-f430d1067ddc" d="M722.16,650.18c-3.86,0-3.87,6,0,6S726,650.18,722.16,650.18Z" transform="translate(-296.51 -258.52)"/><path class="a643efdf-931a-48d7-9f3a-f430d1067ddc" d="M642.16,736.18c-3.86,0-3.87,6,0,6S646,736.18,642.16,736.18Z" transform="translate(-296.51 -258.52)"/><path class="a643efdf-931a-48d7-9f3a-f430d1067ddc" d="M652.83,741.18c-3.86,0-3.87,6,0,6S656.69,741.18,652.83,741.18Z" transform="translate(-296.51 -258.52)"/><path class="a643efdf-931a-48d7-9f3a-f430d1067ddc" d="M649.83,728.51c-3.86,0-3.87,6,0,6S653.69,728.51,649.83,728.51Z" transform="translate(-296.51 -258.52)"/><path class="a643efdf-931a-48d7-9f3a-f430d1067ddc" d="M500.16,540.51h19.33c3.86,0,3.87-6,0-6H500.16C496.3,534.51,496.29,540.51,500.16,540.51Z" transform="translate(-296.51 -258.52)"/><path class="a643efdf-931a-48d7-9f3a-f430d1067ddc" d="M535.49,540.51H768.83c3.86,0,3.86-6,0-6H535.49C531.63,534.51,531.63,540.51,535.49,540.51Z" transform="translate(-296.51 -258.52)"/><path class="a643efdf-931a-48d7-9f3a-f430d1067ddc" d="M790.16,540.51h8.67c3.86,0,3.86-6,0-6h-8.67C786.3,534.51,786.29,540.51,790.16,540.51Z" transform="translate(-296.51 -258.52)"/><path class="a643efdf-931a-48d7-9f3a-f430d1067ddc" d="M829.49,540.51h56.67c3.86,0,3.87-6,0-6H829.49C825.63,534.51,825.63,540.51,829.49,540.51Z" transform="translate(-296.51 -258.52)"/></g></svg>