<?xml version="1.0" encoding="utf-8"?>
<!-- Generator: Adobe Illustrator 24.0.1, SVG Export Plug-In . SVG Version: 6.00 Build 0)  -->
<svg version="1.1" id="Layer_1" xmlns="http://www.w3.org/2000/svg" xmlns:xlink="http://www.w3.org/1999/xlink" x="0px" y="0px"
	 viewBox="0 0 762.6 458" style="enable-background:new 0 0 762.6 458;" xml:space="preserve">
<style type="text/css">
	.st0{fill:#E2AF2D;}
	.st1{fill:#B78516;}
	.st2{fill:#B90005;}
	.st3{fill:#E0C485;}
	.st4{fill:#927E62;}
	.st5{fill:#E7D2B3;}
	.st6{fill:#5E4B36;}
	.st7{fill:#A58F75;}
	.st8{fill:#FFF0D1;}
	.st9{fill:#D3C8B0;}
	.st10{fill:#D03312;}
	.st11{fill:#882503;}
	.st12{fill:#362919;}
	.st13{fill:#50402D;}
	.st14{fill:#D71713;}
	.st15{fill:#B6180D;}
	.st16{fill:#F2A87A;}
	.st17{fill:#8E9C27;}
	.st18{fill:#68741B;}
	.st19{fill:#D4C35F;}
	.st20{fill:#DC8300;}
	.st21{fill:#F29100;}
	.st22{fill:#DB740A;}
	.st23{fill:#FAB900;}
	.st24{fill:#843000;}
	.st25{fill:#632300;}
	.st26{fill:#F9B200;}
	.st27{fill:#FFDB95;}
	.st28{fill:#C76B07;}
	.st29{fill:#EBCE00;}
	.st30{fill:#C59A00;}
	.st31{fill:#CDA000;}
	.st32{fill:#9F7F00;}
	.st33{fill:#B08B00;}
	.st34{fill:#B28C00;}
	.st35{fill:#DF9F1B;}
	.st36{fill:#CF9519;}
	.st37{fill:#FBC235;}
	.st38{fill:#B17B11;}
</style>
<title>addMealCategoryImage</title>
<g>
	<g id="fdfe0684-9116-45b5-953d-0849d84d512c">
		<path class="st0" d="M186.3,119.6H40.6C18.2,119.6,0,134.6,0,153l0,0c0,18.5,18.2,33.5,40.6,33.5h114.3
			c17.5,0,31.7,11.7,31.7,26.1l0,0c0,14.4-14.2,26.1-31.7,26.1H143c-20,0-36.2,13.4-36.2,29.9l0,0c0,16.5,16.2,29.8,36.2,29.8h53.1
			c15.7,0,28.5,10.5,28.5,23.5l0,0c0,13-12.7,23.5-28.5,23.5h-67.8c-14.4,0-26,9.6-26,21.5l0,0c0,11.8,11.7,21.5,26,21.5h299.1
			v-42.9h-9.8v-46.9h6.9v-58.1h17.9v-53.8h33.8v-66.9h41.6V67.4H472V0.3H140.3c-22.5,0-40.7,15-40.7,33.5l0,0
			c0,18.6,18.2,33.6,40.7,33.6"/>
		<path class="st1" d="M115.7,278H61.9c-8.6,0-15.7-7-15.7-15.6l0,0c0-8.6,7-15.7,15.6-15.7l0,0h53.8c8.6,0,15.7,7,15.7,15.6
			c0,0,0,0,0,0.1l0,0l0,0C131.4,271,124.4,278,115.7,278L115.7,278L115.7,278z"/>
		<path class="st1" d="M69.9,176.4H27.2c-11,0-20-9-20-20l0,0c0-11,9-20,20-20h42.7c11,0,20,9,20,20l0,0
			C89.9,167.4,81,176.4,69.9,176.4z"/>
		<path class="st0" d="M410.5,388v-42.9h8v-46.9h-5.7v-58.1H398v-53.9h-27.8v-66.9H336V67.1h37.7V0H647c18.5,0,33.5,15,33.5,33.6
			l0,0c0,18.5-15,33.5-33.5,33.5h-37.9c-14.4,0-26.1,11.7-26.1,26.1l0,0l0,0c0,14.4,11.7,26.1,26.1,26.1l0,0h120
			c18.5,0,33.4,15,33.5,33.4l0,0l0,0l0,0c0,18.5-15,33.4-33.5,33.4H635c-14.4,0-26.1,11.7-26.1,26.1l0,0l0,0
			c0,14.4,11.7,26.1,26.1,26.1c0,0,0,0,0.1,0h9.8c16.5,0,29.8,13.4,29.8,29.9l0,0l0,0l0,0c0,16.5-13.3,29.8-29.8,29.9l0,0"/>
		<path class="st1" d="M645.1,273.9H699c8.6,0,15.7-7,15.7-15.7l0,0c0-8.6-7-15.7-15.7-15.7h-53.9c-8.6,0-15.7,7-15.7,15.7l0,0l0,0
			C629.5,266.9,636.5,273.9,645.1,273.9L645.1,273.9z"/>
		<path class="st1" d="M657.5,177.5h42.7c11,0,20-9,20-20l0,0c0-11-9-20-20-20h-42.7c-11,0-20,9-20,20l0,0
			C637.5,168.5,646.5,177.5,657.5,177.5z"/>
		<path class="st2" d="M165.8,99.4"/>
		<path class="st1" d="M165.8,106.4c9,0,9-14,0-14S156.8,106.4,165.8,106.4z"/>
		<path class="st2" d="M163.8,309.4v-62.7"/>
		<path class="st1" d="M170.8,309.4v-62.7c0-9-14-9-14,0v62.7C156.8,318.4,170.8,318.4,170.8,309.4z"/>
		<path class="st2" d="M163.8,216v-16"/>
		<path class="st1" d="M170.8,216v-16c0-9-14-9-14,0v16C156.8,225,170.8,225,170.8,216z"/>
		<path class="st2" d="M531.5,89.4"/>
		<path class="st1" d="M531.5,96.4c9,0,9-14,0-14S522.5,96.4,531.5,96.4z"/>
		<path class="st2" d="M553.5,64.4"/>
		<path class="st1" d="M553.5,71.4c9,0,9-14,0-14S544.5,71.4,553.5,71.4z"/>
		<path class="st2" d="M566.5,87.4"/>
		<path class="st1" d="M566.5,94.4c9,0,9-14,0-14S557.5,94.4,566.5,94.4z"/>
		<path class="st3" d="M637.5,264.4c9,0,9-14,0-14S628.5,264.4,637.5,264.4z"/>
		<path class="st2" d="M627,289.4"/>
		<path class="st1" d="M627,296.4c9,0,9-14,0-14S618,296.4,627,296.4z"/>
		<path class="st2" d="M655,288.4"/>
		<path class="st1" d="M655,295.4c9,0,9-14,0-14S646,295.4,655,295.4z"/>
		<path class="st2" d="M604.6,143.5"/>
		<path class="st1" d="M604.6,150.5c9,0,9-14,0-14S595.6,150.5,604.6,150.5z"/>
		<polygon class="st4" points="221.9,404.4 239.1,439.4 420.5,439.4 440.3,404.4 		"/>
		<polygon class="st5" points="560.2,404.4 440.3,404.4 420.5,439.4 542.9,439.4 		"/>
		<path class="st6" d="M196.2,391.3c-6.2,0-11.1,5-11.1,11.1l0,0v3.8c0,6.2,5,11.1,11.1,11.1h253.7l14.7-26.1L196.2,391.3z"/>
		<path class="st7" d="M578.6,391.3h-114l-14.7,26.1h128.6c6.2,0,11.1-5,11.1-11.1v-3.8C589.6,396.2,584.6,391.3,578.6,391.3z"/>
		<rect x="446.5" y="75.4" class="st8" width="12.8" height="122.7"/>
		<path class="st9" d="M459.2,75.4v122.7h-12.8v-6.7c4.3,0,7.8-23.7,7.8-52.7s-3.5-52.7-7.8-52.7V75.5L459.2,75.4z"/>
		<polygon class="st10" points="508.6,391.5 397.1,391.5 375.8,167.4 529.9,167.4 		"/>
		<path class="st11" d="M529.9,167.4l-21.3,224.1H397.1l-2.2-23.2c5.8,2.3,12,3.4,18.2,3.5c42.2,0,76.4-53.5,76.4-119.4
			c0-33.1-8.6-63.1-22.6-84.7L529.9,167.4z"/>
		<path class="st12" d="M531.7,156.5h-78.9l5.1,17.7h73.8c4.9,0,8.9-4,8.9-8.9l0,0C540.5,160.4,536.5,156.5,531.7,156.5L531.7,156.5
			z"/>
		<polygon class="st13" points="452.8,156.5 417.6,156.5 421,174.2 457.8,174.2 		"/>
		<path class="st12" d="M374.1,156.5c-4.9,0.2-8.8,4.3-8.5,9.2c0.2,4.6,3.9,8.4,8.5,8.5H421l-3.4-17.7H374.1z"/>
		<path class="st12" d="M393.3,147.6c-4.9,0-8.9,4-8.9,8.9l0,0c0,4.9,4,8.9,8.9,8.9l0,0h25.9l-3.4-17.7H393.3z"/>
		<polygon class="st13" points="450.2,147.6 415.9,147.6 419.2,165.4 455.2,165.4 		"/>
		<path class="st12" d="M512.3,147.6h-62.2l5.1,17.7h57.1c4.9,0,8.9-4,8.9-8.9l0,0l0,0C521.3,151.5,517.3,147.6,512.3,147.6z"/>
		<path class="st14" d="M210.3,269.9c-1.2,0-2.2,1-2.2,2.2v2.6c0,1.2,1,2.2,2.2,2.2h43.8l7-7L210.3,269.9z"/>
		<path class="st15" d="M303.5,269.9H261l-7,7h49.5c1.2,0,2.2-1,2.2-2.2V272C305.7,270.9,304.8,269.9,303.5,269.9
			C303.6,269.9,303.6,269.9,303.5,269.9z"/>
		<polygon class="st16" points="368.7,269.9 334.1,269.9 329.6,276.8 364.1,276.8 		"/>
		<path class="st14" d="M306.2,269.9c-1.2,0-2.2,1-2.2,2.2v2.6c0,1.2,1,2.2,2.2,2.2h23.6l4.4-7L306.2,269.9z"/>
		<path class="st15" d="M399.4,269.9h-30.7l-4.5,7h35.2c1.2,0,2.2-1,2.2-2.2V272C401.5,270.9,400.7,269.9,399.4,269.9L399.4,269.9z"
			/>
		<path class="st17" d="M210.3,342.6c-1.2,0-2.2,1-2.2,2.2v2.6c0,1.2,1,2.2,2.2,2.2h43.8l7-7L210.3,342.6z"/>
		<path class="st18" d="M303.5,342.6H261l-7,7h49.5c1.2,0,2.2-1,2.2-2.2v-2.6C305.7,343.6,304.8,342.6,303.5,342.6
			C303.6,342.6,303.6,342.6,303.5,342.6z"/>
		<polygon class="st19" points="361.5,342.6 326.9,342.6 322.5,349.7 357,349.7 		"/>
		<path class="st17" d="M298.9,342.6c-1.2,0-2.2,1-2.2,2.2v2.6c0,1.2,1,2.2,2.2,2.2h23.6l4.4-7L298.9,342.6z"/>
		<path class="st18" d="M392.2,342.6h-30.7l-4.5,7h35.2c1.2,0,2.2-1,2.2-2.2v-2.6C394.4,343.6,393.5,342.6,392.2,342.6L392.2,342.6z
			"/>
		<path class="st20" d="M256.2,198.1h106.4c32.5,0,58.9,26.4,58.9,58.9v12.9l0,0H197.2l0,0v-12.8
			C197.2,224.5,223.7,198.1,256.2,198.1L256.2,198.1L256.2,198.1z"/>
		<path class="st21" d="M421.6,269.9c0-39.6-32.1-71.7-71.7-71.7h-81c-39.6,0-71.7,32.1-71.7,71.7H421.6z"/>
		<path class="st22" d="M381.5,269.9c0-39.6-32.1-71.7-71.7-71.7l0,0H269c-39.6,0-71.7,32.1-71.7,71.7H381.5z"/>
		<path class="st23" d="M269.6,227.3h-11.6c-2.7,0-5-2.2-5-5l0,0l0,0c0-2.7,2.3-5,5-5l0,0h11.6c2.7,0,5,2.2,5,5l0,0
			C274.5,225,272.3,227.3,269.6,227.3z"/>
		<path class="st23" d="M316.7,227.3h-11.6c-2.7,0-5-2.3-5-5l0,0c0-2.7,2.3-5,5-5h11.6c2.7,0,5,2.2,5,5l0,0l0,0
			C321.6,225,319.4,227.3,316.7,227.3L316.7,227.3z"/>
		<path class="st23" d="M363.7,227.3h-11.6c-2.7,0-5-2.3-5-5l0,0l0,0c0-2.7,2.3-5,5-5h11.6c2.7,0,5,2.3,5,5l0,0
			C368.7,225,366.5,227.3,363.7,227.3L363.7,227.3z"/>
		<path class="st23" d="M345.2,249.8h-11.6c-2.7,0-5-2.3-5-5l0,0c0-2.7,2.2-5,5-5l0,0h11.6c2.7,0,5,2.3,5,5l0,0l0,0
			C350.2,247.5,347.9,249.8,345.2,249.8z"/>
		<path class="st23" d="M294.2,249.8h-11.6c-2.7,0-5-2.3-5-5l0,0c0-2.7,2.2-5,5-5l0,0h11.6c2.7,0,5,2.3,5,5l0,0l0,0
			C299.2,247.5,296.9,249.8,294.2,249.8z"/>
		<path class="st24" d="M215.4,316.1h188.1c4.3,0,7.8,3.5,7.8,7.8v3.4c0,4.3-3.5,7.8-7.8,7.8H215.4c-4.3,0-7.8-3.5-7.8-7.8v-3.4
			C207.7,319.6,211.2,316.1,215.4,316.1z"/>
		<path class="st24" d="M411.2,322.1v7c0,3.2-2.1,5.9-4.6,5.9H212.2c-2.6,0-4.6-2.7-4.6-5.9v-7c0-3.2,2.1-5.9,4.6-5.9h194.4
			C409.2,316.1,411.2,318.7,411.2,322.1z"/>
		<path class="st25" d="M397.6,329.7v5.3H212.2c-2.6,0-4.6-2.7-4.6-5.9v-5.3h185.3C395.5,323.7,397.6,326.4,397.6,329.7z"/>
		<path class="st24" d="M390.1,326.3c-0.2,0-0.4,0-0.6,0.2c-0.8,0.6-0.8,1.8-0.1,2.5l0.1,0.1c0.2,0.1,0.4,0.2,0.6,0.2
			c0.8,0.2,1.5-0.5,1.5-1.5C391.6,326.8,390.8,326.1,390.1,326.3z"/>
		<path class="st17" d="M400.8,303.8H222.2c-1.8,0-3.4,1.5-3.4,3.4v0.8H216c-1.8,0-3.4,1.5-3.4,3.4l0,0v1.5c0,1.8,1.5,3.4,3.4,3.4
			h13.4c0,9.4,7.6,17,17,17c5.7,0,11.1-2.9,14.3-7.8c3.9-5.8,10.4-9.3,17.4-9.2h1.2c5.7,0.1,11.2,2.4,15.2,6.5
			c3.7,3.6,9.5,3.6,13.1-0.1c0.1-0.1,0.2-0.2,0.3-0.4c3.4-3.9,8.1-6.1,13.3-6.2h9.8c4.4,0.1,8.8,1.7,12,4.8c3.5,3.1,8.9,3.1,12.3,0
			c3.6-3.1,8.2-4.9,13-4.8h26.3c1.8,0,3.4-1.5,3.4-3.4v-0.8h2.8c1.8,0,3.4-1.5,3.4-3.4l0,0V307C404.1,305.3,402.6,303.8,400.8,303.8
			z"/>
		<path class="st18" d="M225.5,305.9h116.7c1.8,0,3.4,1.5,3.4,3.4v1.4c0,1.8-1.5,3.4-3.4,3.4H225.5c-1.8,0-3.4-1.5-3.4-3.4v-1.4
			C222.2,307.4,223.7,305.9,225.5,305.9z"/>
		<path class="st18" d="M355.9,305.9h13.3c1.8,0,3.4,1.5,3.4,3.4v1.4c0,1.8-1.5,3.4-3.4,3.4h-13.3c-1.8,0-3.4-1.5-3.4-3.4v-1.4
			C352.6,307.4,354.1,305.9,355.9,305.9z"/>
		<path class="st26" d="M219.2,334.4h178.6c1.8,0,3.4,1.5,3.4,3.4v1.4c0,1.8-1.5,3.4-3.4,3.4H219.2c-1.8,0-3.4-1.5-3.4-3.4v-1.4
			C215.8,335.9,217.3,334.4,219.2,334.4z"/>
		<path class="st27" d="M401.1,338.5c0,1-0.2,2.1-0.8,2.9c-0.4,0.6-1.1,1.2-1.9,1.2c0.3-0.6,0.4-1.4,0.4-2.2c0-2.3-1.2-4.1-2.7-4.1
			H216.2c0.1-0.2,0.2-0.4,0.3-0.6c0.4-0.6,1.1-1.2,1.9-1.2h179.8C399.8,334.4,401.1,336.3,401.1,338.5z"/>
		<path class="st26" d="M219.2,276.8h178.6c1.8,0,3.4,1.5,3.4,3.4v1.4c0,1.8-1.5,3.4-3.4,3.4H219.2c-1.8,0-3.4-1.5-3.4-3.4v-1.4
			C215.8,278.3,217.3,276.8,219.2,276.8z"/>
		<path class="st27" d="M401.1,280.9c0,1-0.2,2.1-0.8,2.9c-0.4,0.6-1.1,1.2-1.9,1.2c0.3-0.6,0.4-1.4,0.4-2.2c0-2.3-1.2-4.1-2.7-4.1
			H216.2c0.1-0.2,0.2-0.4,0.3-0.6c0.4-0.6,1.1-1.2,1.9-1.2h179.8C399.8,276.8,401.1,278.6,401.1,280.9z"/>
		<path class="st24" d="M215.4,285h188.1c4.3,0,7.8,3.5,7.8,7.8v3.4c0,4.3-3.5,7.8-7.8,7.8H215.4c-4.3,0-7.8-3.5-7.8-7.8v-3.4
			C207.7,288.5,211.2,285,215.4,285z"/>
		<path class="st24" d="M411.2,291v7c0,3.2-2.1,5.9-4.6,5.9H212.2c-2.6,0-4.6-2.7-4.6-5.9v-7c0-3.2,2.1-5.9,4.6-5.9h194.4
			C409.2,285,411.2,287.7,411.2,291z"/>
		<path class="st25" d="M397.6,298.5v5.2H212.2c-2.6,0-4.6-2.7-4.6-5.9v-5.2h185.3C395.5,292.6,397.6,295.3,397.6,298.5z"/>
		<path class="st24" d="M390.1,295.2c-0.2,0-0.4,0-0.6,0.2c-0.8,0.6-0.8,1.8-0.1,2.5l0.1,0.1c0.2,0.1,0.4,0.2,0.6,0.2
			c0.8,0.2,1.5-0.5,1.5-1.5C391.6,295.7,390.8,295,390.1,295.2z"/>
		<path class="st21" d="M414.8,368.9v3.2c0,10.6-8.1,19.2-18.1,19.2H222.2c-9.9,0-18.1-8.6-18.1-19.2v-3.2
			c0-10.6,8.1-19.2,18.1-19.2h174.5C406.7,349.7,414.8,358.2,414.8,368.9z"/>
		<path class="st28" d="M364.1,368.9v3.2c0,10.6-8.1,19.2-18.1,19.2H222.2c-9.9,0-18.1-8.6-18.1-19.2v-3.2
			c0-10.6,8.1-19.2,18.1-19.2h123.9C356,349.7,364.1,358.2,364.1,368.9z"/>
		<polygon class="st29" points="479.7,371.6 455.8,256.4 445,265.8 469.8,371.6 		"/>
		<polygon class="st30" points="479.7,371.6 455.8,256.4 453,258.8 476.4,371.6 		"/>
		<polygon class="st31" points="480.9,371.6 475.7,256.4 463.6,263.9 471.2,371.6 		"/>
		<polygon class="st32" points="480.9,371.6 475.7,256.4 472.5,258.3 477.6,371.6 		"/>
		<polygon class="st29" points="476.1,371.6 471.1,263.4 459,271 466.3,371.6 		"/>
		<polygon class="st32" points="476.1,371.6 471.1,263.4 468,265.3 472.9,371.6 		"/>
		<polygon class="st29" points="499,371.6 494,261 481.9,268.6 489.3,371.6 		"/>
		<polygon class="st30" points="499,371.6 494,261 490.9,263 495.8,371.6 		"/>
		<polygon class="st31" points="482.8,371.6 491,257.7 478.2,263.8 473.1,371.6 		"/>
		<polygon class="st32" points="482.7,371.6 491,257.7 487.7,259.2 479.6,371.6 		"/>
		<polygon class="st29" points="497.3,371.6 506.3,249.8 493.3,255.8 487.9,371.6 		"/>
		<polygon class="st30" points="497.3,371.6 506.3,249.8 502.9,251.3 494.2,371.6 		"/>
		<polygon class="st31" points="537.5,371.6 545.4,263.5 532.4,269.7 527.7,371.6 		"/>
		<polygon class="st32" points="537.5,371.6 545.4,263.5 542,265.1 534.3,371.6 		"/>
		<polygon class="st29" points="531.1,371.6 563,278.1 549.3,279.9 521.1,371.6 		"/>
		<polygon class="st30" points="531.1,371.6 563,278.1 559.4,278.5 527.7,371.6 		"/>
		<polygon class="st29" points="526.2,371.6 534.7,275.3 521.7,280.4 516.5,371.6 		"/>
		<polygon class="st33" points="526.2,371.6 534.7,275.3 531.3,276.6 522.9,371.6 		"/>
		<polygon class="st29" points="516.7,371.6 525.2,256.5 512.2,262.6 507.1,371.6 		"/>
		<polygon class="st32" points="516.7,371.6 525.2,256.5 521.8,258.1 513.6,371.6 		"/>
		<polygon class="st34" points="473,371.6 532.1,270.4 517.8,270.2 462.1,371.6 		"/>
		<polygon class="st30" points="473,371.6 532.1,270.4 528.4,270.3 469.3,371.6 		"/>
		<polygon class="st29" points="498.2,371.6 484.9,261.1 473.4,269.6 488.3,371.6 		"/>
		<polygon class="st32" points="498.2,371.6 484.9,261.1 481.9,263.3 494.9,371.6 		"/>
		<polygon class="st31" points="488.5,371.6 539.3,263.9 525.1,265 478,371.6 		"/>
		<polygon class="st32" points="488.5,371.6 539.3,263.9 535.7,264.3 485,371.6 		"/>
		<polygon class="st29" points="505.2,371.6 553.2,269.9 538.9,271 494.6,371.6 		"/>
		<polygon class="st30" points="505.2,371.6 553.2,269.9 549.5,270.2 501.6,371.6 		"/>
		<polygon class="st32" points="514.9,371.6 563,269.9 548.7,271 504.3,371.6 		"/>
		<polygon class="st30" points="514.9,371.6 563,269.9 559.3,270.2 511.4,371.6 		"/>
		<polygon class="st29" points="470.9,371.6 525.5,256 511.2,257.1 460.8,371.6 		"/>
		<polygon class="st30" points="470.9,371.6 525.5,256 521.8,256.4 467.3,371.6 		"/>
		<polygon class="st29" points="520.1,370.3 511,370.8 492.3,278.6 503.9,272.6 		"/>
		<polygon class="st30" points="520.1,370.3 511,370.8 510.9,370.4 516.7,370.1 500.9,274.1 503.9,272.6 		"/>
		<polygon class="st35" points="447.5,318.4 447.5,391.5 482.3,391.5 499.7,318.4 		"/>
		<polygon class="st36" points="531.4,318.4 499.7,318.4 482.3,391.5 531.4,391.5 		"/>
		<polygon class="st37" points="516.1,358.7 432.1,358.7 447.5,318.4 531.4,318.4 		"/>
		<rect x="531.4" y="318.4" class="st38" width="31.7" height="72.9"/>
		<polygon class="st37" points="563.1,318.4 531.4,318.4 546.8,358.7 578.6,358.7 		"/>
	</g>
</g>
</svg>
