<?xml version="1.0" encoding="utf-8"?>
<!-- Generator: Adobe Illustrator 24.0.1, SVG Export Plug-In . SVG Version: 6.00 Build 0)  -->
<svg version="1.1" id="f2e85de6-fd64-4ce5-9632-7e6fb9a03d6d"
	 xmlns="http://www.w3.org/2000/svg" xmlns:xlink="http://www.w3.org/1999/xlink" x="0px" y="0px" viewBox="0 0 387.5 387.5"
	 style="enable-background:new 0 0 387.5 387.5;" xml:space="preserve">
<style type="text/css">
	.st0{fill:#C3EEFF;}
</style>
<title>clockIcon</title>
<path class="st0" d="M193.7,388.5C86.4,388.5-1,301.1-1,193.7S86.4-1,193.7-1c107.4,0,194.7,87.4,194.7,194.7
	S301.1,388.5,193.7,388.5z M193.7,28.6c-91.1,0-165.1,74.1-165.1,165.1c0,91.1,74.1,165.1,165.1,165.1h1v0
	c43.8-0.3,84.8-17.4,115.8-48.4c31.2-31.2,48.4-72.7,48.4-116.8C358.9,102.7,284.8,28.6,193.7,28.6z"/>
<path class="st0" d="M193.7,388.5C86.4,388.5-1,301.1-1,193.7S86.4-1,193.7-1c107.4,0,194.7,87.4,194.7,194.7
	S301.1,388.5,193.7,388.5z M193.7,28.6c-91.1,0-165.1,74.1-165.1,165.1c0,91.1,74.1,165.1,165.1,165.1h1v0
	c43.8-0.3,84.8-17.4,115.8-48.4c31.2-31.2,48.4-72.7,48.4-116.8C358.9,102.7,284.8,28.6,193.7,28.6z"/>
<path class="st0" d="M193.7,0C86.7,0,0,86.7,0,193.7s86.7,193.7,193.7,193.7s193.7-86.7,193.7-193.7S300.7,0,193.7,0z M193.7,359.9
	c-91.8,0-166.1-74.4-166.1-166.1C27.6,102,102,27.6,193.7,27.6c91.8,0,166.1,74.4,166.1,166.1C359.9,285.5,285.5,359.9,193.7,359.9
	C193.8,359.9,193.7,359.9,193.7,359.9L193.7,359.9z"/>
<polygon class="st0" points="193.7,75.6 183.9,87.1 186,193.8 201.4,193.8 203.5,87.1 "/>
<polygon class="st0" points="285.6,193.8 271.7,184.6 193.7,186.6 193.7,201 271.7,203 "/>
<path class="st0" d="M208.9,193.8c0,7.8-6.8,14.2-15.2,14.2s-15.2-6.4-15.2-14.2s6.8-14.2,15.2-14.2S208.9,186,208.9,193.8z"/>
</svg>
