<svg version="1.1" id="f2e85de6-fd64-4ce5-9632-7e6fb9a03d6d" xmlns="http://www.w3.org/2000/svg" x="0" y="0" viewBox="0 0 387.5 387.5" style="enable-background:new 0 0 387.5 387.5" xml:space="preserve"><style>.st0{fill:#c3eeff}</style><path class="st0" d="M193.7 388.5C86.4 388.5-1 301.1-1 193.7S86.4-1 193.7-1c107.4 0 194.7 87.4 194.7 194.7s-87.3 194.8-194.7 194.8zm0-359.9c-91.1 0-165.1 74.1-165.1 165.1 0 91.1 74.1 165.1 165.1 165.1h1c43.8-.3 84.8-17.4 115.8-48.4 31.2-31.2 48.4-72.7 48.4-116.8 0-90.9-74.1-165-165.2-165z"/><path class="st0" d="M193.7 388.5C86.4 388.5-1 301.1-1 193.7S86.4-1 193.7-1c107.4 0 194.7 87.4 194.7 194.7s-87.3 194.8-194.7 194.8zm0-359.9c-91.1 0-165.1 74.1-165.1 165.1 0 91.1 74.1 165.1 165.1 165.1h1c43.8-.3 84.8-17.4 115.8-48.4 31.2-31.2 48.4-72.7 48.4-116.8 0-90.9-74.1-165-165.2-165z"/><path class="st0" d="M193.7 0C86.7 0 0 86.7 0 193.7s86.7 193.7 193.7 193.7 193.7-86.7 193.7-193.7S300.7 0 193.7 0zm0 359.9c-91.8 0-166.1-74.4-166.1-166.1C27.6 102 102 27.6 193.7 27.6c91.8 0 166.1 74.4 166.1 166.1.1 91.8-74.3 166.2-166.1 166.2.1 0 0 0 0 0z"/><path class="st0" d="m193.7 75.6-9.8 11.5 2.1 106.7h15.4l2.1-106.7z"/><path class="st0" d="m285.6 193.8-13.9-9.2-78 2V201l78 2z"/><path class="st0" d="M208.9 193.8c0 7.8-6.8 14.2-15.2 14.2s-15.2-6.4-15.2-14.2 6.8-14.2 15.2-14.2 15.2 6.4 15.2 14.2z"/></svg>