<svg data-name="Layer 2" xmlns="http://www.w3.org/2000/svg" viewBox="0 0 1365 1407.44"><path d="M1465.1 351.83c-8.65 0-17.4.56-26.17 1.44-1.45-4.19-2.29-8.1-3.91-12.44a436.35 436.35 0 0 0-82.71-136.68c-35.06-39.21-77.27-71-122-92.06a349.81 349.81 0 0 0-299.8-.09c-45 20.88-86.13 51.84-122.71 92.3a433.29 433.29 0 0 0-82.17 136.26c-1.47 3.82-2.54 7.88-3.91 11.69-169.8 5.08-306.62 160.61-306.62 351.49 0 165.32 103.36 307.06 245 342.89v400c0 21.6 15.66 39.1 35 39.1h770c19.36 0 35-17.5 35-39.1v-393.17c157.3-19.51 280-168.88 280-349.72 0-194.07-141.29-351.91-315-351.91Zm-735 1055.72v-117.3h700v117.3Zm735-430.11c-19.34 0-35 17.47-35 39.1v195.51h-140v-195.51c0-21.63-15.64-39.1-35-39.1s-35 17.47-35 39.1v195.51h-105v-195.51c0-21.63-15.64-39.1-35-39.1s-35 17.47-35 39.1v195.51h-105v-195.51c0-21.63-15.64-39.1-35-39.1s-35 17.47-35 39.1v195.51h-140v-198.21c0-19.75-13.14-36.35-30.68-38.8C577.25 958 485.1 841.42 485.1 703.74c0-140 94.71-255.73 216.29-271.66a484.35 484.35 0 0 0-6.29 76.15A470.5 470.5 0 0 0 725.53 676c7.56 19.9 28.26 29.11 45.9 20.75 17.81-8.49 26.11-31.44 18.55-51.3a384.62 384.62 0 0 1-24.88-137.22 394 394 0 0 1 14-104.43c3.19-11 6.64-21.56 10.92-32.62a354.73 354.73 0 0 1 67.23-111.56c29.86-33 63.57-58.39 100.35-75.5a285.65 285.65 0 0 1 245.41 0c36.56 17.13 71 43.18 99.76 75.28a347.52 347.52 0 0 1 79 148.13 393.36 393.36 0 0 1-11.31 238.12c-7.44 19.92 1 42.83 18.83 51.12a31.34 31.34 0 0 0 13.47 3c13.7 0 26.7-9.06 32.29-24.05a475.07 475.07 0 0 0 23.32-245.38c2.23-.07 4.47-.37 6.66-.37 135.08 0 245 122.8 245 273.71s-109.85 273.76-244.93 273.76Z" transform="translate(-415.1 -78.31)" style="fill:#f7babb"/></svg>