<svg id="a2252533-7dc4-47d8-b059-212003211124" data-name="Layer 3" xmlns="http://www.w3.org/2000/svg" viewBox="0 0 83.39 85.76"><defs><style>.adada4ad-301a-429c-81b9-5c4a378bb832{fill:none;stroke:#3f3f3f;stroke-linecap:round;stroke-miterlimit:10;stroke-width:3px;}</style></defs><title>cookHatIconBlack</title><path class="adada4ad-301a-429c-81b9-5c4a378bb832" d="M64.66,88.74H19.45a2,2,0,0,1-2-2v-24c-14.46.39-27.16-37.27,3.3-40" transform="translate(-0.61 -4.48)"/><path class="adada4ad-301a-429c-81b9-5c4a378bb832" d="M21.31,40.88C11.78.77,55.45-4.38,62,23.43a38.35,38.35,0,0,1-.41,17.45" transform="translate(-0.61 -4.48)"/><path class="adada4ad-301a-429c-81b9-5c4a378bb832" d="M62,23.43c26-2,27.15,34.81,4,39.32v24a2,2,0,0,1-2,2h0" transform="translate(-0.61 -4.48)"/><line class="adada4ad-301a-429c-81b9-5c4a378bb832" x1="16.88" y1="72.1" x2="65.42" y2="72.1"/><line class="adada4ad-301a-429c-81b9-5c4a378bb832" x1="29.63" y1="57.68" x2="29.63" y2="72.1"/><line class="adada4ad-301a-429c-81b9-5c4a378bb832" x1="40.58" y1="57.68" x2="40.58" y2="72.1"/><line class="adada4ad-301a-429c-81b9-5c4a378bb832" x1="51.4" y1="57.68" x2="51.4" y2="72.1"/></svg>