<?xml version="1.0" encoding="utf-8"?>
<!-- Generator: Adobe Illustrator 24.0.1, SVG Export Plug-In . SVG Version: 6.00 Build 0)  -->
<svg version="1.1" id="b18d102a-bb6b-4d28-a9dd-2544521da326"
	 xmlns="http://www.w3.org/2000/svg" xmlns:xlink="http://www.w3.org/1999/xlink" x="0px" y="0px" viewBox="0 0 302.2 257.7"
	 style="enable-background:new 0 0 302.2 257.7;" xml:space="preserve">
<style type="text/css">
	.st0{fill:none;stroke:#000000;stroke-width:13;stroke-miterlimit:10;}
	.st1{fill:none;stroke:#000000;stroke-width:13;stroke-linecap:round;stroke-miterlimit:10;}
</style>
<title>favouriteIcon</title>
<path class="st0" d="M273.8,28.4c-29.1-29.2-76.3-29.2-105.5-0.1c0,0-0.1,0.1-0.1,0.1l-7.9,7.9c-5.1,5.1-13.4,5.1-18.5,0l-7.9-7.9
	c-29.2-29.2-76.4-29.2-105.6,0s-29.2,76.4,0,105.6l0,0l17.1,17.1l96.3,96.3c5.1,5.1,13.4,5.1,18.5,0l96.5-96.3l17.1-17.1
	C303,104.8,303,57.5,273.8,28.4z"/>
<line class="st1" x1="164.7" y1="165.3" x2="226.9" y2="103.1"/>
</svg>
