<svg id="f32e20e5-89ff-40d9-8ed5-45a4bdd2092b" data-name="baac7b98-d8fc-4201-885f-f78df92bb2ed" xmlns="http://www.w3.org/2000/svg" viewBox="0 0 302.98 276.41"><defs><style>.f19e9998-459a-427a-a90b-d698095de18a{fill:none;stroke:#000;stroke-miterlimit:10;stroke-width:13px;}</style></defs><title>homeIcon</title><path class="f19e9998-459a-427a-a90b-d698095de18a" d="M26.16,235.85V124.76a15.53,15.53,0,0,0-15.33-15.33H-9.59c-3.83,0-5.12-3.83-2.56-6.38L123.21-9.37c3.84-3.83,10.21-3.83,15.32,0L275.18,113.26c2.55,2.56,1.27,6.39-2.57,6.39l-31.92-1.28q-3.83,0-3.83,3.83V235.85a15.53,15.53,0,0,1-15.32,15.32H182a15.54,15.54,0,0,1-15.33-15.33v-66.4a15.53,15.53,0,0,0-15.31-15.32H110.45a15.52,15.52,0,0,0-15.33,15.33v66.4A15.54,15.54,0,0,1,79.8,251.17H40.21C32.54,251.17,26.16,243.51,26.16,235.85Z" transform="translate(19.98 18.74)"/></svg>