<svg data-name="baac7b98-d8fc-4201-885f-f78df92bb2ed" xmlns="http://www.w3.org/2000/svg" viewBox="0 0 302.98 276.41"><path d="M26.16 235.85V124.76a15.53 15.53 0 0 0-15.33-15.33H-9.59c-3.83 0-5.12-3.83-2.56-6.38L123.21-9.37c3.84-3.83 10.21-3.83 15.32 0l136.65 122.63c2.55 2.56 1.27 6.39-2.57 6.39l-31.92-1.28q-3.83 0-3.83 3.83v113.65a15.53 15.53 0 0 1-15.32 15.32H182a15.54 15.54 0 0 1-15.33-15.33v-66.4a15.53 15.53 0 0 0-15.31-15.32h-40.91a15.52 15.52 0 0 0-15.33 15.33v66.4a15.54 15.54 0 0 1-15.32 15.32H40.21c-7.67 0-14.05-7.66-14.05-15.32Z" transform="translate(19.98 18.74)" style="fill:none;stroke-miterlimit:10;stroke-width:13px"/></svg>