<svg id="b91559a8-7461-4deb-a9ff-dbe4efae2342" data-name="Layer 5" xmlns="http://www.w3.org/2000/svg" viewBox="0 0 802 734"><defs><style>.a27a2d74-3ec4-4f52-9621-1debe308c1bf{fill:#f7f8fa}</style></defs><path class="a27a2d74-3ec4-4f52-9621-1debe308c1bf" d="M894.88 233H558.42c-51.89 0-94.11 43.05-94.11 96v178.9h59.58V329c0-19.58 15.49-35.51 34.53-35.51h336.46c19 0 34.54 15.93 34.54 35.51v542c0 19.58-15.49 35.51-34.54 35.51H558.42c-19 0-34.53-15.93-34.53-35.51V665.85h-59.58V871c0 52.91 42.22 96 94.11 96h336.46c51.9 0 94.12-43 94.12-96V329c0-52.95-42.22-96-94.12-96Z" transform="translate(-187 -233)"/><path class="a27a2d74-3ec4-4f52-9621-1debe308c1bf" d="M293.31 616.84h425a31.13 31.13 0 0 0 0-62.26H300.44l122.84-126.09a33.72 33.72 0 0 0-.19-47 32.45 32.45 0 0 0-23.25-9.71h-.13a32.45 32.45 0 0 0-23.31 9.9L196.46 566.34a33.74 33.74 0 0 0 .18 47L378 796.63a32.45 32.45 0 0 0 23.25 9.71h.13a32.52 32.52 0 0 0 23.32-9.89 33.73 33.73 0 0 0-.19-47Z" transform="translate(-187 -233)"/></svg>