<svg id="f35c1c34-45e9-4317-bad1-54fef41eb287" data-name="Layer 1" xmlns="http://www.w3.org/2000/svg" viewBox="0 0 115.6 93.92"><defs><style>.e3c42478-1fb5-4704-8be1-d81419029ed6{fill:#ebeef2}.a9faa824-a045-4075-b1f8-ca91e460fcbe{fill:none;stroke:#ebeef2;stroke-miterlimit:10}</style></defs><rect class="e3c42478-1fb5-4704-8be1-d81419029ed6" x=".02" width="115.56" height="12.6" rx="6.3"/><rect class="e3c42478-1fb5-4704-8be1-d81419029ed6" x=".02" y="19.44" width="40.68" height="12.6" rx="6.3"/><rect class="e3c42478-1fb5-4704-8be1-d81419029ed6" x="74.9" y="19.44" width="40.68" height="12.6" rx="6.3"/><rect class="a9faa824-a045-4075-b1f8-ca91e460fcbe" x=".5" y="43.13" width="34.54" height="50.29" rx="7.62"/><rect class="a9faa824-a045-4075-b1f8-ca91e460fcbe" x="40.5" y="43.13" width="34.54" height="50.29" rx="7.62"/><rect class="a9faa824-a045-4075-b1f8-ca91e460fcbe" x="80.56" y="43.13" width="34.54" height="50.29" rx="7.62"/><circle class="a9faa824-a045-4075-b1f8-ca91e460fcbe" cx="17.74" cy="77.58" r="11.4"/><circle class="a9faa824-a045-4075-b1f8-ca91e460fcbe" cx="57.77" cy="77.58" r="11.4"/><circle class="a9faa824-a045-4075-b1f8-ca91e460fcbe" cx="97.8" cy="77.58" r="11.4"/><rect class="e3c42478-1fb5-4704-8be1-d81419029ed6" x="7.57" y="47.04" width="20.39" height="5.28" rx="2.64"/><rect class="e3c42478-1fb5-4704-8be1-d81419029ed6" x="47.61" y="47.04" width="20.39" height="5.28" rx="2.64"/><rect class="e3c42478-1fb5-4704-8be1-d81419029ed6" x="87.64" y="48.81" width="20.39" height="5.28" rx="2.64"/><rect class="e3c42478-1fb5-4704-8be1-d81419029ed6" x="11.48" y="54.99" width="12.58" height="5.28" rx="2.64"/><rect class="e3c42478-1fb5-4704-8be1-d81419029ed6" x="51.51" y="54.99" width="12.58" height="5.28" rx="2.64"/><rect class="e3c42478-1fb5-4704-8be1-d81419029ed6" x="91.54" y="55.88" width="12.58" height="5.28" rx="2.64"/></svg>