<svg id="be5fb430-84ae-451c-a70a-4fa0b7220b12" data-name="Layer 7" xmlns="http://www.w3.org/2000/svg" viewBox="0 0 762.61 513.77"><defs><style>.e7370a1d-5262-4fef-8945-f1f0348a86cb{fill:#d32f4a}.b711dc65-8411-440f-8faa-e1f8939f439c{fill:#b90005}.aace29df-180a-4520-b0fd-95b310013e41,.b3a38f69-72c4-4e61-80b1-f988233fea3d{fill:#fff}.aace29df-180a-4520-b0fd-95b310013e41{opacity:.5}.f646ddfd-9acc-4966-854c-c834882372ab{fill:#41af2b}.b9dd300d-2786-412f-a825-a4e677ed5f15{fill:#c1272d}.b5956b4c-5f43-49e9-86d3-3d372806eec3{fill:#f4bb3a}.bb227901-25df-4dc5-bd5c-ff2fbbf98794{fill:#b55232}.abf127f4-3c7e-47eb-8b00-adf848ab0546{fill:#c1a585}.fce30ae3-c7f5-4dec-85ca-13ae69a24aed{fill:#318320}.a89124de-f890-416f-91a8-c0f42d98a85a{fill:#d6562b}.a50556ec-6782-48c2-8b50-4c4326dcb664{fill:#911d22}.ba2dfc14-8b3a-44f4-b7a2-b6e34a63b56c{fill:#200900}.b1178f5e-ea3f-430f-b35a-13a7028594af{fill:#265425}.eec853cd-1389-4757-9a30-f8526b1e7ea0{fill:#f7af51}.eaf82d03-b9db-4a1f-8ba4-bacdf959bda1{fill:#de5d15}.e4f7513e-04fb-4236-9897-4262d8dc5a8b{fill:#64270c}.e8ed356e-268b-45ce-a65d-816cd03e58d3{fill:#814415}.ac6250c8-4bad-48e3-b690-10d181e88a8d{fill:none;stroke:#844a37;stroke-miterlimit:10;stroke-width:4px}.a0d3c3f8-967e-4afd-adf8-e287acaadea3{fill:#844a37}</style></defs><path class="e7370a1d-5262-4fef-8945-f1f0348a86cb" d="M768.57 325.91V258.8h-331.8c-22.49 0-40.72 15-40.72 33.55 0 18.53 18.23 33.56 40.72 33.56h46c17.52 0 31.72 11.69 31.72 26.12 0 14.43-14.2 26.13-31.72 26.13H337.12c-22.43 0-40.61 15-40.61 33.45 0 18.48 18.18 33.46 40.61 33.46h114.3c17.52 0 31.72 11.69 31.72 26.12 0 14.43-14.2 26.12-31.72 26.12h-11.85c-20 0-36.24 13.37-36.24 29.86 0 16.49 16.23 29.85 36.24 29.85h53.15c15.73 0 28.47 10.5 28.47 23.46 0 13-12.74 23.45-28.47 23.45h-67.81c-14.37 0-26 9.6-26 21.45 0 11.84 11.66 21.45 26 21.45H724v-42.9h-9.81V557h6.94v-58.1H739v-53.83h33.78v-66.91h41.56v-52.25Z" transform="translate(-296.51 -232.91)"/><path class="b711dc65-8411-440f-8faa-e1f8939f439c" d="M412.23 536.54h-53.81a15.66 15.66 0 0 1-15.67-15.66 15.66 15.66 0 0 1 15.67-15.67h53.81a15.66 15.66 0 0 1 15.67 15.67 15.66 15.66 0 0 1-15.67 15.66ZM366.45 434.89h-42.7a20 20 0 0 1-20-20 20 20 0 0 1 20-20h42.7a20 20 0 0 1 20 20 20 20 0 0 1-20 20Z" transform="translate(-296.51 -232.91)"/><path class="e7370a1d-5262-4fef-8945-f1f0348a86cb" d="M670.23 325.63v-67.11h273.34a33.56 33.56 0 0 1 33.55 33.56 33.55 33.55 0 0 1-33.55 33.55h-37.88a26.13 26.13 0 0 0-26.13 26.13 26.13 26.13 0 0 0 26.13 26.13h120a33.44 33.44 0 0 1 33.45 33.45 33.45 33.45 0 0 1-33.45 33.45H931.5a26.12 26.12 0 0 0-26.12 26.13 26.12 26.12 0 0 0 26.12 26.13h9.77a29.84 29.84 0 0 1 29.85 29.85 29.85 29.85 0 0 1-29.85 29.86h-43.79A23.45 23.45 0 0 0 874 580.21a23.45 23.45 0 0 0 23.46 23.45h55.86a21.45 21.45 0 0 1 21.45 21.45 21.45 21.45 0 0 1-21.45 21.45H707v-42.9h8v-46.9h-5.72v-58.11h-14.72v-53.86h-27.83v-66.9H632.5v-52.26Z" transform="translate(-296.51 -232.91)"/><path class="b711dc65-8411-440f-8faa-e1f8939f439c" d="M941.65 532.43h53.82a15.68 15.68 0 0 0 15.67-15.67 15.68 15.68 0 0 0-15.67-15.67h-53.82A15.67 15.67 0 0 0 926 516.76a15.67 15.67 0 0 0 15.65 15.67ZM954.05 436h42.7a20 20 0 0 0 20-20 20 20 0 0 0-20-20h-42.7a20 20 0 0 0-20 20 20 20 0 0 0 20 20ZM467.6 326.48c9 0 9-14 0-14s-9 14 0 14ZM462.33 364.88c9 0 9-14 0-14s-9 14 0 14ZM499 350.88c9 0 9-14 0-14s-9 14 0 14ZM460.33 567.88v-62.67M467.33 567.88v-62.67c0-9-14-9-14 0v62.67c0 9 14 9 14 0ZM460.33 474.54v-16M467.33 474.54v-16c0-9-14-9-14 0v16c0 9 14 9 14 0ZM828 354.88c9 0 9-14 0-14s-9 14 0 14ZM850 329.88c9 0 9-14 0-14s-9 14 0 14ZM863 352.88c9 0 9-14 0-14s-9 14 0 14Z" transform="translate(-296.51 -232.91)"/><path d="M934 522.88c9 0 9-14 0-14s-9 14 0 14Z" transform="translate(-296.51 -232.91)" style="fill:#bf4952"/><path class="b711dc65-8411-440f-8faa-e1f8939f439c" d="M923.5 554.88c9 0 9-14 0-14s-9 14 0 14ZM951.5 553.88c9 0 9-14 0-14s-9 14 0 14ZM901.08 409c9 0 9-14 0-14s-9 14 0 14ZM763.56 557.92c9 0 9-14 0-14s-9 14 0 14Z" transform="translate(-296.51 -232.91)"/><path class="aace29df-180a-4520-b0fd-95b310013e41" d="M810 512.86c-24.61 0-46.48 16-71.29 16.87-33.54 1.12-123.08-60.89-77.63-98.57 6.25-5.18 19.9-3.63 23.66-8.24 10.29-12.62-1.77-24-8.78-34.57-16.14-24.24-29.93-47.73-44.1-72.53-11.18-19.57-19.86-31 .16-46 23.64-17.71 41.42-7 66.42.61 25.4 7.78 177.1-5.71 171.9 45.16-20.56 10.77-40.25 11.89-62.49 15-26.39 3.67-31.12 13.78-41.32 33.62-11.88 23.09-11.12 20.72 1.1 41.8 11.79 20.3 22 39.63 39.58 55.73 17.29 15.83 39.67 25.83 54.54 44.36 11.39 14.2 22.18 42.69 12.33 60.85-16.69 1.33-16.09-24.44-23.14-33-7.3-8.95-29.36-21.08-40.94-21.09Z" transform="translate(-296.51 -232.91)"/><path class="aace29df-180a-4520-b0fd-95b310013e41" d="M616.58 566.42c0-11.87-.3-19-10.18-26.28-17.15-12.68-15.67-12-11.43-30.65 3.49-15.33-3.89-32.57-12.76-44.54-11.8-15.94.54-36.5-19.73-46.46-10.91-5.37-21.87-6.1-31.71-14.57-7.39-6.37-19.69-14.53-23.06-24.11s3-19.76 4-30c2-20.1-3.06-26.12-17.45-40.6-12.32-12.4-21-28.23-35.79-38.12-12.28-8.21-25-13.18-38.28-18.37-1-11.79 52.39-18.65 60.27-19.46 21-2.18 45.17 7.09 64.34 15.23 22.54 9.57 45.57 12.65 69.29 17.58 17.85 3.7 27-.17 41.3-9.05 16.87-10.46 59.62-6.2 71.72 9.17-4.47 3.63-8.66 9.95-13.65 13.26-5.93 3.94-13 3.92-19.32 6.31-13.24 5-21.24 8.7-35.6 10.15-11.14 1.12-23.8-2.18-34.25-.81s-10.95 8.91-15 16.84c-7.51 14.72-26.72 19.92-25.56 38.17.58 9.24 4.8 14.61 10.69 21.74 11 13.29 27.58 22.33 34.21 38.5 5 12.3 3.4 26.22-1.45 38.24-2.54 6.29-6 12.27-6.65 19.16-1.74 17.17 2 31.54-6.48 47.68-18.05 34.37 58.39 40.41 44.51 67.72-2.92-2.25-7.11-7.79-10.73-9.32-7.6-3.23-31.21 7.59-31.25-7.41Z" transform="translate(-296.51 -232.91)"/><path class="f646ddfd-9acc-4966-854c-c834882372ab" d="m834.91 638.79-7.12 12.34a36 36 0 0 1 7.94 1.06c.36-.41.73-.81 1.12-1.18a5.18 5.18 0 0 1-1.19-5.08c.65-2.08 3.92-1.19 3.27.9a1.82 1.82 0 0 0 .59 2c.44-.33.9-.64 1.37-1 2.61-1.74 5.8-3.8 6.09-7.24v-.13a1.56 1.56 0 0 1-.71-.42l-2.65-2.66-.14.11a8.8 8.8 0 0 1-8.57 1.3Zm8.06 1.64a1.69 1.69 0 0 1 0 3.38 1.69 1.69 0 0 1 .03-3.38Z" transform="translate(-296.51 -232.91)"/><path class="f646ddfd-9acc-4966-854c-c834882372ab" d="M849 639.05a1.42 1.42 0 0 1 1.37 1.61 9.34 9.34 0 0 1-1.86 4.93 10.73 10.73 0 0 0 3.53-.05c2.14-.38 3.05 2.88.9 3.27a15.19 15.19 0 0 1-6.64-.21 1.66 1.66 0 0 1-.57-.26c-2.08 1.64-4.49 3-6.44 4.93a35.66 35.66 0 0 1 6.21 3 14.9 14.9 0 0 1 1.1-2.72h-.05a1.7 1.7 0 0 1 0-3.39 20.45 20.45 0 0 1 3.27 4.14 11.71 11.71 0 0 0-1.49 3.84c.56.41 1.1.83 1.64 1.27.38.32.75.65 1.11 1a31.67 31.67 0 0 1 12.81-7.59 22.83 22.83 0 0 1-1.74-3.75c-.68-1.94 2.4-2.77 3.08-.85a18 18 0 0 0 1.88 3.81 29.32 29.32 0 0 1 4.74-.49c2.1-1.13 3.17-3.31 3.79-5.85A5.56 5.56 0 0 1 872 642a1.7 1.7 0 0 1 1.18-2.08 1.73 1.73 0 0 1 2.09 1.18.66.66 0 0 1 0 .13v.06c0 .09.11.18.16.28v.08l.22.23s.13.11.15.14a2.61 2.61 0 0 0 .28.17c.26-1.92.44-3.87.76-5.59l-3.94-.78c-2-.39-1.15-3.46.85-3.07l4 .79c1-1.52 3.82-.63 3.07 1.27q-.12.33-.24.69a1.78 1.78 0 0 1-.18.55c-.09.31-.17.62-.25.94a3.35 3.35 0 0 0 1.52-.85c1.57-1.52 4 .88 2.39 2.4a6.88 6.88 0 0 1-4.57 1.95c-.61 4-1 8.26-3 11.25a28.63 28.63 0 0 1 5.29 1.32c-.35-1.87-.69-3.73-1-5.6a1.63 1.63 0 0 1 .2-1.15 1.72 1.72 0 0 1 1.06-3 1.69 1.69 0 0 1 1.42 2.56 1.35 1.35 0 0 1 .39.77l1.15 5.76a1.6 1.6 0 0 1-.7 1.67 30.24 30.24 0 0 1 6.05 3.63c.52.4 1 .82 1.5 1.25 1.7-.81 3.36-2 2.8-3.91-.46-1.61-2.43-2.4-3.63-3.51a15.06 15.06 0 0 1-4.4-7.53c-.9-3.78.11-7.49 0-11.29-.13-4.61-2.84-7-6.77-8.84a1.81 1.81 0 0 1-.6-.43 12.28 12.28 0 0 0-8.46 7.14c-.33.74-.61 1.53-.9 2.36-.35 1-.7 2-1.18 3a10.76 10.76 0 0 1-5.11 5.58 7 7 0 0 1-8.68-2c-1.84-2.66-1-5.67-.48-7.86.35-1.33.71-2.71.37-3.36s-1.49-.8-2.49-.38c-1.46.6-2.66 2.12-3.73 3.67l-.49.71a35.64 35.64 0 0 1-2.17 2.94l2.6 2.61a1.45 1.45 0 0 1 .47 1.2Zm26.92-10.86a1.7 1.7 0 0 1 0 3.39 1.7 1.7 0 0 1 0-3.39Zm-5.56 17.69a1.7 1.7 0 0 1 0 3.39 1.7 1.7 0 0 1 0-3.39Zm-9.93 1.93a1.7 1.7 0 0 1 0 3.39 1.7 1.7 0 0 1 0-3.39Z" transform="translate(-296.51 -232.91)"/><path class="b9dd300d-2786-412f-a825-a4e677ed5f15" d="M891.2 673.24c-.68-.67-1.31-1.2-1.89-1.75a12.51 12.51 0 0 1 1 4.61c.07 2.18-3.32 2.17-3.39 0a8.76 8.76 0 0 0-2.36-5.76c-1.49-1.59.9-4 2.39-2.39l.16.18c-.61-1.54-1.16-2.7-2.95-3.26a18 18 0 0 1-2.8-.92l-.28-.16a1.7 1.7 0 1 1-1.34-.68 1.61 1.61 0 0 1 .39 0 6.27 6.27 0 0 1-1.13-1.22c-.54-.76-1.11-2.54-2.08-3.22a22 22 0 0 0-10.31.29l-.64.19c-7.54 8.31 2.59 18.18 8.73 23.42h18.16c.05-2.99.57-7.11-1.66-9.33Z" transform="translate(-296.51 -232.91)"/><path class="b5956b4c-5f43-49e9-86d3-3d372806eec3" d="M695.66 548c-8.17 10.46-14.36 23-21.14 34.49L667.78 594c-9.5 16.14-19 32.28-28.09 48.66q-2.76 5-5.48 9.94l-6.74 12.28a150.74 150.74 0 0 0-7.47 14.79c-.42 1-.82 2-1.32 3h70.91a10.13 10.13 0 0 1 .66-2.92 19.33 19.33 0 0 1 .35-2.61 10 10 0 0 1 2.69-4.84c2.08-2.13 4.81-3.52 7.07-5.41a1.69 1.69 0 0 1 .1-3.38 1.61 1.61 0 0 1 1.64 1.68 10.11 10.11 0 0 0 1.06-1.5c3.12-5.33 2.42-11.75 5-17a21.12 21.12 0 0 0 4.82-.4 18.78 18.78 0 0 0-4.09-.91 12.89 12.89 0 0 1 2.89-3.21l.48-.37a22.27 22.27 0 0 1 2-2l1.17.26s1.47.3 3.37.49a24.12 24.12 0 0 0 5.89 0c-1.61-.47-3.86-.88-5.7-1.26l-3.27-.67h-.05c1.66-1.35 3.41-2.61 5-4.08a12.78 12.78 0 0 0 2.54-3.23c1-3.1 1.35-6.49 2.68-9.49a18.56 18.56 0 0 1 3.67-5.19c1.17-1.65 2.48-3.21 3.85-4.83a20.5 20.5 0 0 0 2.13-3.05c1.09-3 1.13-6.26 2.08-9.6 1.14-4 4.12-6.6 7.47-8.89l.91-.62c.34-.32.67-.65 1-1 2.22-2 5.94-5 6.39-8.36a5.39 5.39 0 0 0-.07-.79 5.63 5.63 0 0 1-.5-.84 3.11 3.11 0 0 0-.28-.23.94.94 0 0 1-.4-.22c-.22-.19-.42-.39-.62-.59a2.94 2.94 0 0 1-.57-.66 9.42 9.42 0 0 1-1.83-3.79l-51.52-29.8a8.42 8.42 0 0 1-1.94 4.64Zm-50.37 102c3.57-6.06 8.48-14.39 14-23.45s10.53-17.15 14.2-23 6-9.43 6-9.43-1.62 3.86-4.59 10-7.4 14.62-12.9 23.74-11.15 17.14-15.39 22.86-7.08 9.15-7.08 9.15 2.18-3.87 5.76-9.87Zm1 21.84a1 1 0 0 1 0-1.91 1 1 0 0 1 .02 1.89Zm16.79-6.73-4.46-1.27c-2.37-.67-1.36-4.35 1-3.68l4.46 1.26c2.4.66 1.39 4.34-.98 3.67Zm8.16 3.23a1.91 1.91 0 0 1 0-3.82 1.91 1.91 0 0 1 .02 3.8Zm15.84-31.06a5.73 5.73 0 0 1-1.81 2.56 6.51 6.51 0 0 1-3.63 1.45 8.77 8.77 0 0 1-3.68-.5 8.88 8.88 0 0 1-2.71-1.43 3 3 0 0 1-.84-1.18 2.19 2.19 0 0 1-.11-1.1 1.61 1.61 0 0 1 .41-.85 1.76 1.76 0 0 0 0 .24 1.58 1.58 0 0 0 .09.6 1.7 1.7 0 0 0 1.29 1 20.49 20.49 0 0 0 2.46.23 20.13 20.13 0 0 0 2.8 0 8.38 8.38 0 0 0 2.48-.52 6.33 6.33 0 0 0 1.94-1.18 5.15 5.15 0 0 0 1.31-1.9l.07-.18a4.1 4.1 0 0 1-.05 2.74Zm-.26-16.54a4.28 4.28 0 0 1-1-3.36.93.93 0 0 1 1-.91 1 1 0 0 1 1.3-.34 4.47 4.47 0 0 1 2.3 2.33 2.41 2.41 0 0 1-.85 2.72 2.33 2.33 0 0 1-2.73-.46Zm3.48 46.72a1.7 1.7 0 0 1 0-3.39 1.7 1.7 0 0 1 .02 3.37Zm49.57-88.61a1 1 0 0 1 0 1.91 1 1 0 0 1 .02-1.93Zm-22.34 30.76a4.53 4.53 0 0 1-2 2 5.34 5.34 0 0 1-3.41.48 6.77 6.77 0 0 1-3-1.32 9.47 9.47 0 0 1-1.73-1.77 11.64 11.64 0 0 1-1.17-1.86s.9.24 2.14.71a24.39 24.39 0 0 0 4.2 1.27 8 8 0 0 0 2 .15 4.42 4.42 0 0 0 1.72-.52 3.55 3.55 0 0 0 1.14-1 3.6 3.6 0 0 0 .36-.54 2.44 2.44 0 0 1 .11.63 3.55 3.55 0 0 1-.34 1.75Zm.84-24.39c-2.46 0-2.46-3.83 0-3.83s2.48 3.81.02 3.81Zm16.25-3.69c-2.55.66-4.8-2.15-4.81-4.44a1 1 0 0 1 1.9-.11.76.76 0 0 1 1 .65c.19 1.42 1.66.65 2.54 1.25a1.48 1.48 0 0 1-.61 2.63Zm-26.08-22.83a74.26 74.26 0 0 1 11.93 5.18 71.8 71.8 0 0 1 10.68 7.21c2.56 2.08 4 3.54 4 3.54s-1.82-.8-4.73-2.22-6.9-3.42-11.29-5.83-8.34-4.76-11.22-6.5-4.65-2.9-4.65-2.9 2.1.44 5.3 1.5Zm-2.19 14.65a21 21 0 0 0 5.66 3.53 1.92 1.92 0 0 1 .69 2.61 2 2 0 0 1-2.62.69 24.37 24.37 0 0 1-6.44-4.12c-1.82-1.65.89-4.35 2.73-2.73Zm-5.35 23.1a12.74 12.74 0 0 0 1.57.59 15.59 15.59 0 0 0 4.54.61 16.25 16.25 0 0 0 4.49-.61 11.86 11.86 0 0 0 1.55-.56l.6-.26s-.07.2-.24.57a6.29 6.29 0 0 1-1 1.43 7.31 7.31 0 0 1-5.35 2.44 7.43 7.43 0 0 1-5.5-2.41 6.57 6.57 0 0 1-1-1.48 4.38 4.38 0 0 1-.26-.61Zm-.79 22.35a1 1 0 0 1 0 1.91 1 1 0 0 1 .03-1.91Z" transform="translate(-296.51 -232.91)"/><path class="bb227901-25df-4dc5-bd5c-ff2fbbf98794" d="M795.51 420a408.37 408.37 0 0 0-16 48.59l3.76 1.26 15.43-46a3 3 0 0 0-1.88-3.77 2.88 2.88 0 0 0-1.31-.08Z" transform="translate(-296.51 -232.91)"/><path class="abf127f4-3c7e-47eb-8b00-adf848ab0546" d="m440.91 239-3-.64-16.21 76.16 2.79 1.61L440.91 239z"/><path class="b9dd300d-2786-412f-a825-a4e677ed5f15" d="M849.8 676.77c-.59-2.46.45-4.27-2-6a7.29 7.29 0 0 1-2.81-3.24c-.31-.79-.34-2.66-.76-4a29.66 29.66 0 0 0-18-5.62 1.33 1.33 0 0 1-.5 1.26 17.12 17.12 0 0 0-6.08 13.72c.12 2.89 2.41 6.69 1.89 9.75h30.32c.53-2.03-1.59-3.94-2.06-5.87Zm-17.46-11.22a1.69 1.69 0 0 1 0-3.38 1.69 1.69 0 0 1 0 3.38Zm9.84 8.55a8.87 8.87 0 0 0-4.46-5.62c-1.92-1-.21-4 1.71-2.93a12.27 12.27 0 0 1 6 7.65 1.7 1.7 0 0 1-3.25.9ZM815.25 677.77l-.15-.49c0 .07-.05.14-.07.22a2 2 0 0 1 .22.27ZM816.54 671.1v-.56l-.22.39a.73.73 0 0 1 .22.17ZM854.09 676.46c-.09-.23-.18-.45-.28-.68q.06.36.15.72Z" transform="translate(-296.51 -232.91)"/><path class="b5956b4c-5f43-49e9-86d3-3d372806eec3" d="M825.59 589h.12ZM753.37 662ZM855.17 567.53v.08ZM783.19 678.13a9.46 9.46 0 0 0 1.89-2.33 19.29 19.29 0 0 1-1.89 2.33ZM825.92 588.54ZM804 539.07c-9.29 7-15.17 18.18-21.38 27.81-24.27 37.67-46.3 76.71-68.25 115.76h55.38a19.15 19.15 0 0 0 6.53-1.82 2.75 2.75 0 0 1 1.88-1 18.56 18.56 0 0 0 7.74-9.49 44.8 44.8 0 0 0 1.49-6.95 12.9 12.9 0 0 1 3.42-8c2-2 4.45-2.51 7-2.92a11.25 11.25 0 0 1 5.36-1.17l.26-.11a15.35 15.35 0 0 0 2.59-3.58 60.53 60.53 0 0 0 2.07-6 15.66 15.66 0 0 1 1-4.39l2.3.71a32.7 32.7 0 0 0 3.45.77 18.33 18.33 0 0 0 6.21.14 19.16 19.16 0 0 0-3.41-1.81q.75-.72 1.53-1.41a17.33 17.33 0 0 0-1.54 1.32l-.06.06c-.71-.3-1.41-.57-2.07-.81-1.82-.68-3.27-1.11-3.27-1.11l-1.34-.41a12 12 0 0 1 1.21-1 19.34 19.34 0 0 1 3.3-3.07c2.76-2 6.1-3.3 8.64-5.6.75.15 4.54.83 7 0-1.61-1.5-4.51-2.41-5.84-2.76a25.23 25.23 0 0 1 .13-5.64 10.56 10.56 0 0 1 .1-1.49 6.89 6.89 0 0 1 2.73-4.9 7.78 7.78 0 0 1 2.67-.9 32.33 32.33 0 0 1 4.47-2.17 3.23 3.23 0 0 0 .22-.59c-.11-.31-.21-.61-.3-.92s-.2-.71-.28-1.06l.29.07a14 14 0 0 0 4.29.46 38.6 38.6 0 0 0-3.89-1.7l-1-.39a15.54 15.54 0 0 1-.21-2.11A10.47 10.47 0 0 1 834 599a8 8 0 0 1 0-2.08h.29l2.42.37c1.37.2 3 .51 4.3.57a13.67 13.67 0 0 0-4-1.84 19.19 19.19 0 0 0-2.48-.57h-.12a6.26 6.26 0 0 1 .6-1.1 9.72 9.72 0 0 1 2.76-2.51 17 17 0 0 1 1.71-1.67 38.81 38.81 0 0 0 7.76-9.33c2.18-4.72 4.19-9.53 6.21-14.32l-48.85-28.19a2.19 2.19 0 0 1-.6.74ZM756.68 662.5a4.61 4.61 0 0 1-2.55 1.57 2.28 2.28 0 0 1-2.46-1.19 1.92 1.92 0 0 1 .69-2.5 2.38 2.38 0 0 1 2.32.16.81.81 0 0 1 1 0l.77.51a1 1 0 0 1 .23 1.45Zm.17-7.11a1.52 1.52 0 0 1-2.34-.43 1 1 0 0 1 .35-1.3.93.93 0 0 1 .33-.12.76.76 0 0 1 .09-.18 1 1 0 0 1 1.3-.34 1.53 1.53 0 0 1 .27 2.37Zm5.39 6.45a1 1 0 0 1 0-1.91 1 1 0 0 1 0 1.91ZM747 643.32a294 294 0 0 1 15.9-29 280.19 280.19 0 0 1 18.84-26.63s-6.57 12.66-16.16 28S747 643.32 747 643.32Zm22.4-25.64a1 1 0 0 1 0-1.91 1 1 0 0 1-.05 1.91ZM785.24 647a6.12 6.12 0 0 1-1.54.25 6.95 6.95 0 0 1-7.19-6.75 6.24 6.24 0 0 1 .15-1.62 3.93 3.93 0 0 1 .16-.57l.31.54c.19.33.48.78.84 1.28a21.51 21.51 0 0 0 2.79 3 23.52 23.52 0 0 0 3.18 2.59 16.27 16.27 0 0 0 1.83 1.05 5.53 5.53 0 0 1-.53.23Zm3-13.52-12.74-2.12c-2.42-.4-1.39-4.09 1-3.68l12.74 2.12c2.49.44 1.46 4.13-.95 3.72Zm52.8-57.85a1.7 1.7 0 0 1 0 3.39 1.7 1.7 0 0 1 .05-3.35Zm-5.64-4.23a1.7 1.7 0 0 1 0 3.39 1.7 1.7 0 0 1 .05-3.35Zm0 8.47a1.7 1.7 0 0 1 0 3.39 1.7 1.7 0 0 1 .05-3.35Zm-3.78 4.65a1 1 0 0 1 0 1.91 1 1 0 0 1 .05-1.87Zm-36.22-.45a3 3 0 0 1 .08-.6 5.88 5.88 0 0 0 .38.5 6.28 6.28 0 0 0 1.07 1 14.91 14.91 0 0 0 3.55 1.81c1.38.54 2.84 1.13 4 1.66a15.56 15.56 0 0 1 1.86 1 11.75 11.75 0 0 1-1.91.51 9.19 9.19 0 0 1-5-.36 6.44 6.44 0 0 1-3.8-3.87 4.32 4.32 0 0 1-.18-1.61Zm2 33.78a1 1 0 0 1 0-1.91 1 1 0 0 1 .08 1.95Zm3.1-4a4.7 4.7 0 0 1-5.85-4.14c-.1-1.22 1.81-1.21 1.91 0a2.73 2.73 0 0 0 2.46 2.37.93.93 0 0 1 .7-.32 1.49 1.49 0 0 1 1.2.5 1 1 0 0 1-.34 1.58Zm1.93-12.36a5.19 5.19 0 0 1-1.86-4.36 4.52 4.52 0 0 1 .34-1.39 3 3 0 0 1 .23-.46 8.51 8.51 0 0 0 .92 1.6 12.4 12.4 0 0 0 2.26 2.26 13.48 13.48 0 0 0 2.6 1.81 8.48 8.48 0 0 0 1.7.65 3.92 3.92 0 0 1-.39.3 4.24 4.24 0 0 1-1.25.56 5.12 5.12 0 0 1-4.47-.98Zm13-33.7a1 1 0 0 1 0-1.91 1 1 0 0 1 .1 1.9Zm12.24 19.89a2.27 2.27 0 0 1-.53 2.25 1.91 1.91 0 0 1-2.19.28 1.6 1.6 0 0 1-.66-2.18 1.63 1.63 0 0 1 1.82-.79 1 1 0 0 1 1.66.43Zm-2-30.82a1.91 1.91 0 0 1 0 3.82 1.91 1.91 0 0 1 .05-3.83Zm-13.91-5.08 6.79 2.14c2.34.73 1.33 4.42-1 3.68l-6.79-2.13c-2.31-.75-1.3-4.47 1.05-3.7Zm-7 12.33a.94.94 0 0 1 1.6.67.92.92 0 0 1 0 1 2.47 2.47 0 0 0 .57 1.1c.45.47 1.13.54 1.56 1 .95 1 0 2.36-1.26 2.41a3.33 3.33 0 0 1-2.94-1.83 2.75 2.75 0 0 1-.21-.51.77.77 0 0 1-.49-.64 3.26 3.26 0 0 1 1.25-3.21Z" transform="translate(-296.51 -232.91)"/><path class="b5956b4c-5f43-49e9-86d3-3d372806eec3" d="M753.35 662v.06l.15.08a.65.65 0 0 0 .27.05 1 1 0 0 0-.42-.19Z" transform="translate(-296.51 -232.91)"/><path class="fce30ae3-c7f5-4dec-85ca-13ae69a24aed" d="M843.12 626.63a1.73 1.73 0 0 1-.44-1.29l-4.86 8.42a3.91 3.91 0 0 0 2.36-.76 15.51 15.51 0 0 0 3.26-3.87l.51-.75.39-.53c-.42-.39-.83-.79-1.22-1.22ZM864.33 600.26a1.64 1.64 0 0 1-2 1.11 1.61 1.61 0 0 1-1.11-2l2-4.66a7.56 7.56 0 0 0-2.68-.33l-4.67 8.09a13.35 13.35 0 0 1 .3 7 8.31 8.31 0 0 1-2 3.44c.83.38 1.65.78 2.45 1.21 1.81 1 .2 3.72-1.6 2.75a37.71 37.71 0 0 0-4-1.87c-.09 0-.17.08-.25.1a8.16 8.16 0 0 1-2.35.4l-1.62 2.81c.29-.08.59-.16.87-.26a1.71 1.71 0 0 1 2.09 1.18 1.75 1.75 0 0 1-1.18 2.09 9.57 9.57 0 0 1-3.81.5l-1.39 2.4a1.61 1.61 0 0 1 2 .17c.31.35.64.69 1 1a11.43 11.43 0 0 1 3.82-2.69 8.55 8.55 0 0 1 5-.39 72.56 72.56 0 0 0 5.48-8.37 5.64 5.64 0 0 1-2.71-3.16 1.72 1.72 0 0 1 1.18-2.09 1.74 1.74 0 0 1 2.09 1.19.4.4 0 0 1 0 .13l.06.08a2.47 2.47 0 0 1 .16.26l.2.21a2.73 2.73 0 0 0 .25.23c-.06 0 0 0 0 0a8.38 8.38 0 0 0 .12-5c-.69-2.08 2.59-3 3.26-.9 1.34 4.06-.18 8.17-2.44 12a7.24 7.24 0 0 0 1.53-.22c2.12-.51 3 2.75.9 3.27a11.32 11.32 0 0 1-4.49.17c-.88 1.28-1.76 2.52-2.58 3.7a6.17 6.17 0 0 1 1.57 2c1.33 2.57.63 5.23.07 7.36-.34 1.33-.7 2.7-.34 3.22a1.58 1.58 0 0 0 1.67.13 5.68 5.68 0 0 0 2.35-2.82 25.12 25.12 0 0 0 1-2.55l.34-.94a17.64 17.64 0 0 1-2.64-1.33c-1.85-1.15-.15-4.08 1.71-2.93a14.27 14.27 0 0 0 2.28 1.14 17.43 17.43 0 0 1 13.59-9.35 14 14 0 0 1 5.73.76c1.12-1.22 2.24-2.44 3.35-3.68.58-.65 1.63-1.48 1.43-2.51s-1.58-1.45-2.53-1.5a1.82 1.82 0 0 1-1.29-.56l-.24.22c-.45.41-.9.82-1.37 1.21-2.28 1.88-4.8 2.57-7 1.94-3.78-1.07-5-5-5.68-7.41a20.77 20.77 0 0 0-4.44-8.52 11.27 11.27 0 0 0-1.71-1.47Zm-12.13 19.65a1.7 1.7 0 0 1 0-3.39 1.7 1.7 0 0 1 0 3.39Zm34.35-6.91a1.7 1.7 0 0 1 0 3.39 1.7 1.7 0 0 1 0-3.39Zm-18.78-2.8a1.62 1.62 0 0 1 2.11.5 2 2 0 0 1 .44-.06 1.7 1.7 0 0 1 1.42 2.57l1.85 2.52A1.61 1.61 0 0 1 873 618a1.64 1.64 0 0 1-2.18-.58l-3.64-5a1.61 1.61 0 0 1 .59-2.18Z" transform="translate(-296.51 -232.91)"/><path class="bb227901-25df-4dc5-bd5c-ff2fbbf98794" d="M746.6 414.73q-5.62 24.9-11.26 49.81l4.9 1 10.09-47.42a3 3 0 0 0-2.29-3.53 2.88 2.88 0 0 0-1.43.06.06.06 0 0 0-.01.08Z" transform="translate(-296.51 -232.91)"/><path class="abf127f4-3c7e-47eb-8b00-adf848ab0546" d="m483.2 242.88-2.86-.96-29.93 89.18 1.51.87 31.28-89.09z"/><path class="bb227901-25df-4dc5-bd5c-ff2fbbf98794" d="M456.48 734.5c1 3.24 3 5.41 5.17 5.41h446.6c2.13 0 4.2-2.17 5.17-5.41l1.87-6.22H454.62Z" transform="translate(-296.51 -232.91)"/><path class="b5956b4c-5f43-49e9-86d3-3d372806eec3" d="M581.55 574.78q-5.12 8-10.22 15.92-9.68 15.13-19 30.47-18.33 30.27-35.07 61.47h75.88a17.23 17.23 0 0 1 .26-4.92h1.74a38.15 38.15 0 0 0 4.88-.26 20.28 20.28 0 0 0-4.81-1c-.54-.06-1-.09-1.46-.12a17.35 17.35 0 0 1 1.15-3 13.93 13.93 0 0 1 .84-1.48h3.48a86.35 86.35 0 0 0 11.42-.84 84.94 84.94 0 0 0-11.43-.65h-2.36a24.35 24.35 0 0 1 6.71-5.21c2.57-1.49 4.17-3.14 4.48-6.18.21-2 0-4.11.31-6.16a12.13 12.13 0 0 1 4.69-8.17 28.82 28.82 0 0 1 3.24-2.2 24.85 24.85 0 0 1 3.85-2.93c.74-.47 1.43-.91 2.07-1.34 2.92-3.25 2.2-7.57 2.36-11.72v-.26c-.4.63-.82 1.26-1.27 1.89a40.52 40.52 0 0 1-7.34 7.71 32.71 32.71 0 0 1-3.6 2.58s.91-1.37 2.43-3.53 3.62-5.14 6-8.44l6.25-8.52 2.67-3.6s-.14.67-.49 1.81c2.43-2 5.4-3.37 7.64-5.62a8.42 8.42 0 0 0 2.34-4.77 8.56 8.56 0 0 0 1.59-.42 8.49 8.49 0 0 0-1.49-.4c.39-4.28-1.2-9.14.05-13.36l-51.41-29.67c-1.12 4.72-3.76 8.82-6.38 12.92Zm47.35 21.88a1 1 0 0 1 0 1.91 1 1 0 0 1 0-1.91Zm-7.69-.59a1 1 0 0 1 1.85.47c0-.12 0 0 0 0v.06h.16a1 1 0 0 1 1.28.35 1 1 0 0 1-.34 1.31 2.13 2.13 0 0 1-2.95-2.19Zm-11.42-8a1.91 1.91 0 0 1 0 3.82 1.91 1.91 0 0 1 0-3.83ZM548.08 638a164.83 164.83 0 0 1 15.39-19.74s-5.1 9.7-12.79 21.26-15.06 20.6-15.06 20.6A174.52 174.52 0 0 1 548.08 638Zm6.85 32.47a2 2 0 0 1-2.35 1.33l-5.09-1a1.94 1.94 0 0 1-1.34-2.35 2 2 0 0 1 2.35-1.34l5.1 1a1.93 1.93 0 0 1 1.33 2.36Zm6.77 4.22a1.91 1.91 0 0 1 0-3.82 1.91 1.91 0 0 1 0 3.82Zm11.62-8.25a7.41 7.41 0 0 1-4.78-.28 5.63 5.63 0 0 1-3.3-4 4 4 0 0 1 0-1.61 2.56 2.56 0 0 1 .17-.55s.1.2.3.51a4.74 4.74 0 0 0 .9 1.06 11.43 11.43 0 0 0 3.08 1.81l3.57 1.54c1.06.46 1.8.85 1.8.85a8 8 0 0 1-1.74.67Zm6.73-16.11a5.12 5.12 0 0 1-6.69-3.71c-.23-1.2 1.61-1.71 1.84-.51a3.21 3.21 0 0 0 4.34 2.37c1.15-.48 1.64 1.4.51 1.85Zm2.41-71.27a1.7 1.7 0 0 1 0-3.39 1.7 1.7 0 0 1 0 3.39Zm2.17 70.47a1 1 0 0 1 0-1.91 1 1 0 0 1 0 1.91Zm2.06-76.12a1.69 1.69 0 0 1 0-3.38 1.69 1.69 0 0 1 0 3.38ZM604.76 621a6.31 6.31 0 0 1-.82 1.64 7.26 7.26 0 0 1-11.31.87 6.48 6.48 0 0 1-1.11-1.56 6.55 6.55 0 0 1-.28-.64l.63.32a10.82 10.82 0 0 0 1.64.66 12.73 12.73 0 0 0 4.75.51 13.17 13.17 0 0 0 4.59-1.19 10.84 10.84 0 0 0 1.5-.86l.57-.39a6.54 6.54 0 0 1-.16.64Zm-8.64-37.28a2 2 0 0 1 2.62-.69l5.68 2.66a1.93 1.93 0 0 1 .68 2.62 2 2 0 0 1-2.61.68l-5.68-2.66a1.93 1.93 0 0 1-.69-2.6Zm-4.35-9.19a1.7 1.7 0 0 1 0 3.39 1.7 1.7 0 0 1 0-3.38Zm-3 27.6a3.62 3.62 0 0 1 1-1.49 2.29 2.29 0 0 1 .53-.37 4.22 4.22 0 0 0-.14.63 3.79 3.79 0 0 0 .08 1.47 4.42 4.42 0 0 0 2.14 2.68 7.16 7.16 0 0 0 3.49 1.2 6 6 0 0 0 1.47-.08 5 5 0 0 0 .61-.13 2.74 2.74 0 0 1-.31.5 4.71 4.71 0 0 1-1.22 1.12 5.33 5.33 0 0 1-2.44.77 5.39 5.39 0 0 1-3.18-.82 5 5 0 0 1-2.11-2.69 4.29 4.29 0 0 1 .07-2.78ZM623.25 596.74ZM623.05 596.58Z" transform="translate(-296.51 -232.91)"/><path class="f646ddfd-9acc-4966-854c-c834882372ab" d="M491.73 646.91a2.25 2.25 0 0 0 .42 3.6 28.63 28.63 0 0 1 2.92 1.72 7.84 7.84 0 0 1 2.61 4.67 29.6 29.6 0 0 1 9.63-1.3h.32a17 17 0 0 1 1.56-3.85c1-1.8 3.75-.19 2.75 1.6a15 15 0 0 0-1.11 2.57 30.24 30.24 0 0 1 9 2.93l3.1-5.36-.55-.4a12.66 12.66 0 0 1-4.19 1 1.71 1.71 0 0 1-1.69-1.7 1.73 1.73 0 0 1 1.69-1.69 8.75 8.75 0 0 0 1.33-.21 26.56 26.56 0 0 1-2.34-2.75 8.74 8.74 0 0 1-4.1 0 1.71 1.71 0 0 1-1.19-2.08 1.73 1.73 0 0 1 2.09-1.18 5.44 5.44 0 0 0 1.2.13 26.49 26.49 0 0 1-2.84-8.21c-.36-2.13 2.9-3 3.27-.9.09.56.21 1.1.34 1.64.56-1.28 1.11-2.56 1.66-3.85a1.61 1.61 0 0 1 2.18-.57 1.65 1.65 0 0 1 .57 2.18l-1.08 2.52a1.73 1.73 0 0 1 .5 0 1.71 1.71 0 0 1 1.18 2.09 13.9 13.9 0 0 1-2.41 4.06 23.38 23.38 0 0 0 2 2.9 1.72 1.72 0 0 1 1.23-.41 1.69 1.69 0 0 1 3.33.42 6.63 6.63 0 0 1-.61 2.78c.15.19.33.35.49.53l4.86-8.43c-.18 0-.37-.09-.55-.13a1.41 1.41 0 0 1-.88.63 4.77 4.77 0 0 0-2.67 1.36 1.59 1.59 0 0 1-2.25-2.25 8 8 0 0 1 2.4-1.67c-2.06-2-3.07-4.6-3.92-7.17a16 16 0 0 0-2.2-4.92 8.12 8.12 0 0 1-1.3 0c-2.24-.19-3-.83-4.8 1.33-.65.79-1.42 1.66-2 2.46-1.12 1.46-.9 2.64-1.11 4.28-.18 1.31-.9 1.76-1.55 2.81-.83 1.33-.79 2.83-1.37 4.24a23.19 23.19 0 0 1 2.75.8c1.92.68 1.08 3.76-.85 3.07a25.91 25.91 0 0 0-3.88-1.07 9.58 9.58 0 0 1-3.58 2.06 1.45 1.45 0 0 1-.79.05 15.73 15.73 0 0 1-7.22-.13 17.23 17.23 0 0 0-2.35-.2Zm12.59 4.15a1.7 1.7 0 0 1 0 3.39 1.7 1.7 0 0 1 0-3.39Zm-6.47-1.6a1.7 1.7 0 0 1 0 3.39 1.7 1.7 0 0 1 0-3.39Z" transform="translate(-296.51 -232.91)"/><path d="M922.45 707.72H431.74L436 718a5.71 5.71 0 0 0 5.29 3.52h487.3a5.71 5.71 0 0 0 5.28-3.52l4.3-10.26h-15.72Z" transform="translate(-296.51 -232.91)" style="fill:#f09b36"/><path class="b9dd300d-2786-412f-a825-a4e677ed5f15" d="M493.86 667.43a12.88 12.88 0 0 1-1.42 2.7c-1.81 2.22-3.88 2.72-4.85 5.71-.72 2.24-1.31 4.52-1.93 6.8h20.48l4.33-7.5q1.18-5.91 2.38-11.8a22.47 22.47 0 0 0-5.77-1 21.93 21.93 0 0 0-3 .11c-2.1.65-4.21 1.3-6.29 2-1.89.71-3.02 1.11-3.93 2.98Zm16.13-1a1.7 1.7 0 0 1 0 3.39 1.7 1.7 0 0 1 .01-3.42Zm-6.44 3.35a10.94 10.94 0 0 0-7.66 6.14c-.94 2-3.86.25-2.93-1.71a14.11 14.11 0 0 1 9.69-7.69c2.13-.52 3.03 2.76.9 3.23Z" transform="translate(-296.51 -232.91)"/><path class="a89124de-f890-416f-91a8-c0f42d98a85a" d="M832.78 692H427.05a1.88 1.88 0 0 1-1.74-2.58h-1.23l5.77 13.8h15.34v-5.56h-8.72v-4.52h22v4.52h-8.72v5.55h29.41v-5.55h-8.73v-4.52h22v4.52h-8.72v5.55h29.41v-5.55h-8.73v-4.52h22v4.52h-8.72v5.55H547v-5.55h-8.73v-4.52h22v4.52h-8.73v5.55h29.42v-5.55h-8.73v-4.52h22v4.52h-8.73v5.55h29.41v-5.55h-8.72v-4.52h22v4.52h-8.73v5.55h29.41v-5.55H640v-4.52h22v4.52h-8.73v5.55h29.41v-5.55H674v-4.52h22v4.52h-8.72v5.55h29.41v-5.55h-8.79v-4.52h22v4.52h-8.72v5.55h29.41v-5.55h-8.72v-4.52h22v4.52h-8.72v5.55h29.41v-5.55h-8.72v-4.52h22v4.52H789v5.55h29.41v-5.55h-8.73v-4.52h22v4.52h-8.72v5.55h29.41v-5.55h-8.73v-4.52h22v4.52h-8.73v5.55h29.42v-5.55h-8.73v-4.52h22v4.52h-8.73v5.55h29.33v-5.55h-8.73v-4.52h22v4.52h-8.72v5.55h15.35l4.64-11.21Z" transform="translate(-296.51 -232.91)"/><path class="b3a38f69-72c4-4e61-80b1-f988233fea3d" d="M483.53 681.15c-.09.49-.16 1-.22 1.49h2.35c.62-2.28 1.21-4.56 1.93-6.8 1-3 3-3.49 4.85-5.71a12.88 12.88 0 0 0 1.42-2.7c.91-1.87 2-2.27 3.9-2.92 2.08-.72 4.19-1.37 6.29-2a23.54 23.54 0 0 0-14.9 7.43 22.87 22.87 0 0 0-5.62 11.21ZM495.07 652.23a28.63 28.63 0 0 0-2.92-1.72 2.25 2.25 0 0 1-.42-3.6 3.6 3.6 0 0 0-2.63.6c-.9.87-.4 3 .65 4.42a21 21 0 0 0 3.29 3.12 36.66 36.66 0 0 1 2.77 2.47c.62-.23 1.24-.43 1.87-.62a7.84 7.84 0 0 0-2.61-4.67ZM509 638.21c.65-1.05 1.37-1.5 1.55-2.81.21-1.64 0-2.82 1.11-4.28.61-.8 1.38-1.67 2-2.46 1.78-2.16 2.56-1.52 4.8-1.33a8.12 8.12 0 0 0 1.3 0 5.56 5.56 0 0 0-.52-.56c-2-1.83-5.58-1.31-7.65.34-3.07 2.43-3.9 6.6-4.12 8.86l-.09 1.07a20.54 20.54 0 0 1-.86 5.17c.36.07.72.14 1.08.23.64-1.44.6-2.9 1.4-4.23ZM502.1 647.31a9.58 9.58 0 0 0 3.58-2.06c-.25 0-.52-.08-.78-.12a7.79 7.79 0 0 1-.93.88 7.62 7.62 0 0 1-2.66 1.35 1.45 1.45 0 0 0 .79-.05ZM571.33 590.7q5.1-8 10.22-15.92c2.62-4.1 5.26-8.2 6.39-12.95l-1.78-1a1.67 1.67 0 0 0-1.22-.16 1.63 1.63 0 0 0-1 .75L514 682.64h3.29q16.75-31.17 35.07-61.47 9.27-15.36 18.97-30.47ZM596.81 586.34l5.68 2.66a2 2 0 0 0 2.61-.68 1.93 1.93 0 0 0-.68-2.62l-5.68-2.7a2 2 0 0 0-2.62.69 1.93 1.93 0 0 0 .69 2.65ZM609.79 591.88a1.91 1.91 0 0 0 0-3.82 1.91 1.91 0 0 0 0 3.82ZM553.6 668.11l-5.1-1a2 2 0 0 0-2.35 1.34 1.94 1.94 0 0 0 1.34 2.35l5.09 1a2 2 0 0 0 2.35-1.33 1.93 1.93 0 0 0-1.33-2.36ZM561.7 670.87a1.91 1.91 0 0 0 0 3.82 1.91 1.91 0 0 0 0-3.82ZM427.05 692h517.69l1.08-2.58H425.31a1.88 1.88 0 0 0 1.74 2.58ZM627.47 664.86l6.74-12.28q2.73-5 5.48-9.94c9.1-16.38 18.59-32.52 28.09-48.66l6.74-11.46c6.78-11.52 13-24 21.14-34.49a8.42 8.42 0 0 0 1.94-4.67l-2.29-1.36a1.11 1.11 0 0 0-1.52.41l-80.94 140.23h5.85c.5-.95.9-2 1.32-3a150.74 150.74 0 0 1 7.45-14.78ZM710.1 580.16a2 2 0 0 0 2.62-.69 1.92 1.92 0 0 0-.69-2.61 21 21 0 0 1-5.66-3.53c-1.84-1.62-4.55 1.08-2.71 2.71a24.37 24.37 0 0 0 6.44 4.12ZM718.39 581.37c-2.46 0-2.46 3.83 0 3.83s2.47-3.83 0-3.83ZM664.11 661.4l-4.46-1.26c-2.37-.67-3.38 3-1 3.68l4.46 1.27c2.36.67 3.37-3.01 1-3.69ZM671.26 664.5a1.91 1.91 0 0 0 0 3.82 1.91 1.91 0 0 0 0-3.82ZM711.74 682.64h2.6c21.95-39 44-78.09 68.25-115.76 6.21-9.63 12.09-20.76 21.38-27.81a2.19 2.19 0 0 0 .63-.74l-5.15-3a2.32 2.32 0 0 0-3.17.85ZM810.79 555.46l6.79 2.13c2.35.74 3.36-3 1-3.68l-6.79-2.14c-2.33-.77-3.34 2.95-1 3.69ZM825.72 560.67a1.91 1.91 0 0 0 0-3.82 1.91 1.91 0 0 0 0 3.82ZM789.31 629.84l-12.74-2.12c-2.41-.41-3.44 3.28-1 3.68l12.74 2.12c2.39.41 3.42-3.28 1-3.68ZM847.84 670.75c2.41 1.75 1.37 3.56 2 6 .47 1.93 2.59 3.84 2.11 5.87h3.84a29 29 0 0 0-1.66-6.18H854q-.09-.36-.15-.72a29.25 29.25 0 0 0-8.18-11.2c-.44-.37-.9-.71-1.36-1.05.42 1.32.45 3.19.76 4a7.29 7.29 0 0 0 2.77 3.28ZM879 661.93a6.27 6.27 0 0 0 1.13 1.22 1.45 1.45 0 0 1 1 .64l.28.16a18 18 0 0 0 2.8.92c1.79.56 2.34 1.72 2.95 3.26a12.46 12.46 0 0 1 2.17 3.36c.58.55 1.21 1.08 1.89 1.75 2.23 2.22 1.71 6.34 1.68 9.4h3.33a25.89 25.89 0 0 0-10-19.58 23 23 0 0 0-9.26-4.35c.95.68 1.52 2.46 2.03 3.22ZM886.63 632.71c.1 3.8-.91 7.51 0 11.29a15.06 15.06 0 0 0 4.4 7.53c1.2 1.11 3.17 1.9 3.63 3.51.56 2-1.1 3.1-2.8 3.91.65.57 1.27 1.15 1.87 1.76a19.63 19.63 0 0 1 2.47-2.13l.67-.51c1.09-.85 1.68-1.54 1.79-2.12.19-.88-.7-2.22-2.2-3.35-.49-.37-1-.71-1.51-1.06a15.92 15.92 0 0 1-4.79-4.33c-2.23-3.36-2-7.52-1.56-10.35.07-.5.15-1 .22-1.48a17.27 17.27 0 0 0 .27-6.14c-.78-3.54-4.79-6.26-8.78-6a9.3 9.3 0 0 0-1 .15 1.81 1.81 0 0 0 .6.43c3.88 1.88 6.59 4.28 6.72 8.89ZM890.36 612.23c.2 1-.85 1.86-1.43 2.51-1.11 1.24-2.23 2.46-3.35 3.68a15.24 15.24 0 0 1 2.83 1.33l1-1c.6-.61 1.2-1.21 1.77-1.84 1.16-1.31 2.53-3.26 2.42-5.12a3.59 3.59 0 0 0-5.29-3 9.73 9.73 0 0 0-1.77 1.38 1.82 1.82 0 0 0 1.29.56c.95.05 2.31.35 2.53 1.5ZM746.61 414.69a3.06 3.06 0 0 0-.81.35 3 3 0 0 0-1.29 1.88l-10.09 47.42.92.2q5.63-24.9 11.26-49.81a.06.06 0 0 1 .01-.04ZM794.57 420.26a3 3 0 0 0-1.5 1.72l-15.43 46 1.89.63a408.37 408.37 0 0 1 16-48.59 2.82 2.82 0 0 0-.96.24Z" transform="translate(-296.51 -232.91)"/><path class="a89124de-f890-416f-91a8-c0f42d98a85a" d="M639.3 604.86a8.49 8.49 0 0 1 1.49.4 8.56 8.56 0 0 1-1.59.42 8.42 8.42 0 0 1-2.34 4.77c-2.24 2.25-5.21 3.59-7.64 5.62-.21.69-.49 1.54-.86 2.51a41.65 41.65 0 0 1-3.79 7.59v.26c-.16 4.15.56 8.47-2.36 11.72-.64.43-1.33.87-2.07 1.34a24.85 24.85 0 0 0-3.85 2.93 28.82 28.82 0 0 0-3.24 2.2 12.13 12.13 0 0 0-4.69 8.17c-.27 2.05-.1 4.12-.31 6.16-.31 3-1.91 4.69-4.48 6.18a24.35 24.35 0 0 0-6.71 5.21h2.36a84.94 84.94 0 0 1 11.43.65 86.35 86.35 0 0 1-11.42.84h-3.48a13.93 13.93 0 0 0-.84 1.48 17.35 17.35 0 0 0-1.15 3c.42 0 .92.06 1.46.12a20.28 20.28 0 0 1 4.81 1 38.15 38.15 0 0 1-4.88.26h-1.75a17.23 17.23 0 0 0-.26 4.92H604L626.32 644a18.1 18.1 0 0 1-4.85-.72 20.42 20.42 0 0 1 5.57-.75h.13l4.68-8.11a10.68 10.68 0 0 1-3.38-.7 12.63 12.63 0 0 1 4.21-.74l16.8-29.09h-.84a13.39 13.39 0 0 1-4.45-.74 13.22 13.22 0 0 1 4.45-.75h1.7l2-3.41-13-7.48c-1.24 4.21.35 9.07-.04 13.35ZM624.25 598.38a1 1 0 0 0 .34-1.31 1 1 0 0 0-1.28-.35h-.16v-.06c0-.06 0-.13 0 0a1 1 0 0 0-1.85-.47 2.13 2.13 0 0 0 2.95 2.19Zm-1.2-1.8Zm.2.16ZM628.9 598.57a1 1 0 0 0 0-1.91 1 1 0 0 0 0 1.91ZM579.54 648.48a3.21 3.21 0 0 1-4.34-2.37c-.23-1.2-2.07-.69-1.84.51a5.12 5.12 0 0 0 6.69 3.71c1.13-.45.64-2.33-.51-1.85ZM584.63 647.62a1 1 0 0 0 0 1.91 1 1 0 0 0 0-1.91ZM751.55 577.57c.2.2.4.4.62.59a.94.94 0 0 0 .4.22 3.11 3.11 0 0 1 .28.23 5.63 5.63 0 0 0 .5.84 5.39 5.39 0 0 1 .07.79c-.45 3.33-4.17 6.36-6.39 8.36-.36.32-.69.65-1 1l-.91.62c-3.35 2.29-6.33 4.85-7.47 8.89-1 3.34-1 6.58-2.08 9.6a20.5 20.5 0 0 1-2.13 3.05c-1.37 1.62-2.68 3.18-3.85 4.83a18.56 18.56 0 0 0-3.67 5.19c-1.33 3-1.63 6.39-2.68 9.49a12.78 12.78 0 0 1-2.54 3.23c-1.62 1.47-3.37 2.73-5 4.08h.05l3.27.67c1.84.38 4.09.79 5.7 1.26a24.12 24.12 0 0 1-5.89 0c-1.9-.19-3.37-.49-3.37-.49l-1.17-.26a22.27 22.27 0 0 0-2 2l-.48.37a12.89 12.89 0 0 0-2.89 3.21 18.78 18.78 0 0 1 4.09.91 21.12 21.12 0 0 1-4.82.4c-2.56 5.23-1.86 11.65-5 17a10.11 10.11 0 0 1-1.06 1.5 1.61 1.61 0 0 1-1.64 1.71h-.1c-2.26 1.89-5 3.28-7.07 5.41a10 10 0 0 0-2.69 4.84 19.33 19.33 0 0 0-.35 2.61 10.13 10.13 0 0 0-.66 2.92h13.28l3.2-5.56a30 30 0 0 1-6.5-.65 32.82 32.82 0 0 1 7.1-.83h.3l41.17-71.31-1.55-.06a40.92 40.92 0 0 1-7.91-1 41.26 41.26 0 0 1 8-.45l2.34.08 2.14-3.71h-.89s-1.21-.08-2.73-.34l-.78-.14c-.24.45-.49.9-.73 1.36.21-.47.44-.92.69-1.37a16.12 16.12 0 0 1-3.76-1.18 41.56 41.56 0 0 1 4.72 0l2.69.14 1.62.09 9.93-17.2-12.73-7.35a9.42 9.42 0 0 0 1.83 3.79 2.94 2.94 0 0 0 .5.62ZM696 671.39a1.7 1.7 0 0 1 0 3.39 1.7 1.7 0 0 1 0-3.39ZM732.77 577.61a.76.76 0 0 0-1-.65 1 1 0 0 0-1.9.11c0 2.29 2.26 5.1 4.81 4.44a1.48 1.48 0 0 0 .67-2.65c-.92-.6-2.35.14-2.58-1.25ZM739.89 580.74a1 1 0 0 0 0-1.91 1 1 0 0 0 0 1.91ZM690.53 618.41a4.47 4.47 0 0 0-2.3-2.33 1 1 0 0 0-1.3.34.93.93 0 0 0-1 .91 4.28 4.28 0 0 0 1 3.36 2.33 2.33 0 0 0 2.84.41 2.41 2.41 0 0 0 .76-2.69ZM700.24 620.71a1 1 0 0 0 0-1.91 1 1 0 0 0 0 1.91ZM646.31 669.91a1 1 0 0 0 0 1.91 1 1 0 0 0 0-1.91ZM839.45 590.17a17 17 0 0 0-1.71 1.67 9.72 9.72 0 0 0-2.76 2.51 6.26 6.26 0 0 0-.6 1.1h.12a19.19 19.19 0 0 1 2.5.55 13.67 13.67 0 0 1 4 1.84c-1.27-.06-2.93-.37-4.3-.57l-2.42-.37h-.29a8 8 0 0 0 0 2.08 10.47 10.47 0 0 0 .47 1.85 15.54 15.54 0 0 0 .21 2.11l1 .39a38.6 38.6 0 0 1 3.89 1.7 14 14 0 0 1-4.29-.46l-.29-.07c.08.35.17.7.28 1.06s.19.61.3.92a3.23 3.23 0 0 1-.22.59 32.33 32.33 0 0 0-4.47 2.17 7.78 7.78 0 0 0-2.67.9 6.89 6.89 0 0 0-2.73 4.9 10.56 10.56 0 0 0-.1 1.49 25.23 25.23 0 0 0-.13 5.64c1.33.35 4.23 1.26 5.84 2.76-2.47.83-6.26.15-7 0-2.54 2.3-5.88 3.59-8.64 5.6a19.34 19.34 0 0 0-3.3 3.07 12 12 0 0 0-1.21 1l1.34.41s1.45.43 3.27 1.11c.66.24 1.36.51 2.07.81l.06-.06a17.33 17.33 0 0 1 1.54-1.32q-.78.69-1.53 1.41a19.16 19.16 0 0 1 3.41 1.81 18.33 18.33 0 0 1-6.21-.14 32.7 32.7 0 0 1-3.45-.77l-2.3-.71a15.66 15.66 0 0 0-1 4.39 60.53 60.53 0 0 1-2.07 6 15.35 15.35 0 0 1-2.59 3.58l-.26.11a11.25 11.25 0 0 0-5.36 1.17c-2.54.41-5 .94-7 2.92a12.9 12.9 0 0 0-3.42 8 44.8 44.8 0 0 1-1.49 6.95 18.56 18.56 0 0 1-7.74 9.49 2.75 2.75 0 0 0-1.88 1 19.15 19.15 0 0 1-6.53 1.82h32.06l1.77-3.07a5.47 5.47 0 0 1-2-.63 6.58 6.58 0 0 1 2.81-.72l1.73-3a61.9 61.9 0 0 1-9.64-.74 63.23 63.23 0 0 1 9.89-.75h.61l55.71-96.49a4.69 4.69 0 0 0-1.71-6.4l-5.75-3.31-.09.05v-.08l-1.7-1c-2 4.79-4 9.6-6.21 14.32a38.81 38.81 0 0 1-7.82 9.41Zm-56.26 88a19.29 19.29 0 0 0 1.89-2.33 9.46 9.46 0 0 1-1.89 2.29ZM756.48 661l-.77-.51a.81.81 0 0 0-1 0 2.38 2.38 0 0 0-2.32-.16 1.92 1.92 0 0 0-.69 2.5 2.28 2.28 0 0 0 2.46 1.19 4.61 4.61 0 0 0 2.55-1.57 1 1 0 0 0-.23-1.45Zm-3.11 1Zm.18.15-.15-.08c-.09 0-.08-.05 0-.06a1 1 0 0 1 .47.19.65.65 0 0 1-.32-.02ZM762.24 659.93a1 1 0 0 0 0 1.91 1 1 0 0 0 0-1.91ZM756.58 653a1 1 0 0 0-1.3.34.76.76 0 0 0-.09.18.93.93 0 0 0-.33.12 1 1 0 0 0-.35 1.3 1.48 1.48 0 1 0 2.07-1.94ZM799.8 611.75a.93.93 0 0 0-.7.32 2.73 2.73 0 0 1-2.46-2.37c-.1-1.21-2-1.22-1.91 0a4.7 4.7 0 0 0 5.85 4.14 1 1 0 0 0 .42-1.59 1.49 1.49 0 0 0-1.2-.5ZM797.48 616a1 1 0 0 0 0 1.91 1 1 0 0 0 0-1.91ZM803.71 567.31a.77.77 0 0 0 .49.64 2.75 2.75 0 0 0 .21.51 3.33 3.33 0 0 0 2.94 1.83c1.22 0 2.21-1.38 1.26-2.41-.43-.47-1.11-.54-1.56-1a2.47 2.47 0 0 1-.57-1.1.92.92 0 0 0 0-1 .94.94 0 0 0-1.6-.67 3.26 3.26 0 0 0-1.17 3.2ZM815.53 565.87a1 1 0 0 0 0 1.91 1 1 0 0 0 0-1.91ZM826.21 587.23a1.63 1.63 0 0 0-1.82.79 1.6 1.6 0 0 0 .66 2.18 1.91 1.91 0 0 0 2.19-.28 2.27 2.27 0 0 0 .53-2.25 1 1 0 0 0-1.56-.44Zm-.29 1.31Zm-.33.48h.12ZM831.67 586.47a1 1 0 0 0 0-1.91 1 1 0 0 0 0 1.91ZM769.35 615.77a1 1 0 0 0 0 1.91 1 1 0 0 0 0-1.91Z" transform="translate(-296.51 -232.91)"/><path class="b5956b4c-5f43-49e9-86d3-3d372806eec3" d="M801.52 678.94a5.47 5.47 0 0 0 2 .63l.78-1.35a6.58 6.58 0 0 0-2.78.72ZM806.31 673.73a63.23 63.23 0 0 0-9.89.75 61.9 61.9 0 0 0 9.64.74l.86-1.49ZM738.67 603.19a40.92 40.92 0 0 0 7.91 1l1.55.06.85-1.46-2.34-.08a41.26 41.26 0 0 0-7.97.48ZM747.64 597.44a41.56 41.56 0 0 0-4.72 0 16.12 16.12 0 0 0 3.76 1.18c-.25.45-.48.9-.69 1.37.24-.46.49-.91.73-1.36l.78.14c1.52.26 2.73.34 2.73.34h.89l.83-1.44-1.62-.09ZM699.6 676.43a30 30 0 0 0 6.5.65l.86-1.49h-.26a32.82 32.82 0 0 0-7.1.84ZM627 642.52a20.42 20.42 0 0 0-5.57.75 18.1 18.1 0 0 0 4.85.72l.85-1.47ZM631.85 634.41l.83-1.44a12.63 12.63 0 0 0-4.21.74 10.68 10.68 0 0 0 3.38.7ZM644.19 603.14a13.39 13.39 0 0 0 4.45.74h.84l.86-1.49h-1.7a13.22 13.22 0 0 0-4.45.75Z" transform="translate(-296.51 -232.91)"/><path class="a50556ec-6782-48c2-8b50-4c4326dcb664" d="M819.7 672.89a17.12 17.12 0 0 1 6.08-13.72 1.33 1.33 0 0 0 .5-1.26c-.68 0-1.37.05-2 .12a2.94 2.94 0 0 1-.42 0l-7.23 12.51v.56a.73.73 0 0 0-.18-.17l-5.91 10.24a6.77 6.77 0 0 0 1.93 1.47h9.21c.43-3.06-1.86-6.86-1.98-9.75Zm-4.45 4.88a2 2 0 0 0-.22-.27c0-.08.05-.15.07-.22ZM866 659.22a24.84 24.84 0 0 0-10.36 6.17 36.1 36.1 0 0 1 6.37 13.9 11.82 11.82 0 0 0 7.06 2.88 5.54 5.54 0 0 1 1.74.5h3.91c-6.14-5.27-16.27-15.14-8.72-23.45ZM516.47 664.75a23.8 23.8 0 0 0-3.62-1.41q-1.2 5.89-2.38 11.8Z" transform="translate(-296.51 -232.91)"/><path class="f646ddfd-9acc-4966-854c-c834882372ab" d="M870.84 617.37a1.64 1.64 0 0 0 2.16.63 1.61 1.61 0 0 0 .57-2.18l-1.85-2.52a1.53 1.53 0 0 1-1.42.82 1.7 1.7 0 0 1-.44-3.33 1.58 1.58 0 0 0-2.68 1.68ZM862.37 601.37a1.64 1.64 0 0 0 2-1.11l1.72-4.12a9.85 9.85 0 0 0-2.84-1.39l-2 4.66a1.61 1.61 0 0 0 1.12 1.96ZM856.6 614.11c-.8-.43-1.62-.83-2.45-1.21A8.28 8.28 0 0 1 851 615a37.71 37.71 0 0 1 4 1.87c1.8.96 3.41-1.79 1.6-2.76ZM845.38 624.38a1.61 1.61 0 0 0-2-.17l-.65 1.13a1.73 1.73 0 0 0 .44 1.29c.39.43.8.83 1.22 1.22a20 20 0 0 1 2-2.46c-.39-.32-.7-.66-1.01-1.01Z" transform="translate(-296.51 -232.91)"/><path class="fce30ae3-c7f5-4dec-85ca-13ae69a24aed" d="M847 640.53a1.79 1.79 0 0 1 2-1.48 1.45 1.45 0 0 0-.46-1.19l-2.6-2.61a14.16 14.16 0 0 1-2.3 2.2l2.65 2.66a1.56 1.56 0 0 0 .71.42ZM848.18 651.91a1.58 1.58 0 0 1-1.58 1.59 14.9 14.9 0 0 0-1.1 2.72c1 .58 1.92 1.21 2.83 1.88a11.71 11.71 0 0 1 1.49-3.84 1.59 1.59 0 0 0-1.64-2.35ZM862.15 649a22.83 22.83 0 0 0 1.74 3.75c.33-.11.67-.22 1-.31.73-.19 1.47-.35 2.21-.48a18 18 0 0 1-1.88-3.81c-.67-1.91-3.75-1.08-3.07.85ZM880.58 636.1a1.78 1.78 0 0 0 .18-.55ZM873.07 635.87l3.94.78a14.9 14.9 0 0 1 .73-2.7 2 2 0 0 1 .19-.36l-4-.79c-2.01-.39-2.87 2.68-.86 3.07ZM885 652.4l-1.06-5.73a1.35 1.35 0 0 0-.39-.77 1.52 1.52 0 0 1-1.42.83 1.57 1.57 0 0 1-1.06-.37 1.63 1.63 0 0 0-.2 1.15c.35 1.87.69 3.73 1 5.6.81.28 1.6.61 2.39 1a1.6 1.6 0 0 0 .74-1.71ZM509.19 651.77a17 17 0 0 0-1.56 3.85 28.42 28.42 0 0 1 3.2.32 15 15 0 0 1 1.11-2.57c1-1.79-1.75-3.37-2.75-1.6ZM509.56 646.32c1.93.69 2.77-2.39.85-3.07a23.19 23.19 0 0 0-2.75-.8c-.36-.09-.72-.16-1.08-.23a8.4 8.4 0 0 1-1.68 2.91c.26 0 .53.07.78.12a25.91 25.91 0 0 1 3.88 1.07ZM519.82 632.8a1.61 1.61 0 0 0-2.18.57c-.55 1.29-1.1 2.57-1.66 3.85a26.19 26.19 0 0 0 .95 3.08 9.57 9.57 0 0 0 .8-1.56 1.79 1.79 0 0 1 1.58-1.24l1.08-2.52a1.65 1.65 0 0 0-.57-2.18ZM520.59 646.6c.32.39.64.78 1 1.15v-.14a2.16 2.16 0 0 0 .14-1 1.42 1.42 0 0 1 .06-.42 1.72 1.72 0 0 0-1.2.41ZM524.12 650.15l.54.41.37-.64c-.16-.18-.34-.34-.49-.53a5.08 5.08 0 0 1-.42.76ZM525.79 643.35a4.77 4.77 0 0 1 2.67-1.36 1.41 1.41 0 0 0 .88-.63 7.16 7.16 0 0 1-2.64-1.26 8.09 8.09 0 0 1-.76-.67 8 8 0 0 0-2.4 1.67 1.59 1.59 0 0 0 2.25 2.25Z" transform="translate(-296.51 -232.91)"/><path class="ba2dfc14-8b3a-44f4-b7a2-b6e34a63b56c" d="M953.73 684.15a3.35 3.35 0 0 0-2.82-1.51H903a32.58 32.58 0 0 0-5.62-17.46v-.1a9.75 9.75 0 0 1 2.18-2l.75-.57a9.64 9.64 0 0 0 3.84-5.43c.66-3.16-.92-6.44-4.33-9-.57-.43-1.16-.83-1.75-1.23a11.62 11.62 0 0 1-3.24-2.76c-1.17-1.77-1-4.53-.68-6.46l.21-1.4a22 22 0 0 0 .2-8.21 12.1 12.1 0 0 0-2-4.46l.84-.86c.65-.65 1.32-1.33 2-2.06 2.73-3.06 4-6.16 3.85-9.21a9.24 9.24 0 0 0-13.61-7.62 15.63 15.63 0 0 0-3.16 2.42c-.36.33-.72.67-1.11 1a2.81 2.81 0 0 1-2 .87c-.78-.22-1.44-2.41-1.79-3.59a26.29 26.29 0 0 0-5.74-10.78 15.88 15.88 0 0 0-8.23-4.69l4.86-8.41A11.46 11.46 0 0 0 864.3 565l-61.47-35.49a9.1 9.1 0 0 0-12.42 3.33L766 575l-11.62-6.71 31.93-91a4.14 4.14 0 0 0 .59-.21 3.36 3.36 0 0 0 1.7-2L805.14 426a9.78 9.78 0 0 0-6.14-12.32 9.77 9.77 0 0 0-12.35 6.15L770.14 469a3.41 3.41 0 0 0 .49 3.09l-29.69 88.47-13.77-7.95 17-79.9a3.38 3.38 0 0 0 2-2.4L757 419.57a9.75 9.75 0 0 0-19.08-4.06l-10.79 50.74a3.38 3.38 0 0 0 .47 2.55 3.09 3.09 0 0 0 .36.45L712 543.88l-13.34-7.71a7.9 7.9 0 0 0-10.78 2.89l-31.46 54.49-66.92-38.62a8.37 8.37 0 0 0-11.4 3.07l-45 77.93a4.25 4.25 0 0 1-2.94-.27c-1.34-1-2.09-3-2.81-5.23-.87-2.63-1.84-5.6-4.25-7.81-3.88-3.53-10.46-3.5-15 .08-3.49 2.77-5.7 7.3-6.23 12.76 0 .38-.07.77-.1 1.16-.16 2-.32 4.16-1.35 5s-3.19.51-5.3.1-6.81-1.31-10 1.78c-3.36 3.27-2.46 8.57.1 11.91a25.07 25.07 0 0 0 4.17 4l.93.79a29.25 29.25 0 0 0-6.22 5.16 29.58 29.58 0 0 0-7.28 14.55c-.17.91-.29 1.82-.37 2.74H419a3.39 3.39 0 0 0-3.13 4.69l13.92 33.27a12.48 12.48 0 0 0 11.54 7.68h6.22l2.45 8.16c1.86 6.22 6.43 10.24 11.66 10.24h446.6c5.23 0 9.81-4 11.66-10.23l2.45-8.17h6.23a12.5 12.5 0 0 0 11.54-7.68L954 687.33a3.37 3.37 0 0 0-.27-3.18Zm-449.68-21.66a21.93 21.93 0 0 1 3-.11 22.47 22.47 0 0 1 5.77 1 23.8 23.8 0 0 1 3.62 1.41l-6 10.39-4.33 7.5h-22.8c.06-.5.13-1 .22-1.49a22.87 22.87 0 0 1 5.62-11.23 23.54 23.54 0 0 1 14.9-7.47Zm295.4-127.13 5.15 3 48.82 28.19 1.7 1 5.75 3.31a4.69 4.69 0 0 1 1.71 6.4l-55.71 96.49-.86 1.49-1.73 3-.78 1.35-1.77 3.07h-90l84.54-146.43a2.32 2.32 0 0 1 3.18-.87Zm44 102.2.14-.11a14.16 14.16 0 0 0 2.3-2.2 35.64 35.64 0 0 0 2.17-2.94l.49-.71c1.07-1.55 2.27-3.07 3.73-3.67 1-.42 2.23-.13 2.49.38s0 2-.37 3.36c-.57 2.19-1.36 5.2.48 7.86a7 7 0 0 0 8.68 2 10.76 10.76 0 0 0 5.11-5.58c.48-1 .83-2.05 1.18-3 .29-.83.57-1.62.9-2.36a12.28 12.28 0 0 1 8.46-7.14 9.3 9.3 0 0 1 1-.15c4-.31 8 2.41 8.78 6a17.27 17.27 0 0 1-.27 6.14c-.07.49-.15 1-.22 1.48-.4 2.83-.67 7 1.56 10.35a15.92 15.92 0 0 0 4.79 4.33c.51.35 1 .69 1.51 1.06 1.5 1.13 2.39 2.47 2.2 3.35-.11.58-.7 1.27-1.79 2.12l-.67.51a19.63 19.63 0 0 0-2.47 2.13c-.6-.61-1.22-1.19-1.87-1.76-.48-.43-1-.85-1.5-1.25a30.24 30.24 0 0 0-6.05-3.63c-.79-.35-1.58-.68-2.39-1a28.63 28.63 0 0 0-5.29-1.32c2-3 2.44-7.27 3-11.25a6.88 6.88 0 0 0 4.57-1.95c1.57-1.52-.82-3.92-2.39-2.4a3.35 3.35 0 0 1-1.52.85c.08-.32.16-.63.25-.94l.18-.55q.12-.36.24-.69c.75-1.9-2-2.79-3.07-1.27a2 2 0 0 0-.19.36 14.9 14.9 0 0 0-.73 2.7c-.32 1.72-.5 3.67-.76 5.59a2.61 2.61 0 0 1-.28-.17s-.11-.1-.15-.14l-.22-.23v-.08c0-.1-.11-.19-.16-.28v-.06a.66.66 0 0 0 0-.13 1.73 1.73 0 0 0-2.09-1.18A1.7 1.7 0 0 0 872 642a5.56 5.56 0 0 0 3.63 3.62c-.62 2.54-1.69 4.72-3.79 5.85a29.32 29.32 0 0 0-4.74.49c-.74.13-1.48.29-2.21.48-.34.09-.68.2-1 .31a31.67 31.67 0 0 0-12.81 7.59c-.36-.33-.73-.66-1.11-1-.54-.44-1.08-.86-1.64-1.27-.91-.67-1.86-1.3-2.83-1.88a35.66 35.66 0 0 0-6.21-3c2-1.89 4.36-3.29 6.44-4.93a1.66 1.66 0 0 0 .57.26 15.19 15.19 0 0 0 6.64.21c2.15-.39 1.24-3.65-.9-3.27a10.73 10.73 0 0 1-3.53.05 9.34 9.34 0 0 0 1.86-4.93 1.42 1.42 0 0 0-1.37-1.61 1.79 1.79 0 0 0-2 1.48s0 .08 0 .13c-.29 3.44-3.48 5.5-6.09 7.24-.47.32-.93.63-1.37 1a1.82 1.82 0 0 1-.59-2c.65-2.09-2.62-3-3.27-.9a5.18 5.18 0 0 0 1.19 5.08c-.39.37-.76.77-1.12 1.18a36 36 0 0 0-7.94-1.06l7.12-12.34a8.8 8.8 0 0 0 8.57-1.22Zm-31.12 45.08a6.77 6.77 0 0 1-1.93-1.47l5.91-10.24.22-.39 7.28-12.54a2.94 2.94 0 0 0 .42 0c.68-.07 1.37-.1 2-.12a29.66 29.66 0 0 1 18 5.62c.46.34.92.68 1.36 1.05a29.25 29.25 0 0 1 8.18 11.2c.1.23.19.45.28.68a29 29 0 0 1 1.66 6.18h-43.33Zm62.34 0h-3.91a5.54 5.54 0 0 0-1.74-.5 11.82 11.82 0 0 1-7.06-2.88 36.1 36.1 0 0 0-6.37-13.9 24.84 24.84 0 0 1 10.41-6.17l.64-.19a22 22 0 0 1 10.31-.29 23 23 0 0 1 9.26 4.35 25.89 25.89 0 0 1 10 19.58h-21.49Zm-2.52-76.51c.71 2.37 1.9 6.34 5.68 7.41 2.25.63 4.77-.06 7-1.94.47-.39.92-.8 1.37-1.21l.24-.22a9.73 9.73 0 0 1 1.77-1.38 3.59 3.59 0 0 1 5.29 3c.11 1.86-1.26 3.81-2.42 5.12-.57.63-1.17 1.23-1.77 1.84l-1 1a15.24 15.24 0 0 0-2.83-1.33 14 14 0 0 0-5.73-.76 17.43 17.43 0 0 0-13.49 9.34 14.27 14.27 0 0 1-2.28-1.14c-1.86-1.15-3.56 1.78-1.71 2.93a17.64 17.64 0 0 0 2.64 1.33l-.34.94a25.12 25.12 0 0 1-1 2.55 5.68 5.68 0 0 1-2.35 2.82 1.58 1.58 0 0 1-1.67-.13c-.36-.52 0-1.89.34-3.22.56-2.13 1.26-4.79-.07-7.36a6.17 6.17 0 0 0-1.57-2c.82-1.18 1.7-2.42 2.58-3.7a11.32 11.32 0 0 0 4.49-.17c2.12-.52 1.22-3.78-.9-3.27a7.24 7.24 0 0 1-1.53.22c2.26-3.84 3.78-8 2.44-12-.67-2.06-4-1.18-3.26.9a8.38 8.38 0 0 1-.12 5c-.05 0-.08 0 0 0a2.73 2.73 0 0 1-.25-.23l-.2-.21a2.47 2.47 0 0 0-.16-.26l-.06-.08a.4.4 0 0 0 0-.13 1.74 1.74 0 0 0-2.09-1.19 1.72 1.72 0 0 0-1.18 2.09 5.64 5.64 0 0 0 2.71 3.16 72.56 72.56 0 0 1-5.48 8.37 8.55 8.55 0 0 0-5 .39 11.43 11.43 0 0 0-3.82 2.69 20 20 0 0 0-2 2.46l-.39.53-.51.75a15.51 15.51 0 0 1-3.26 3.87 3.91 3.91 0 0 1-2.36.76l4.86-8.42.65-1.13 1.39-2.4a9.57 9.57 0 0 0 3.81-.5 1.75 1.75 0 0 0 1.18-2.09 1.71 1.71 0 0 0-2.09-1.18c-.28.1-.58.18-.87.26l1.62-2.81a8.16 8.16 0 0 0 2.35-.4c.08 0 .16-.07.25-.1a8.53 8.53 0 0 0 5.19-5.53 13.35 13.35 0 0 0-.3-7l4.67-8.09a7.56 7.56 0 0 1 2.68.33 9.85 9.85 0 0 1 2.84 1.39 11.27 11.27 0 0 1 1.71 1.47 20.77 20.77 0 0 1 4.36 8.66Zm-75.36-186a3 3 0 0 1 1.88 3.77l-15.43 46-3.76-1.26-1.89-.63 15.43-46a3 3 0 0 1 1.5-1.72 2.82 2.82 0 0 1 .94-.27 2.88 2.88 0 0 1 1.38.09Zm-20 54.72 2.86 1-31.28 89.09-1.5-.87ZM748 414.63a3 3 0 0 1 2.29 3.53l-10.09 47.42-4.9-1-.92-.2 10.09-47.42a3 3 0 0 1 1.33-1.96 3.06 3.06 0 0 1 .81-.35 2.88 2.88 0 0 1 1.39-.02Zm-13.62 56.64 3 .64L721 549.05l-2.78-1.61Zm14.73 101.85 12.73 7.35-9.84 17.2-.83 1.44-2.17 3.71-.85 1.46L707 675.59l-.86 1.49-3.2 5.56h-90l80.94-140.19a1.11 1.11 0 0 1 1.52-.41l2.29 1.32ZM639.35 591.5l13 7.48-2 3.41-.86 1.49L632.68 633l-.83 1.44-4.68 8.11-.85 1.47L604 682.64h-90l70-121.26a1.63 1.63 0 0 1 1-.75 1.67 1.67 0 0 1 1.22.16l1.78 1Zm-138 55.86A7.62 7.62 0 0 0 504 646a7.79 7.79 0 0 0 .93-.88 8.4 8.4 0 0 0 1.68-2.91 20.54 20.54 0 0 0 .86-5.17l.09-1.07c.22-2.26 1.05-6.43 4.12-8.86 2.07-1.65 5.64-2.17 7.65-.34a5.56 5.56 0 0 1 .52.56 16 16 0 0 1 2.2 4.92c.85 2.57 1.86 5.2 3.92 7.17a8.09 8.09 0 0 0 .76.67 7.16 7.16 0 0 0 2.64 1.26c.18 0 .37.1.55.13l-4.92 8.44-.37.64-.54-.41a5.08 5.08 0 0 0 .42-.76 6.63 6.63 0 0 0 .61-2.78 1.69 1.69 0 0 0-3.33-.42 1.42 1.42 0 0 0-.06.42 2.16 2.16 0 0 1-.14 1v.14c-.34-.37-.66-.76-1-1.15a23.38 23.38 0 0 1-2-2.9 13.9 13.9 0 0 0 2.41-4.06 1.71 1.71 0 0 0-1.18-2.09 1.73 1.73 0 0 0-.5 0 1.79 1.79 0 0 0-1.58 1.24 9.57 9.57 0 0 1-.8 1.56 26.19 26.19 0 0 1-.95-3.08c-.13-.54-.25-1.08-.34-1.64-.37-2.14-3.63-1.23-3.27.9a26.49 26.49 0 0 0 2.84 8.21 5.44 5.44 0 0 1-1.2-.13 1.73 1.73 0 0 0-2.09 1.18 1.71 1.71 0 0 0 1.19 2.08 8.74 8.74 0 0 0 4.1 0 26.56 26.56 0 0 0 2.34 2.75 8.75 8.75 0 0 1-1.33.21 1.73 1.73 0 0 0-1.69 1.69 1.71 1.71 0 0 0 1.69 1.7 12.66 12.66 0 0 0 4.19-1l.55.4-3.1 5.36a30.24 30.24 0 0 0-9-2.93 28.42 28.42 0 0 0-3.2-.32h-.32a29.6 29.6 0 0 0-9.63 1.3c-.63.19-1.25.39-1.87.62a36.66 36.66 0 0 0-2.77-2.47 21 21 0 0 1-3.29-3.12c-1.05-1.37-1.55-3.55-.65-4.42a3.6 3.6 0 0 1 2.63-.6 17.23 17.23 0 0 1 2.36.32 15.73 15.73 0 0 0 7.18 0Zm412.07 87.14c-1 3.24-3 5.41-5.17 5.41h-446.6c-2.13 0-4.2-2.17-5.17-5.41l-1.86-6.22h460.67Zm20.45-16.5a5.71 5.71 0 0 1-5.28 3.52H441.32A5.71 5.71 0 0 1 436 718l-4.29-10.26h506.46Zm6.19-14.78h-15.35v-5.55h8.72v-4.52h-22v4.52h8.73v5.55h-29.38v-5.55h8.73v-4.52h-22v4.52h8.73v5.55h-29.39v-5.55h8.73v-4.52h-22v4.52h8.73v5.55h-29.38v-5.55h8.72v-4.52h-22v4.52h8.73v5.55H789v-5.55h8.72v-4.52h-22v4.52h8.72v5.55h-29.37v-5.55h8.72v-4.52h-22v4.52h8.72v5.55h-29.37v-5.55h8.72v-4.52h-22v4.52h8.72v5.55h-29.37v-5.55h8.72v-4.52H674v4.52h8.72v5.55h-29.44v-5.55H662v-4.52h-22v4.52h8.72v5.55h-29.37v-5.55h8.73v-4.52h-22v4.52h8.72v5.55h-29.38v-5.55h8.73v-4.52h-22v4.52h8.73v5.55h-29.39v-5.55h8.73v-4.52h-22v4.52H547v5.55h-29.43v-5.55h8.72v-4.52h-22v4.52h8.73v5.55h-29.38v-5.55h8.72v-4.52h-22v4.52h8.73v5.55h-29.38v-5.55h8.72v-4.52h-22v4.52h8.72v5.56h-15.3l-5.77-13.8h521.74l-1.08 2.57Z" transform="translate(-296.51 -232.91)"/><path class="ba2dfc14-8b3a-44f4-b7a2-b6e34a63b56c" d="M497.85 652.85a1.7 1.7 0 0 0 0-3.39 1.7 1.7 0 0 0 0 3.39ZM493 674.18c-.93 2 2 3.68 2.93 1.71a10.94 10.94 0 0 1 7.66-6.14c2.13-.47 1.23-3.73-.9-3.26a14.11 14.11 0 0 0-9.69 7.69ZM510 669.79a1.7 1.7 0 0 0 0-3.39 1.7 1.7 0 0 0 0 3.39ZM504.32 654.45a1.7 1.7 0 0 0 0-3.39 1.7 1.7 0 0 0 0 3.39ZM832.34 662.17a1.69 1.69 0 0 0 0 3.38 1.69 1.69 0 0 0 0-3.38ZM839.43 665.55c-1.92-1-3.63 1.89-1.71 2.93a8.87 8.87 0 0 1 4.46 5.62 1.7 1.7 0 0 0 3.27-.9 12.27 12.27 0 0 0-6.02-7.65ZM880.16 663.15a1.61 1.61 0 0 0-.39 0 1.7 1.7 0 1 0 1.34.68 1.45 1.45 0 0 0-.95-.68ZM887 668c-1.49-1.6-3.88.8-2.39 2.39a8.76 8.76 0 0 1 2.39 5.71c.07 2.17 3.46 2.18 3.39 0a12.4 12.4 0 0 0-3.2-8ZM883.55 645.9a1.69 1.69 0 0 0-1.42-2.56 1.72 1.72 0 0 0-1.06 3 1.57 1.57 0 0 0 1.06.37 1.52 1.52 0 0 0 1.42-.81ZM870.36 649.27a1.7 1.7 0 0 0 0-3.39 1.7 1.7 0 0 0 0 3.39ZM875.92 631.58a1.7 1.7 0 0 0 0-3.39 1.7 1.7 0 0 0 0 3.39ZM848.18 651.91a1.61 1.61 0 0 0-1.63-1.79 1.7 1.7 0 0 0 0 3.39h.05a1.58 1.58 0 0 0 1.58-1.6ZM843 643.81a1.69 1.69 0 0 0 0-3.38 1.69 1.69 0 0 0 0 3.38ZM860.43 651.2a1.7 1.7 0 0 0 0-3.39 1.7 1.7 0 0 0 0 3.39ZM870.32 614.07a1.53 1.53 0 0 0 1.42-.82 1.7 1.7 0 0 0-1.42-2.57 2 2 0 0 0-.44.06 1.7 1.7 0 0 0 .44 3.33ZM886.55 616.43a1.7 1.7 0 0 0 0-3.39 1.7 1.7 0 0 0 0 3.39ZM852.2 616.52a1.7 1.7 0 0 0 0 3.39 1.7 1.7 0 0 0 0-3.39ZM586.69 570a1.69 1.69 0 0 0 0 3.38 1.69 1.69 0 0 0 0-3.38ZM582.46 575.67a1.7 1.7 0 0 0 0 3.39 1.7 1.7 0 0 0 0-3.39ZM591.77 577.93a1.7 1.7 0 0 0 0-3.39 1.7 1.7 0 0 0 0 3.39ZM696 674.78a1.7 1.7 0 0 0 0-3.39 1.7 1.7 0 0 0 0 3.39ZM702.12 665.16a1.61 1.61 0 0 0-1.64-1.68 1.69 1.69 0 0 0-.1 3.38h.1a1.61 1.61 0 0 0 1.64-1.7ZM690.32 664.05a1.7 1.7 0 0 0 0 3.39 1.7 1.7 0 0 0 0-3.39ZM841.09 579.06a1.7 1.7 0 0 0 0-3.39 1.7 1.7 0 0 0 0 3.39ZM835.45 574.83a1.7 1.7 0 0 0 0-3.39 1.7 1.7 0 0 0 0 3.39ZM835.45 583.3a1.7 1.7 0 0 0 0-3.39 1.7 1.7 0 0 0 0 3.39ZM563.47 618.26A164.83 164.83 0 0 0 548.08 638a174.52 174.52 0 0 0-12.46 22.12s7.37-9 15.06-20.6 12.79-21.26 12.79-21.26ZM629.22 616.07c.35-1.14.49-1.81.49-1.81l-2.67 3.6-6.25 8.52c-2.38 3.3-4.48 6.28-6 8.44s-2.43 3.53-2.43 3.53a32.71 32.71 0 0 0 3.6-2.58 40.52 40.52 0 0 0 7.34-7.71c.45-.63.87-1.26 1.27-1.89a41.65 41.65 0 0 0 3.79-7.59c.37-.97.64-1.82.86-2.51ZM590.81 607.62a5.39 5.39 0 0 0 3.18.82 5.33 5.33 0 0 0 2.44-.77 4.71 4.71 0 0 0 1.22-1.12 2.74 2.74 0 0 0 .31-.5 5 5 0 0 1-.61.13 6 6 0 0 1-1.47.08 7.16 7.16 0 0 1-3.49-1.2 4.42 4.42 0 0 1-2.14-2.68 3.79 3.79 0 0 1-.08-1.47 4.22 4.22 0 0 1 .14-.63 2.29 2.29 0 0 0-.53.37 3.62 3.62 0 0 0-1 1.49 4.29 4.29 0 0 0-.06 2.79 5 5 0 0 0 2.09 2.69ZM602.85 621.62a13.17 13.17 0 0 1-4.59 1.19 12.73 12.73 0 0 1-4.75-.51 10.82 10.82 0 0 1-1.64-.66l-.63-.32a6.55 6.55 0 0 0 .28.64 6.48 6.48 0 0 0 1.11 1.56 7.26 7.26 0 0 0 11.31-.87 6.31 6.31 0 0 0 .82-1.64 6.54 6.54 0 0 0 .16-.64l-.57.39a10.84 10.84 0 0 1-1.5.86ZM569.71 663.39a11.43 11.43 0 0 1-3.08-1.81 4.74 4.74 0 0 1-.9-1.06c-.2-.31-.3-.51-.3-.51a2.56 2.56 0 0 0-.17.55 4 4 0 0 0 0 1.61 5.63 5.63 0 0 0 3.3 4 7.41 7.41 0 0 0 4.78.28 8 8 0 0 0 1.76-.66s-.74-.39-1.8-.85ZM719.16 566.56c4.39 2.41 8.38 4.41 11.29 5.83s4.73 2.22 4.73 2.22-1.45-1.46-4-3.54a71.8 71.8 0 0 0-10.68-7.21 74.26 74.26 0 0 0-11.93-5.18c-3.2-1.06-5.27-1.52-5.27-1.52s1.78 1.16 4.65 2.9 6.82 4.1 11.21 6.5ZM662 627.86c5.52-9.12 9.9-17.57 12.88-23.74s4.59-10 4.59-10-2.32 3.58-6 9.43-8.71 13.94-14.2 23-10.41 17.39-14 23.45-5.76 9.89-5.76 9.89 2.83-3.44 7.08-9.15S656.46 637 662 627.86ZM701.71 598.25a7.43 7.43 0 0 0 5.5 2.41 7.31 7.31 0 0 0 5.35-2.44 6.29 6.29 0 0 0 1-1.43c.17-.37.24-.57.24-.57l-.6.26a11.86 11.86 0 0 1-1.55.56 16.25 16.25 0 0 1-4.49.61 15.59 15.59 0 0 1-4.54-.61 12.74 12.74 0 0 1-1.57-.59l-.61-.29a4.38 4.38 0 0 0 .26.61 6.57 6.57 0 0 0 1.01 1.48ZM717.83 607.19a3.6 3.6 0 0 1-.36.54 3.55 3.55 0 0 1-1.14 1 4.42 4.42 0 0 1-1.72.52 8 8 0 0 1-2-.15 24.39 24.39 0 0 1-4.2-1.27c-1.24-.47-2.14-.71-2.14-.71a11.64 11.64 0 0 0 1.17 1.86 9.47 9.47 0 0 0 1.73 1.77 6.77 6.77 0 0 0 3 1.32 5.34 5.34 0 0 0 3.41-.48 4.53 4.53 0 0 0 2-2 3.55 3.55 0 0 0 .39-1.77 2.44 2.44 0 0 0-.14-.63ZM687.07 634.67a5.15 5.15 0 0 1-1.31 1.9 6.33 6.33 0 0 1-1.94 1.18 8.38 8.38 0 0 1-2.48.52 20.13 20.13 0 0 1-2.8 0 20.49 20.49 0 0 1-2.46-.23 1.7 1.7 0 0 1-1.29-1 1.58 1.58 0 0 1-.09-.6 1.76 1.76 0 0 1 0-.24 1.61 1.61 0 0 0-.41.85 2.19 2.19 0 0 0 .11 1.1 3 3 0 0 0 .84 1.18 8.88 8.88 0 0 0 2.71 1.43 8.77 8.77 0 0 0 3.68.5 6.51 6.51 0 0 0 3.63-1.45 5.73 5.73 0 0 0 1.81-2.56 4.1 4.1 0 0 0 0-2.77ZM762.85 614.3a294 294 0 0 0-15.9 29s9-12.25 18.58-27.62 16.16-28 16.16-28a280.19 280.19 0 0 0-18.84 26.62ZM799.47 589.66a9.19 9.19 0 0 0 5 .36 11.75 11.75 0 0 0 1.91-.51 15.56 15.56 0 0 0-1.86-1c-1.14-.53-2.6-1.12-4-1.66A14.91 14.91 0 0 1 797 585a6.28 6.28 0 0 1-1.07-1 5.88 5.88 0 0 1-.38-.5 3 3 0 0 0-.08.6 4.32 4.32 0 0 0 .22 1.68 6.44 6.44 0 0 0 3.78 3.88ZM808.31 601.89a3.92 3.92 0 0 0 .39-.3 8.48 8.48 0 0 1-1.7-.65 13.48 13.48 0 0 1-2.6-1.81 12.4 12.4 0 0 1-2.26-2.26 8.51 8.51 0 0 1-.92-1.6 3 3 0 0 0-.23.46 4.52 4.52 0 0 0-.34 1.39 5.19 5.19 0 0 0 1.86 4.36 5.12 5.12 0 0 0 4.55 1 4.24 4.24 0 0 0 1.25-.59ZM780.76 643.21a21.51 21.51 0 0 1-2.79-3c-.36-.5-.65-.95-.84-1.28l-.31-.54a3.93 3.93 0 0 0-.16.57 6.24 6.24 0 0 0-.15 1.62 6.95 6.95 0 0 0 7.19 6.75 6.12 6.12 0 0 0 1.54-.25 5.53 5.53 0 0 0 .53-.19 16.27 16.27 0 0 1-1.83-1.05 23.52 23.52 0 0 1-3.18-2.63Z" transform="translate(-296.51 -232.91)"/><path class="b1178f5e-ea3f-430f-b35a-13a7028594af" d="M586 404.28a77.33 77.33 0 0 0 9.6-8.28c5-5.1 10.46-7.68 24-11.47s18.08-4.23 17.78-2.9-13.49 11.48-26.15 15.8c0 0 12.19-4.65 17-1.16a65.87 65.87 0 0 1-26.68 7c-14.61.35-15.55 1.01-15.55 1.01Z" transform="translate(-296.51 -232.91)"/><path class="eec853cd-1389-4757-9a30-f8526b1e7ea0" d="M595.6 396a7.56 7.56 0 0 1-3 5.54 11 11 0 0 1 8.94 1.68s-6.3-3-14.68 13.2-14.17 31.78-31.57 37-39-8.58-42.38-44.11 26.75-40.51 44-34.64S577.4 401.88 595.6 396Z" transform="translate(-296.51 -232.91)"/><path class="eaf82d03-b9db-4a1f-8ba4-bacdf959bda1" d="M556.87 374.68c-17.21-5.87-47.35-.89-44 34.64a78.22 78.22 0 0 0 3.17 16.1c6.49-23.95 26.67-19.89 52.19-18.11S595.6 396 595.6 396c-18.2 5.88-21.53-15.46-38.73-21.32Z" transform="translate(-296.51 -232.91)"/><path class="eaf82d03-b9db-4a1f-8ba4-bacdf959bda1" d="M519.18 432a.72.72 0 0 1 .23-.59.74.74 0 0 1 1.05 0c7.53 8.12 15.71 11.72 24.32 10.7 8.06-1 20.44-7.36 28.8-22.27 9-16.05 19.86-16 20.31-16a.75.75 0 1 1 0 1.49c-.1 0-10.45 0-19 15.22-5.39 9.62-16.47 21.42-29.92 23-9.1 1.08-17.71-2.67-25.58-11.16a.73.73 0 0 1-.21-.39Z" transform="translate(-296.51 -232.91)"/><path class="eaf82d03-b9db-4a1f-8ba4-bacdf959bda1" d="M517.75 425.31a.74.74 0 0 1 1.13-.68c19.2 12.05 38-3.09 50.5-13.1l.3-.23c12.34-9.92 20.36-8.82 20.69-8.77a.74.74 0 0 1-.22 1.47c-.13 0-7.81-1-19.54 8.45l-.29.24c-12 9.65-32.14 25.81-52.23 13.2a.76.76 0 0 1-.34-.58Z" transform="translate(-296.51 -232.91)"/><path class="eec853cd-1389-4757-9a30-f8526b1e7ea0" d="M513.45 418.12a.79.79 0 0 1 0-.3c10.4-29.23 32.46-22.27 47.06-17.67l2.46.77a44 44 0 0 0 26.8-.66.74.74 0 1 1 .56 1.37 44.77 44.77 0 0 1-27.8.71l-2.46-.77c-14.9-4.7-35.3-11.13-45.22 16.74a.75.75 0 0 1-1.45-.19Z" transform="translate(-296.51 -232.91)"/><path class="eec853cd-1389-4757-9a30-f8526b1e7ea0" d="M514.29 403.17a.72.72 0 0 1 0-.32c4.62-12.2 11.32-19.64 19.91-22.11 12.89-3.7 26.58 4.69 33.59 10 14 10.64 21.69 7 21.77 7a.74.74 0 0 1 .67 1.33c-.34.17-8.51 4.14-23.34-7.14-6.79-5.16-20-13.29-32.28-9.77-8.12 2.33-14.49 9.47-18.93 21.21a.74.74 0 0 1-1.43-.21Z" transform="translate(-296.51 -232.91)"/><path class="e4f7513e-04fb-4236-9897-4262d8dc5a8b" d="M511.29 408.42s.8-8.26 5.74-4.57 10.17 26 9.39 31.71-4.44 3.63-7.2.49-9.52-19.05-7.93-27.63Z" transform="translate(-296.51 -232.91)"/><path class="e8ed356e-268b-45ce-a65d-816cd03e58d3" d="M513.1 412.34s.56-5.72 4-3.17 7 18 6.5 22-3.07 2.51-5 .34-6.6-13.24-5.5-19.17Z" transform="translate(-296.51 -232.91)"/><path class="ac6250c8-4bad-48e3-b690-10d181e88a8d" d="M595.6 396a7.56 7.56 0 0 1-3 5.54 11 11 0 0 1 8.94 1.68s-6.3-3-14.68 13.2-14.17 31.78-31.57 37-39-8.58-42.38-44.11 26.75-40.51 44-34.64S577.4 401.88 595.6 396Z" transform="translate(-296.51 -232.91)"/><path class="b1178f5e-ea3f-430f-b35a-13a7028594af" d="M634 402.74a77.06 77.06 0 0 0 5.31-11.47c2.49-6.72 6.37-11.31 17.15-20.34s14.74-11.3 15-10-7.56 16-17.32 25.17c0 0 9.19-9.26 15-8.05a66 66 0 0 1-21.45 17.32c-13.18 6.39-13.69 7.37-13.69 7.37Z" transform="translate(-296.51 -232.91)"/><path class="eec853cd-1389-4757-9a30-f8526b1e7ea0" d="M639.27 391.27a7.57 7.57 0 0 1-.45 6.28 11 11 0 0 1 8.84-2.15s-7-.09-7.95 18.07.18 34.8-13.53 46.72-39.06 8.23-56.78-22.75 7.69-47.93 25.79-49.67 29.91 16.33 44.08 3.5Z" transform="translate(-296.51 -232.91)"/><path class="eaf82d03-b9db-4a1f-8ba4-bacdf959bda1" d="M595.19 387.77c-18.1 1.74-43.52 18.7-25.79 49.67a78.31 78.31 0 0 0 9.51 13.37C575 426.31 595 421.7 619 412.82s20.25-21.55 20.25-21.55c-14.15 12.83-25.97-5.27-44.06-3.5Z" transform="translate(-296.51 -232.91)"/><path class="eaf82d03-b9db-4a1f-8ba4-bacdf959bda1" d="M584.43 455.49a.75.75 0 0 1 0-.64.74.74 0 0 1 1-.4c10.2 4.3 19.14 4.22 26.56-.26 7-4.19 15.6-15.12 17.08-32.15 1.6-18.33 11.51-22.75 11.93-22.93a.75.75 0 0 1 .59 1.37c-.1 0-9.53 4.31-11 21.69-1 11-6.19 26.3-17.79 33.29-7.85 4.74-17.24 4.86-27.91.36a.73.73 0 0 1-.46-.33Z" transform="translate(-296.51 -232.91)"/><path class="eaf82d03-b9db-4a1f-8ba4-bacdf959bda1" d="M580.39 450a.76.76 0 0 1-.08-.45.74.74 0 0 1 .83-.64c22.46 3.08 33.39-18.47 40.63-32.73l.17-.33c7.16-14.12 14.93-16.42 15.25-16.51a.74.74 0 1 1 .4 1.43c-.12 0-7.52 2.33-14.32 15.75l-.17.33c-7 13.75-18.66 36.76-42.16 33.54a.78.78 0 0 1-.55-.39Z" transform="translate(-296.51 -232.91)"/><path class="eec853cd-1389-4757-9a30-f8526b1e7ea0" d="M573.51 445.24a1 1 0 0 1-.08-.29c-2.55-30.92 20.42-33.67 35.62-35.49.87-.1 1.73-.2 2.55-.31a44 44 0 0 0 24.15-11.64.74.74 0 0 1 1 0 .75.75 0 0 1 0 1.06 44.8 44.8 0 0 1-25 12.09l-2.57.31c-15.51 1.85-36.75 4.39-34.31 33.88a.75.75 0 0 1-1.4.42Z" transform="translate(-296.51 -232.91)"/><path class="eec853cd-1389-4757-9a30-f8526b1e7ea0" d="M568.12 431.27a.75.75 0 0 1-.09-.3c-.82-13 2.22-22.56 9-28.35 10.22-8.68 26.14-6.67 34.73-4.7 17.14 3.93 22.66-2.53 22.72-2.6a.75.75 0 0 1 1-.11.73.73 0 0 1 .11 1c-.24.3-6 7.28-24.2 3.11-8.32-1.9-23.72-3.87-33.44 4.39-6.44 5.47-9.3 14.6-8.52 27.12a.74.74 0 0 1-1.39.4Z" transform="translate(-296.51 -232.91)"/><path class="e4f7513e-04fb-4236-9897-4262d8dc5a8b" d="M567.55 437.29s-2.67-7.85 3.35-6.53 20 19.5 21.61 25-2.55 5.13-6.35 3.4-16.53-13.41-18.61-21.87Z" transform="translate(-296.51 -232.91)"/><path class="e8ed356e-268b-45ce-a65d-816cd03e58d3" d="M570.81 440.12s-1.84-5.44 2.33-4.53 13.83 13.51 15 17.34-1.77 3.56-4.4 2.37-11.49-9.3-12.93-15.18Z" transform="translate(-296.51 -232.91)"/><path class="ac6250c8-4bad-48e3-b690-10d181e88a8d" d="M639.27 391.27a7.57 7.57 0 0 1-.45 6.28 11 11 0 0 1 8.84-2.15s-7-.09-7.95 18.07.18 34.8-13.53 46.72-39.06 8.23-56.78-22.75 7.69-47.93 25.79-49.67 29.91 16.33 44.08 3.5Z" transform="translate(-296.51 -232.91)"/><path d="M760.78 338.07s-.75.29.52-4-.74-6.55-1.35-9.08 1.66-3.73 3-2.71 1.35 2.33 3.29 2.24 3.07-.54 3.75.67l.68 1.21a5.14 5.14 0 0 1 4.38-2.46c3 0 5.94 2.58 4.86 4.26s-8.62 9.49-9.18 13.09-9.95-3.22-9.95-3.22Z" transform="translate(-296.51 -232.91)" style="fill:#e44244"/><path class="a0d3c3f8-967e-4afd-adf8-e287acaadea3" d="M760.22 337.8a11.79 11.79 0 0 1 .78-3.8 8.61 8.61 0 0 0 .34-3.48 13 13 0 0 0-1-3.34 16.06 16.06 0 0 1-.72-2.08 4.21 4.21 0 0 1-.09-.49 2.64 2.64 0 0 1 1.22-2.71 2.22 2.22 0 0 1 2.46.12 5.8 5.8 0 0 1 1.13 1.16 2 2 0 0 0 1.93 1l1.09-.08c1.31-.13 2.34-.23 3 .93l.4.71a5.4 5.4 0 0 1 4.35-2.14c2.53 0 5.22 1.79 5.44 3.61a1.74 1.74 0 0 1-.28 1.2c-.3.48-1.08 1.39-2.06 2.55-2.49 2.95-6.67 7.88-7.06 10.4a1.45 1.45 0 0 1-.88 1.21c-2.31 1-8.52-3.4-9.58-4.17l-.15-.05a.72.72 0 0 1-.32-.55Zm1.8-7.35a9.26 9.26 0 0 1-.37 3.76 11 11 0 0 0-.72 3.51s1.78 1.28 3.78 2.42c3.43 1.95 4.72 1.92 5.19 1.72a.72.72 0 0 0 .45-.65c.42-2.72 4.51-7.56 7.22-10.76 1-1.13 1.73-2 2-2.47a1.07 1.07 0 0 0 .16-.72c-.16-1.34-2.37-3-4.72-3a4.79 4.79 0 0 0-4.06 2.27.37.37 0 0 1-.32.19.35.35 0 0 1-.31-.18l-.68-1.21c-.41-.72-1-.7-2.3-.58-.34 0-.71.07-1.13.09a2.64 2.64 0 0 1-2.53-1.29 5.24 5.24 0 0 0-1-1 1.51 1.51 0 0 0-1.67-.08 1.94 1.94 0 0 0-.86 2 2.79 2.79 0 0 0 .07.4 15.6 15.6 0 0 0 .69 2 13.39 13.39 0 0 1 1.09 3.58Z" transform="translate(-296.51 -232.91)"/><path d="M717 343.18s.1-5.67 8-8.38 12.74-.08 14.07 3.3 1.46 9.2 9 10.15 9.82-3.74 11.18-7.68 3-2.79 3.86-2.05 1.73.47 3.93 1.21 3.59.36 4.23 4-1.27 25.9-22.37 29.49c-20.9 3.56-33.08-20.41-31.9-30.04Z" transform="translate(-296.51 -232.91)" style="fill:#f3decf"/><path class="a0d3c3f8-967e-4afd-adf8-e287acaadea3" d="M717.1 348.92a.36.36 0 0 1 .07-.26.35.35 0 0 1 .27-.14 37.07 37.07 0 0 0 7.42-1.53c9-2.57 8.88-6.13 8.88-6.16a.36.36 0 0 1 .32-.38.36.36 0 0 1 .39.29 24.43 24.43 0 0 0 2.49 6.73c2.54 4.57 6.1 7.3 10.58 8.09 5.14.91 9.88-.25 13.34-3.25s5.22-7.54 5-12.82a.37.37 0 0 1 .14-.29.34.34 0 0 1 .32-.07c.29.08.57.16.85.26s.72.21 1 .3c1.65.44 2.85.75 3.42 4v.29a31.52 31.52 0 0 1-3.32 15.11A25.65 25.65 0 0 1 749 373.58c-10 1.69-17.25-2.88-21.61-7A37.49 37.49 0 0 1 717.1 349Zm17-6.68c-.75 1.45-2.9 3.69-9 5.45a40.26 40.26 0 0 1-7.15 1.52 36.8 36.8 0 0 0 9.89 16.79c4.24 4 11.33 8.47 21 6.83a25 25 0 0 0 18.9-14.06c3.17-6.45 3.54-13.13 3.22-15-.5-2.83-1.35-3.05-2.89-3.46-.33-.09-.71-.19-1.1-.32l-.34-.11c.07 5.29-1.8 9.85-5.3 12.89s-8.57 4.37-13.94 3.42c-4.64-.82-8.48-3.75-11.09-8.47a25.31 25.31 0 0 1-2.24-5.48Z" transform="translate(-296.51 -232.91)"/><path class="a0d3c3f8-967e-4afd-adf8-e287acaadea3" d="M772 344.6a32.92 32.92 0 0 1-3.79 15.4A25.82 25.82 0 0 1 749 373.8a24.45 24.45 0 0 1-19.87-5.38c-7.89-6.34-12.48-16.68-12.8-23.19a13.1 13.1 0 0 1 0-2.1c0-.53.42-6.15 8.45-8.88s13.3-.18 14.79 3.64c.25.63.45 1.31.66 2 1 3.29 2.05 7 7.9 7.74 7.12.9 9.18-3.29 10.56-7.29.64-1.85 1.43-2.88 2.42-3.13a2.7 2.7 0 0 1 2.38.84 2.55 2.55 0 0 0 1.43.51 16.27 16.27 0 0 1 2.3.58c.36.12.71.21 1 .3 1.85.49 3 .95 3.58 4.2a9.24 9.24 0 0 1 .2.96Zm-54.49.58c.3 6.25 4.74 16.21 12.37 22.34a23.34 23.34 0 0 0 18.94 5.13 24.38 24.38 0 0 0 18.38-13.23 32.15 32.15 0 0 0 3.64-14.77 6.56 6.56 0 0 0-.08-.77c-.47-2.68-1.22-2.88-2.73-3.28-.33-.08-.71-.19-1.11-.32a15.15 15.15 0 0 0-2.15-.54 3.58 3.58 0 0 1-2-.79c-.53-.48-1-.66-1.31-.57s-1 .5-1.61 2.38c-1.56 4.53-4.18 9-11.8 8.07-6.61-.83-7.92-5.31-8.87-8.58-.21-.7-.4-1.36-.63-1.93-1.29-3.31-5.92-5.5-13.34-3s-7.65 7.79-7.65 7.85v.06a11 11 0 0 0-.07 1.95Z" transform="translate(-296.51 -232.91)"/><path class="a0d3c3f8-967e-4afd-adf8-e287acaadea3" d="M740.53 340.82a.66.66 0 0 1 0 .23 21 21 0 0 1-12.25 12.25 25.27 25.27 0 0 1-8.29 1.79.58.58 0 0 1-.58-.58.57.57 0 0 1 .57-.58 24.74 24.74 0 0 0 7.91-1.73 19.52 19.52 0 0 0 11.55-11.56.59.59 0 0 1 .75-.34.58.58 0 0 1 .34.52ZM745 348.75c.41 8.41-2.39 14-4.9 17.19a18.93 18.93 0 0 1-6.16 5.32.57.57 0 0 1-.77-.27.58.58 0 0 1 .27-.78 18.23 18.23 0 0 0 5.78-5c2.53-3.28 5.37-9.07 4.5-18a.58.58 0 0 1 .52-.64.59.59 0 0 1 .64.53c.01.51.06 1.09.12 1.65ZM758.87 363.64a21.36 21.36 0 0 1-.64 6.73.58.58 0 1 1-1.11-.34 23.79 23.79 0 0 0-5.72-21.41.58.58 0 1 1 .86-.77 25.35 25.35 0 0 1 6.58 15.26ZM770.82 352a.58.58 0 0 1-1.07.33c0-.06-3-4.73-12.49-6.79a.58.58 0 0 1-.45-.69.58.58 0 0 1 .69-.44c10.06 2.18 13.12 7.11 13.24 7.32a.5.5 0 0 1 .08.27Z" transform="translate(-296.51 -232.91)"/></svg>