<svg version="1.1" id="Layer_1" xmlns="http://www.w3.org/2000/svg" x="0" y="0" viewBox="0 0 762.6 458" style="enable-background:new 0 0 762.6 458" xml:space="preserve"><style>.st0{fill:#e2af2d}.st1{fill:#b78516}.st2{fill:#b90005}.st12{fill:#362919}.st13{fill:#50402d}.st14{fill:#d71713}.st15{fill:#b6180d}.st17{fill:#8e9c27}.st18{fill:#68741b}.st21{fill:#f29100}.st23{fill:#fab900}.st24{fill:#843000}.st25{fill:#632300}.st26{fill:#f9b200}.st27{fill:#ffdb95}.st29{fill:#ebce00}.st30{fill:#c59a00}.st31{fill:#cda000}.st32{fill:#9f7f00}.st37{fill:#fbc235}</style><g id="fdfe0684-9116-45b5-953d-0849d84d512c"><path class="st0" d="M186.3 119.6H40.6C18.2 119.6 0 134.6 0 153c0 18.5 18.2 33.5 40.6 33.5h114.3c17.5 0 31.7 11.7 31.7 26.1 0 14.4-14.2 26.1-31.7 26.1H143c-20 0-36.2 13.4-36.2 29.9s16.2 29.8 36.2 29.8h53.1c15.7 0 28.5 10.5 28.5 23.5s-12.7 23.5-28.5 23.5h-67.8c-14.4 0-26 9.6-26 21.5 0 11.8 11.7 21.5 26 21.5h299.1v-42.9h-9.8v-46.9h6.9v-58.1h17.9v-53.8h33.8v-66.9h41.6V67.4H472V.3H140.3c-22.5 0-40.7 15-40.7 33.5 0 18.6 18.2 33.6 40.7 33.6"/><path class="st1" d="M115.7 278H61.9c-8.6 0-15.7-7-15.7-15.6s7-15.7 15.6-15.7h53.8c8.6 0 15.7 7 15.7 15.6v.1c.1 8.6-6.9 15.6-15.6 15.6zM69.9 176.4H27.2c-11 0-20-9-20-20s9-20 20-20h42.7c11 0 20 9 20 20s-8.9 20-20 20z"/><path class="st0" d="M410.5 388v-42.9h8v-46.9h-5.7v-58.1H398v-53.9h-27.8v-66.9H336V67.1h37.7V0H647c18.5 0 33.5 15 33.5 33.6 0 18.5-15 33.5-33.5 33.5h-37.9c-14.4 0-26.1 11.7-26.1 26.1 0 14.4 11.7 26.1 26.1 26.1h120c18.5 0 33.4 15 33.5 33.4 0 18.5-15 33.4-33.5 33.4H635c-14.4 0-26.1 11.7-26.1 26.1 0 14.4 11.7 26.1 26.1 26.1h9.9c16.5 0 29.8 13.4 29.8 29.9s-13.3 29.8-29.8 29.9"/><path class="st1" d="M645.1 273.9H699c8.6 0 15.7-7 15.7-15.7 0-8.6-7-15.7-15.7-15.7h-53.9c-8.6 0-15.7 7-15.7 15.7.1 8.7 7.1 15.7 15.7 15.7zM657.5 177.5h42.7c11 0 20-9 20-20s-9-20-20-20h-42.7c-11 0-20 9-20 20s9 20 20 20zM165.8 106.4c9 0 9-14 0-14s-9 14 0 14z"/><path class="st2" d="M163.8 309.4v-62.7"/><path class="st1" d="M170.8 309.4v-62.7c0-9-14-9-14 0v62.7c0 9 14 9 14 0z"/><path class="st2" d="M163.8 216v-16"/><path class="st1" d="M170.8 216v-16c0-9-14-9-14 0v16c0 9 14 9 14 0zM531.5 96.4c9 0 9-14 0-14s-9 14 0 14zM553.5 71.4c9 0 9-14 0-14s-9 14 0 14zM566.5 94.4c9 0 9-14 0-14s-9 14 0 14z"/><path d="M637.5 264.4c9 0 9-14 0-14s-9 14 0 14z" style="fill:#e0c485"/><path class="st1" d="M627 296.4c9 0 9-14 0-14s-9 14 0 14zM655 295.4c9 0 9-14 0-14s-9 14 0 14zM604.6 150.5c9 0 9-14 0-14s-9 14 0 14z"/><path style="fill:#927e62" d="m221.9 404.4 17.2 35h181.4l19.8-35z"/><path style="fill:#e7d2b3" d="M560.2 404.4H440.3l-19.8 35h122.4z"/><path d="M196.2 391.3c-6.2 0-11.1 5-11.1 11.1v3.8c0 6.2 5 11.1 11.1 11.1h253.7l14.7-26.1-268.4.1z" style="fill:#5e4b36"/><path d="M578.6 391.3h-114l-14.7 26.1h128.6c6.2 0 11.1-5 11.1-11.1v-3.8c0-6.3-5-11.2-11-11.2z" style="fill:#a58f75"/><path style="fill:#fff0d1" d="M446.5 75.4h12.8v122.7h-12.8z"/><path d="M459.2 75.4v122.7h-12.8v-6.7c4.3 0 7.8-23.7 7.8-52.7S450.7 86 446.4 86V75.5l12.8-.1z" style="fill:#d3c8b0"/><path style="fill:#d03312" d="M508.6 391.5H397.1l-21.3-224.1h154.1z"/><path d="m529.9 167.4-21.3 224.1H397.1l-2.2-23.2c5.8 2.3 12 3.4 18.2 3.5 42.2 0 76.4-53.5 76.4-119.4 0-33.1-8.6-63.1-22.6-84.7l63-.3z" style="fill:#882503"/><path class="st12" d="M531.7 156.5h-78.9l5.1 17.7h73.8c4.9 0 8.9-4 8.9-8.9-.1-4.9-4.1-8.8-8.9-8.8z"/><path class="st13" d="M452.8 156.5h-35.2l3.4 17.7h36.8z"/><path class="st12" d="M374.1 156.5c-4.9.2-8.8 4.3-8.5 9.2.2 4.6 3.9 8.4 8.5 8.5H421l-3.4-17.7h-43.5z"/><path class="st12" d="M393.3 147.6c-4.9 0-8.9 4-8.9 8.9s4 8.9 8.9 8.9h25.9l-3.4-17.7h-22.5z"/><path class="st13" d="M450.2 147.6h-34.3l3.3 17.8h36z"/><path class="st12" d="M512.3 147.6h-62.2l5.1 17.7h57.1c4.9 0 8.9-4 8.9-8.9.1-4.9-3.9-8.8-8.9-8.8z"/><path class="st14" d="M210.3 269.9c-1.2 0-2.2 1-2.2 2.2v2.6c0 1.2 1 2.2 2.2 2.2h43.8l7-7h-50.8z"/><path class="st15" d="M303.5 269.9H261l-7 7h49.5c1.2 0 2.2-1 2.2-2.2V272c0-1.1-.9-2.1-2.2-2.1.1 0 .1 0 0 0z"/><path style="fill:#f2a87a" d="M368.7 269.9h-34.6l-4.5 6.9h34.5z"/><path class="st14" d="M306.2 269.9c-1.2 0-2.2 1-2.2 2.2v2.6c0 1.2 1 2.2 2.2 2.2h23.6l4.4-7h-28z"/><path class="st15" d="M399.4 269.9h-30.7l-4.5 7h35.2c1.2 0 2.2-1 2.2-2.2V272c-.1-1.1-.9-2.1-2.2-2.1z"/><path class="st17" d="M210.3 342.6c-1.2 0-2.2 1-2.2 2.2v2.6c0 1.2 1 2.2 2.2 2.2h43.8l7-7h-50.8z"/><path class="st18" d="M303.5 342.6H261l-7 7h49.5c1.2 0 2.2-1 2.2-2.2v-2.6c0-1.2-.9-2.2-2.2-2.2.1 0 .1 0 0 0z"/><path style="fill:#d4c35f" d="M361.5 342.6h-34.6l-4.4 7.1H357z"/><path class="st17" d="M298.9 342.6c-1.2 0-2.2 1-2.2 2.2v2.6c0 1.2 1 2.2 2.2 2.2h23.6l4.4-7h-28z"/><path class="st18" d="M392.2 342.6h-30.7l-4.5 7h35.2c1.2 0 2.2-1 2.2-2.2v-2.6c0-1.2-.9-2.2-2.2-2.2z"/><path d="M256.2 198.1h106.4c32.5 0 58.9 26.4 58.9 58.9v12.9H197.2v-12.8c0-32.6 26.5-59 59-59z" style="fill:#dc8300"/><path class="st21" d="M421.6 269.9c0-39.6-32.1-71.7-71.7-71.7h-81c-39.6 0-71.7 32.1-71.7 71.7h224.4z"/><path d="M381.5 269.9c0-39.6-32.1-71.7-71.7-71.7H269c-39.6 0-71.7 32.1-71.7 71.7h184.2z" style="fill:#db740a"/><path class="st23" d="M269.6 227.3H258c-2.7 0-5-2.2-5-5 0-2.7 2.3-5 5-5h11.6c2.7 0 5 2.2 5 5-.1 2.7-2.3 5-5 5zM316.7 227.3h-11.6c-2.7 0-5-2.3-5-5s2.3-5 5-5h11.6c2.7 0 5 2.2 5 5-.1 2.7-2.3 5-5 5zM363.7 227.3h-11.6c-2.7 0-5-2.3-5-5s2.3-5 5-5h11.6c2.7 0 5 2.3 5 5s-2.2 5-5 5zM345.2 249.8h-11.6c-2.7 0-5-2.3-5-5s2.2-5 5-5h11.6c2.7 0 5 2.3 5 5s-2.3 5-5 5zM294.2 249.8h-11.6c-2.7 0-5-2.3-5-5s2.2-5 5-5h11.6c2.7 0 5 2.3 5 5s-2.3 5-5 5z"/><path class="st24" d="M215.4 316.1h188.1c4.3 0 7.8 3.5 7.8 7.8v3.4c0 4.3-3.5 7.8-7.8 7.8H215.4c-4.3 0-7.8-3.5-7.8-7.8v-3.4c.1-4.3 3.6-7.8 7.8-7.8z"/><path class="st24" d="M411.2 322.1v7c0 3.2-2.1 5.9-4.6 5.9H212.2c-2.6 0-4.6-2.7-4.6-5.9v-7c0-3.2 2.1-5.9 4.6-5.9h194.4c2.6-.1 4.6 2.5 4.6 5.9z"/><path class="st25" d="M397.6 329.7v5.3H212.2c-2.6 0-4.6-2.7-4.6-5.9v-5.3h185.3c2.6-.1 4.7 2.6 4.7 5.9z"/><path class="st24" d="M390.1 326.3c-.2 0-.4 0-.6.2-.8.6-.8 1.8-.1 2.5l.1.1c.2.1.4.2.6.2.8.2 1.5-.5 1.5-1.5s-.8-1.7-1.5-1.5z"/><path class="st17" d="M400.8 303.8H222.2c-1.8 0-3.4 1.5-3.4 3.4v.8H216c-1.8 0-3.4 1.5-3.4 3.4v1.5c0 1.8 1.5 3.4 3.4 3.4h13.4c0 9.4 7.6 17 17 17 5.7 0 11.1-2.9 14.3-7.8 3.9-5.8 10.4-9.3 17.4-9.2h1.2c5.7.1 11.2 2.4 15.2 6.5 3.7 3.6 9.5 3.6 13.1-.1.1-.1.2-.2.3-.4 3.4-3.9 8.1-6.1 13.3-6.2h9.8c4.4.1 8.8 1.7 12 4.8 3.5 3.1 8.9 3.1 12.3 0 3.6-3.1 8.2-4.9 13-4.8h26.3c1.8 0 3.4-1.5 3.4-3.4v-.8h2.8c1.8 0 3.4-1.5 3.4-3.4V307c-.1-1.7-1.6-3.2-3.4-3.2z"/><path class="st18" d="M225.5 305.9h116.7c1.8 0 3.4 1.5 3.4 3.4v1.4c0 1.8-1.5 3.4-3.4 3.4H225.5c-1.8 0-3.4-1.5-3.4-3.4v-1.4c.1-1.9 1.6-3.4 3.4-3.4zM355.9 305.9h13.3c1.8 0 3.4 1.5 3.4 3.4v1.4c0 1.8-1.5 3.4-3.4 3.4h-13.3c-1.8 0-3.4-1.5-3.4-3.4v-1.4c.1-1.9 1.6-3.4 3.4-3.4z"/><path class="st26" d="M219.2 334.4h178.6c1.8 0 3.4 1.5 3.4 3.4v1.4c0 1.8-1.5 3.4-3.4 3.4H219.2c-1.8 0-3.4-1.5-3.4-3.4v-1.4c0-1.9 1.5-3.4 3.4-3.4z"/><path class="st27" d="M401.1 338.5c0 1-.2 2.1-.8 2.9-.4.6-1.1 1.2-1.9 1.2.3-.6.4-1.4.4-2.2 0-2.3-1.2-4.1-2.7-4.1H216.2l.3-.6c.4-.6 1.1-1.2 1.9-1.2h179.8c1.6-.1 2.9 1.8 2.9 4z"/><path class="st26" d="M219.2 276.8h178.6c1.8 0 3.4 1.5 3.4 3.4v1.4c0 1.8-1.5 3.4-3.4 3.4H219.2c-1.8 0-3.4-1.5-3.4-3.4v-1.4c0-1.9 1.5-3.4 3.4-3.4z"/><path class="st27" d="M401.1 280.9c0 1-.2 2.1-.8 2.9-.4.6-1.1 1.2-1.9 1.2.3-.6.4-1.4.4-2.2 0-2.3-1.2-4.1-2.7-4.1H216.2l.3-.6c.4-.6 1.1-1.2 1.9-1.2h179.8c1.6-.1 2.9 1.7 2.9 4z"/><path class="st24" d="M215.4 285h188.1c4.3 0 7.8 3.5 7.8 7.8v3.4c0 4.3-3.5 7.8-7.8 7.8H215.4c-4.3 0-7.8-3.5-7.8-7.8v-3.4c.1-4.3 3.6-7.8 7.8-7.8z"/><path class="st24" d="M411.2 291v7c0 3.2-2.1 5.9-4.6 5.9H212.2c-2.6 0-4.6-2.7-4.6-5.9v-7c0-3.2 2.1-5.9 4.6-5.9h194.4c2.6-.1 4.6 2.6 4.6 5.9z"/><path class="st25" d="M397.6 298.5v5.2H212.2c-2.6 0-4.6-2.7-4.6-5.9v-5.2h185.3c2.6 0 4.7 2.7 4.7 5.9z"/><path class="st24" d="M390.1 295.2c-.2 0-.4 0-.6.2-.8.6-.8 1.8-.1 2.5l.1.1c.2.1.4.2.6.2.8.2 1.5-.5 1.5-1.5s-.8-1.7-1.5-1.5z"/><path class="st21" d="M414.8 368.9v3.2c0 10.6-8.1 19.2-18.1 19.2H222.2c-9.9 0-18.1-8.6-18.1-19.2v-3.2c0-10.6 8.1-19.2 18.1-19.2h174.5c10 0 18.1 8.5 18.1 19.2z"/><path d="M364.1 368.9v3.2c0 10.6-8.1 19.2-18.1 19.2H222.2c-9.9 0-18.1-8.6-18.1-19.2v-3.2c0-10.6 8.1-19.2 18.1-19.2h123.9c9.9 0 18 8.5 18 19.2z" style="fill:#c76b07"/><path class="st29" d="m479.7 371.6-23.9-115.2-10.8 9.4 24.8 105.8z"/><path class="st30" d="m479.7 371.6-23.9-115.2-2.8 2.4 23.4 112.8z"/><path class="st31" d="m480.9 371.6-5.2-115.2-12.1 7.5 7.6 107.7z"/><path class="st32" d="m480.9 371.6-5.2-115.2-3.2 1.9 5.1 113.3z"/><path class="st29" d="m476.1 371.6-5-108.2L459 271l7.3 100.6z"/><path class="st32" d="m476.1 371.6-5-108.2-3.1 1.9 4.9 106.3z"/><path class="st29" d="M499 371.6 494 261l-12.1 7.6 7.4 103z"/><path class="st30" d="M499 371.6 494 261l-3.1 2 4.9 108.6z"/><path class="st31" d="m482.8 371.6 8.2-113.9-12.8 6.1-5.1 107.8z"/><path class="st32" d="m482.7 371.6 8.3-113.9-3.3 1.5-8.1 112.4z"/><path class="st29" d="m497.3 371.6 9-121.8-13 6-5.4 115.8z"/><path class="st30" d="m497.3 371.6 9-121.8-3.4 1.5-8.7 120.3z"/><path class="st31" d="m537.5 371.6 7.9-108.1-13 6.2-4.7 101.9z"/><path class="st32" d="m537.5 371.6 7.9-108.1-3.4 1.6-7.7 106.5z"/><path class="st29" d="m531.1 371.6 31.9-93.5-13.7 1.8-28.2 91.7z"/><path class="st30" d="m531.1 371.6 31.9-93.5-3.6.4-31.7 93.1z"/><path class="st29" d="m526.2 371.6 8.5-96.3-13 5.1-5.2 91.2z"/><path style="fill:#b08b00" d="m526.2 371.6 8.5-96.3-3.4 1.3-8.4 95z"/><path class="st29" d="m516.7 371.6 8.5-115.1-13 6.1-5.1 109z"/><path class="st32" d="m516.7 371.6 8.5-115.1-3.4 1.6-8.2 113.5z"/><path style="fill:#b28c00" d="m473 371.6 59.1-101.2-14.3-.2-55.7 101.4z"/><path class="st30" d="m473 371.6 59.1-101.2-3.7-.1-59.1 101.3z"/><path class="st29" d="m498.2 371.6-13.3-110.5-11.5 8.5 14.9 102z"/><path class="st32" d="m498.2 371.6-13.3-110.5-3 2.2 13 108.3z"/><path class="st31" d="m488.5 371.6 50.8-107.7-14.2 1.1L478 371.6z"/><path class="st32" d="m488.5 371.6 50.8-107.7-3.6.4L485 371.6z"/><path class="st29" d="m505.2 371.6 48-101.7-14.3 1.1-44.3 100.6z"/><path class="st30" d="m505.2 371.6 48-101.7-3.7.3-47.9 101.4z"/><path class="st32" d="M514.9 371.6 563 269.9l-14.3 1.1-44.4 100.6z"/><path class="st30" d="M514.9 371.6 563 269.9l-3.7.3-47.9 101.4z"/><path class="st29" d="M470.9 371.6 525.5 256l-14.3 1.1-50.4 114.5z"/><path class="st30" d="M470.9 371.6 525.5 256l-3.7.4-54.5 115.2z"/><path class="st29" d="m520.1 370.3-9.1.5-18.7-92.2 11.6-6z"/><path class="st30" d="m520.1 370.3-9.1.5-.1-.4 5.8-.3-15.8-96 3-1.5z"/><path style="fill:#df9f1b" d="M447.5 318.4v73.1h34.8l17.4-73.1z"/><path style="fill:#cf9519" d="M531.4 318.4h-31.7l-17.4 73.1h49.1z"/><path class="st37" d="M516.1 358.7h-84l15.4-40.3h83.9z"/><path style="fill:#b17b11" d="M531.4 318.4h31.7v72.9h-31.7z"/><path class="st37" d="M563.1 318.4h-31.7l15.4 40.3h31.8z"/></g></svg>