<svg id="f2e85de6-fd64-4ce5-9632-7e6fb9a03d6d" data-name="Layer 2" xmlns="http://www.w3.org/2000/svg" viewBox="0 0 387.47 387.47"><defs><style>.b88d7ece-d58d-461b-997c-428611eafab6{fill:#c3eeff;}</style></defs><title>clockIcon</title><path class="b88d7ece-d58d-461b-997c-428611eafab6" d="M1113.8,739c-107,0-193.74,86.74-193.74,193.74s86.74,193.74,193.74,193.74,193.74-86.74,193.74-193.74S1220.8,739,1113.8,739Zm0,359.88a166.14,166.14,0,1,1,166.14-166.14A166.14,166.14,0,0,1,1113.8,1098.9Z" transform="translate(-920.06 -739.02)"/><polygon class="b88d7ece-d58d-461b-997c-428611eafab6" points="193.74 75.56 183.93 87.09 186.04 193.8 201.43 193.8 203.54 87.09 193.74 75.56"/><polygon class="b88d7ece-d58d-461b-997c-428611eafab6" points="285.61 193.8 271.72 184.63 193.74 186.61 193.74 201 271.72 202.97 285.61 193.8"/><path class="b88d7ece-d58d-461b-997c-428611eafab6" d="M1129,932.83c0,7.83-6.8,14.19-15.18,14.19s-15.18-6.36-15.18-14.19,6.8-14.2,15.18-14.2S1129,925,1129,932.83Z" transform="translate(-920.06 -739.02)"/><circle class="b88d7ece-d58d-461b-997c-428611eafab6" cx="192.81" cy="48.61" r="11.18"/><circle class="b88d7ece-d58d-461b-997c-428611eafab6" cx="192.81" cy="339.05" r="11.18"/><circle class="b88d7ece-d58d-461b-997c-428611eafab6" cx="47.59" cy="192.6" r="11.18"/><circle class="b88d7ece-d58d-461b-997c-428611eafab6" cx="338.03" cy="192.6" r="11.18"/></svg>