<svg id="b87cf355-4f92-460e-887a-d53acc67b22d" data-name="Capa 1" xmlns="http://www.w3.org/2000/svg" viewBox="0 0 1341.43 1591.2"><defs><style>.fa7c4203-0be0-4eaf-9ba4-43c2e597f1ec{fill:#fdc75d;}.b45f3b91-515d-4589-ac45-9f75e6f87112{fill:#37586a;}</style></defs><title>clockImage</title><path class="fa7c4203-0be0-4eaf-9ba4-43c2e597f1ec" d="M1525.89,787.69l-56.66-61a76.06,76.06,0,1,1,111.43-103.55l56.66,61a76.06,76.06,0,1,1-111.43,103.55Z" transform="translate(-390.29 -264.85)"/><ellipse class="fa7c4203-0be0-4eaf-9ba4-43c2e597f1ec" cx="670.71" cy="144.64" rx="117.43" ry="70.46"/><path class="fa7c4203-0be0-4eaf-9ba4-43c2e597f1ec" d="M1107.85,571.79V474.1a190.53,190.53,0,0,1-93.7,0v97.69Z" transform="translate(-390.29 -264.85)"/><path class="fa7c4203-0be0-4eaf-9ba4-43c2e597f1ec" d="M1061,569.85c-334.69,0-606,271.32-606,606s271.32,606,606,606,606-271.32,606-606S1395.69,569.85,1061,569.85Zm0,1101c-273.39,0-495-221.63-495-495s221.63-495,495-495,495,221.62,495,495S1334.39,1670.88,1061,1670.88Z" transform="translate(-390.29 -264.85)"/><line class="fa7c4203-0be0-4eaf-9ba4-43c2e597f1ec" x1="670.71" y1="473.9" x2="670.71" y2="524.46"/><line class="fa7c4203-0be0-4eaf-9ba4-43c2e597f1ec" x1="670.71" y1="1297.59" x2="670.71" y2="1348.15"/><line class="fa7c4203-0be0-4eaf-9ba4-43c2e597f1ec" x1="1107.84" y1="911.03" x2="1057.28" y2="911.03"/><line class="fa7c4203-0be0-4eaf-9ba4-43c2e597f1ec" x1="937.35" y1="911.03" x2="670.71" y2="911.03"/><line class="fa7c4203-0be0-4eaf-9ba4-43c2e597f1ec" x1="670.71" y1="631.75" x2="670.71" y2="911.03"/><line class="fa7c4203-0be0-4eaf-9ba4-43c2e597f1ec" x1="284.15" y1="911.03" x2="233.59" y2="911.03"/><line class="fa7c4203-0be0-4eaf-9ba4-43c2e597f1ec" x1="979.8" y1="601.93" x2="944.06" y2="637.68"/><line class="fa7c4203-0be0-4eaf-9ba4-43c2e597f1ec" x1="397.37" y1="1184.37" x2="361.62" y2="1220.12"/><line class="fa7c4203-0be0-4eaf-9ba4-43c2e597f1ec" x1="979.8" y1="1220.12" x2="944.06" y2="1184.37"/><line class="fa7c4203-0be0-4eaf-9ba4-43c2e597f1ec" x1="397.37" y1="637.68" x2="361.62" y2="601.93"/><path class="fa7c4203-0be0-4eaf-9ba4-43c2e597f1ec" d="M1061,727.32V782a15,15,0,1,0,29.93,0v-54.7a15,15,0,1,0-29.93,0" transform="translate(-390.29 -264.85)"/><path class="fa7c4203-0be0-4eaf-9ba4-43c2e597f1ec" d="M1061,1618.61v54.7a15,15,0,1,0,29.93,0v-54.7a15,15,0,1,0-29.93,0" transform="translate(-390.29 -264.85)"/><path class="fa7c4203-0be0-4eaf-9ba4-43c2e597f1ec" d="M1549,1185.35h-54.7a15,15,0,1,0,0,29.93H1549a15,15,0,1,0,0-29.93" transform="translate(-390.29 -264.85)"/><path class="fa7c4203-0be0-4eaf-9ba4-43c2e597f1ec" d="M1364.48,1185.35H1076a15,15,0,0,0,0,29.93h288.52a15,15,0,1,0,0-29.93" transform="translate(-390.29 -264.85)"/><path class="fa7c4203-0be0-4eaf-9ba4-43c2e597f1ec" d="M1061,898.13v302.18a15,15,0,1,0,29.93,0V898.13a15,15,0,1,0-29.93,0" transform="translate(-390.29 -264.85)"/><path class="fa7c4203-0be0-4eaf-9ba4-43c2e597f1ec" d="M657.67,1185.35H603a15,15,0,1,0,0,29.93h54.7a15,15,0,1,0,0-29.93" transform="translate(-390.29 -264.85)"/><path class="fa7c4203-0be0-4eaf-9ba4-43c2e597f1ec" d="M1399.84,855.27,1361.16,894a15,15,0,1,0,21.16,21.17L1421,876.44a15,15,0,0,0-21.17-21.17" transform="translate(-390.29 -264.85)"/><path class="fa7c4203-0be0-4eaf-9ba4-43c2e597f1ec" d="M769.61,1485.51l-38.68,38.68a15,15,0,1,0,21.16,21.16l38.68-38.67a15,15,0,1,0-21.16-21.17" transform="translate(-390.29 -264.85)"/><path class="fa7c4203-0be0-4eaf-9ba4-43c2e597f1ec" d="M1421,1524.19l-38.69-38.68a15,15,0,0,0-21.16,21.17l38.68,38.67a15,15,0,0,0,21.17-21.16" transform="translate(-390.29 -264.85)"/><path class="fa7c4203-0be0-4eaf-9ba4-43c2e597f1ec" d="M790.77,894l-38.68-38.68a15,15,0,1,0-21.16,21.17l38.68,38.68A15,15,0,1,0,790.77,894" transform="translate(-390.29 -264.85)"/><path class="b45f3b91-515d-4589-ac45-9f75e6f87112" d="M1564.05,765.3l11-10.18-61.31-66a67.33,67.33,0,1,1,98.64-91.68l61.32,66A67.34,67.34,0,0,1,1575,755.12l-11,10.18-11,10.2a97.27,97.27,0,0,0,142.5-132.44l-61.32-66a97.27,97.27,0,0,0-142.5,132.44l61.31,66Z" transform="translate(-390.29 -264.85)"/><path class="b45f3b91-515d-4589-ac45-9f75e6f87112" d="M1188.07,356.06h-15c0,7.11-2.31,14-7.25,21.05-7.37,10.55-21.12,20.91-39.43,28.3s-40.93,11.93-65.43,11.93c-32.66,0-62-8.08-82.15-20.2-10.07-6-17.77-13-22.7-20s-7.23-13.94-7.26-21.05,2.31-14,7.26-21.06c7.36-10.54,21.11-20.91,39.42-28.29s40.94-11.94,65.43-11.92c32.66-.05,62,8.07,82.15,20.19,10.07,6,17.77,13,22.71,20s7.22,13.95,7.25,21.06H1203c0-13.95-4.81-27.13-12.72-38.3-11.93-16.82-30.41-29.74-52.65-38.8s-48.53-14.1-76.67-14.11c-37.52,0-71.68,9-97.55,24.47-12.93,7.76-23.84,17.22-31.77,28.44s-12.74,24.35-12.72,38.3,4.81,27.13,12.72,38.3c11.93,16.82,30.41,29.73,52.65,38.79s48.53,14.11,76.67,14.12c37.52,0,71.68-9,97.55-24.47,12.93-7.76,23.84-17.22,31.77-28.44s12.74-24.36,12.72-38.3Z" transform="translate(-390.29 -264.85)"/><path class="b45f3b91-515d-4589-ac45-9f75e6f87112" d="M1111.69,531.69h15V426a15,15,0,0,0-18.75-14.48,191.32,191.32,0,0,1-93.82,0A15,15,0,0,0,995.34,426V531.69a15,15,0,0,0,15,15h101.39a15,15,0,0,0,15-15h-15v-15h-86.42V426h-15l-3.78,14.48a221.33,221.33,0,0,0,109,0L1111.69,426h-15V531.69h15v0Z" transform="translate(-390.29 -264.85)"/><path class="b45f3b91-515d-4589-ac45-9f75e6f87112" d="M1716.75,1185.34h-15c0,177-71.7,337.09-187.68,453.09S1238,1826.11,1061,1826.12s-337.09-71.7-453.1-187.69-187.67-276.1-187.68-453.09,71.7-337.1,187.68-453.11S884,544.56,1061,544.55s337.1,71.7,453.1,187.68,187.67,276.11,187.68,453.11h29.93c0-185.17-75.09-352.94-196.44-474.27S1246.16,514.61,1061,514.62,708.06,589.71,586.73,711.07s-196.45,289.1-196.44,474.27,75.09,352.93,196.44,474.26S875.84,1856.05,1061,1856.05s352.94-75.1,474.27-196.45,196.45-289.1,196.44-474.26Z" transform="translate(-390.29 -264.85)"/><path class="b45f3b91-515d-4589-ac45-9f75e6f87112" d="M1596.64,1185.34h-15c0,143.82-58.26,273.9-152.5,368.17S1204.83,1706,1061,1706s-273.9-58.26-368.17-152.5-152.5-224.35-152.51-368.17,58.26-273.91,152.51-368.18S917.17,664.67,1061,664.66s273.91,58.26,368.18,152.5,152.49,224.35,152.5,368.18h29.93a550.63,550.63,0,1,0-161.27,389.33,549,549,0,0,0,161.27-389.33Z" transform="translate(-390.29 -264.85)"/><path class="b45f3b91-515d-4589-ac45-9f75e6f87112" d="M1046,712.35v54.7a15,15,0,1,0,29.92,0v-54.7a15,15,0,1,0-29.92,0" transform="translate(-390.29 -264.85)"/><path class="b45f3b91-515d-4589-ac45-9f75e6f87112" d="M1046,1603.64v54.7a15,15,0,1,0,29.92,0v-54.7a15,15,0,1,0-29.92,0" transform="translate(-390.29 -264.85)"/><path class="b45f3b91-515d-4589-ac45-9f75e6f87112" d="M1534,1170.38h-54.71a15,15,0,0,0,0,29.93H1534a15,15,0,0,0,0-29.93" transform="translate(-390.29 -264.85)"/><path class="b45f3b91-515d-4589-ac45-9f75e6f87112" d="M1349.51,1170.38H1061a15,15,0,0,0,0,29.93h288.51a15,15,0,1,0,0-29.93" transform="translate(-390.29 -264.85)"/><path class="b45f3b91-515d-4589-ac45-9f75e6f87112" d="M1046,883.16v302.19a15,15,0,0,0,29.94,0V883.16a15,15,0,1,0-29.94,0" transform="translate(-390.29 -264.85)"/><path class="b45f3b91-515d-4589-ac45-9f75e6f87112" d="M642.71,1170.38H588a15,15,0,0,0,0,29.93h54.71a15,15,0,0,0,0-29.93" transform="translate(-390.29 -264.85)"/><path class="b45f3b91-515d-4589-ac45-9f75e6f87112" d="M1384.88,840.3,1346.2,879a15,15,0,1,0,21.16,21.17L1406,861.47a15,15,0,0,0-21.16-21.17" transform="translate(-390.29 -264.85)"/><path class="b45f3b91-515d-4589-ac45-9f75e6f87112" d="M754.64,1470.54,716,1509.22a15,15,0,1,0,21.16,21.17l38.68-38.68a15,15,0,1,0-21.16-21.17" transform="translate(-390.29 -264.85)"/><path class="b45f3b91-515d-4589-ac45-9f75e6f87112" d="M1406,1509.22l-38.68-38.68a15,15,0,0,0-21.16,21.17l38.68,38.68a15,15,0,0,0,21.16-21.17" transform="translate(-390.29 -264.85)"/><path class="b45f3b91-515d-4589-ac45-9f75e6f87112" d="M775.8,879,737.12,840.3A15,15,0,1,0,716,861.47l38.68,38.68A15,15,0,1,0,775.8,879" transform="translate(-390.29 -264.85)"/></svg>