<svg id="fc3bc8f3-eea6-4ca6-bc1e-bee79e1447c8" data-name="Layer 3" xmlns="http://www.w3.org/2000/svg" viewBox="0 0 82.06 82.06"><defs><style>.a2251ed8-f82b-429c-bae6-3b90f2589836,.ac97b7a0-d0a9-4886-ac81-7226b539df4b{fill:none;stroke:#b5b5b5;stroke-miterlimit:10;stroke-width:3px;}.ac97b7a0-d0a9-4886-ac81-7226b539df4b{stroke-linecap:round;}</style></defs><title>editIcon</title><g id="be29182d-7873-4758-aa9e-c5cb5291f50a" data-name="pencil"><path class="a2251ed8-f82b-429c-bae6-3b90f2589836" d="M768.38,848.72A14.61,14.61,0,0,0,758,853l-52.83,52.83a4,4,0,0,0-1.17,2.83v15.09a4,4,0,0,0,4,4h15.1a4,4,0,0,0,2.83-1.18l52.83-52.83a14.68,14.68,0,0,0-10.38-25Z" transform="translate(-702.5 -847.22)"/><path class="a2251ed8-f82b-429c-bae6-3b90f2589836" d="M748.1,872.33" transform="translate(-702.5 -847.22)"/><path class="a2251ed8-f82b-429c-bae6-3b90f2589836" d="M745.7,862.73" transform="translate(-702.5 -847.22)"/><line class="a2251ed8-f82b-429c-bae6-3b90f2589836" x1="43.33" y1="18.04" x2="64.82" y2="39.79"/><path class="a2251ed8-f82b-429c-bae6-3b90f2589836" d="M762.51,875" transform="translate(-702.5 -847.22)"/></g><line id="a462b60e-1855-4c16-9d08-24e981aeaf5e" data-name="line" class="ac97b7a0-d0a9-4886-ac81-7226b539df4b" x1="43.33" y1="78.08" x2="67.35" y2="78.08"/></svg>