<?xml version="1.0" encoding="utf-8"?>
<!-- Generator: Adobe Illustrator 24.0.1, SVG Export Plug-In . SVG Version: 6.00 Build 0)  -->
<svg version="1.1" id="favouriteIconID" xmlns="http://www.w3.org/2000/svg" xmlns:xlink="http://www.w3.org/1999/xlink" x="0px"
	 y="0px" viewBox="0 0 59 49" style="enable-background:new 0 0 59 49;" xml:space="preserve">
<style type="text/css">
	.st0{fill:#F7F8FA;}
</style>
<path class="st0" d="M29.2,46.1l0.4-2l0,0L29.2,46.1z M36.6,40.6l-1.4-1.4l0,0L36.6,40.6z M51.8,5.2l3,20.1l0,0L51.8,5.2z
	 M29.9,12.7l-1.4,1.4L23.8,29l7.5-14.9L29.9,12.7z M23.7,6.5l1.4-1.4l0,0L23.7,6.5z M6.3,23.9l1.4-1.4L6.3,23.9z M23.1,40.7l1.4-1.4
	l0,0L23.1,40.7z M23.1,40.7l-1.4,1.4l0,0L23.1,40.7z M27.7,45.3l1.4-1.4l0,0L27.7,45.3z M23.1,38.1c-0.2,0.2,6.8,6.1,6.5,6L28.8,48
	c1.6,0.3,3.3-0.2,4.5-1.4L23.1,38.1z M35.2,39.2l-13.5-2.3l11.7,9.8L38,42L35.2,39.2z M48.6,4.2l-18.5,33L38,42l17.1-17L49.2,4.3
	C49.1,4,48.7,3.9,48.6,4.2z M51.9,8c4,4-62.7,33.3-16.7,31.2l19.6-13.9c5.6-5.6,5.6-14.6,0-20.1L51.9,8z M37.5,8
	c4-4-22.1,24.4-18.1,28.4L54.8,5.2c-5.6-5.6-14.6-5.6-20.1,0L37.5,8z M30.4,26l8.5-18.4l-4.3-2.4l-6.1,6.1L30.4,26z M22.3,8
	l1.5,18.6l7.5-15.2l-6.2-6.2L22.3,8z M7.7,8C7,24.5,33.8,42.1,22.3,8l2.8-2.8c-5.6-5.6-14.6-5.6-20.2,0L7.7,8z M9.9,25.3
	c47-4.4-4.3-13.3-0.3-17.4L4.9,5.1c-5.6,5.6-5.6,14.6,0,20.2L9.9,25.3z M24.5,39.3l0.9-28.7L4.9,25.4l16.8,16.8L24.5,39.3z
	 M24.5,39.3L24.5,39.3l-2.8,2.8l0,0L24.5,39.3z M30.1,42.9l-5.6-3.6l-2.8,2.8l4.6,4.6L30.1,42.9z M29.6,44.2c-0.2,0,0.4-3.6,0.3-3.8
	l-3.6,6.4c0.7,0.7,1.6,1.2,2.6,1.4L29.6,44.2z"/>
<rect x="49.2" y="4" class="st0" width="3.5" height="7.2"/>
<rect x="51.8" y="6.5" class="st0" width="2.3" height="2.3"/>
<rect x="52.9" y="5.2" class="st0" width="1.8" height="1.5"/>
<polygon class="st0" points="26.3,8.1 20.5,3.5 13,1.8 5.6,5.9 2.3,12 2.3,19.3 4.9,24.5 28.9,47.3 41.9,35.9 57.8,18.7 57.8,13 
	55.7,7.6 50.6,3.4 46.1,1.8 41.3,1.8 36.6,5.8 32.4,10.1 30.7,12.7 "/>
</svg>
