<svg width="62" height="61" id="favouriteIconID" viewBox="0 0 62 61" fill="none" xmlns="http://www.w3.org/2000/svg">
<mask id="path-1-inside-1" fill="white">
<path fill-rule="evenodd" clip-rule="evenodd" d="M42.2342 48.8541L35.2721 55.8162C32.9289 58.1594 29.13 58.1594 26.7868 55.8162L19.8604 48.8898C19.8531 48.8826 19.8459 48.8753 19.8387 48.8681C19.8303 48.8597 19.8219 48.8513 19.8135 48.843L5.16442 34.1939C-0.449232 28.5802 -0.449226 19.4787 5.16443 13.865C10.7781 8.25137 19.8796 8.25137 25.4933 13.865L31.5155 19.8872L37.2946 14.108C42.7741 8.62856 51.658 8.62857 57.1375 14.108C62.6169 19.5875 62.6169 28.4714 57.1375 33.9509L42.2554 48.8329C42.252 48.8363 42.2487 48.8396 42.2454 48.843C42.2417 48.8467 42.2379 48.8504 42.2342 48.8541Z"/>
</mask>
<path d="M19.8387 48.8681L22.674 46.0466L22.6675 46.04L22.6609 46.0334L19.8387 48.8681ZM19.8135 48.843L16.9851 51.6714L19.8135 48.843ZM5.16442 34.1939L7.99285 31.3654L5.16442 34.1939ZM5.16443 13.865L7.99286 16.6934L5.16443 13.865ZM31.5155 19.8872L28.687 22.7156L31.5155 25.5441L34.3439 22.7156L31.5155 19.8872ZM39.4058 46.0257L32.4437 52.9878L38.1005 58.6447L45.0627 51.6825L39.4058 46.0257ZM32.4437 52.9878C31.6626 53.7689 30.3963 53.7689 29.6152 52.9878L23.9584 58.6447C27.8636 62.5499 34.1953 62.5499 38.1005 58.6447L32.4437 52.9878ZM29.6152 52.9878L22.6888 46.0614L17.0319 51.7182L23.9584 58.6447L29.6152 52.9878ZM22.6888 46.0614C22.6839 46.0564 22.6789 46.0515 22.674 46.0466L17.0033 51.6895C17.0129 51.6991 17.0224 51.7087 17.0319 51.7182L22.6888 46.0614ZM22.6609 46.0334C22.6546 46.0271 22.6483 46.0208 22.642 46.0145L16.9851 51.6714C16.9955 51.6818 17.006 51.6923 17.0165 51.7027L22.6609 46.0334ZM22.642 46.0145L7.99285 31.3654L2.336 37.0223L16.9851 51.6714L22.642 46.0145ZM7.99285 31.3654C3.94129 27.3139 3.9413 20.745 7.99286 16.6934L2.336 11.0366C-4.83975 18.2123 -4.83976 29.8465 2.336 37.0223L7.99285 31.3654ZM7.99286 16.6934C12.0444 12.6419 18.6133 12.6419 22.6648 16.6934L28.3217 11.0366C21.1459 3.86084 9.51175 3.86084 2.336 11.0366L7.99286 16.6934ZM22.6648 16.6934L28.687 22.7156L34.3439 17.0588L28.3217 11.0366L22.6648 16.6934ZM34.3439 22.7156L40.1231 16.9364L34.4662 11.2796L28.687 17.0588L34.3439 22.7156ZM40.1231 16.9364C44.0404 13.0191 50.3917 13.0191 54.309 16.9364L59.9659 11.2796C52.9244 4.23805 41.5078 4.23804 34.4662 11.2796L40.1231 16.9364ZM54.309 16.9364C58.2264 20.8538 58.2264 27.2051 54.309 31.1224L59.9659 36.7793C67.0074 29.7377 67.0074 18.3211 59.9659 11.2796L54.309 16.9364ZM54.309 31.1224L39.4269 46.0045L45.0838 51.6614L59.9659 36.7793L54.309 31.1224ZM39.4269 46.0045C39.4239 46.0075 39.4211 46.0103 39.4197 46.0118C39.4178 46.0137 39.4173 46.0142 39.4169 46.0145L45.0738 51.6714C45.0768 51.6684 45.0796 51.6656 45.0811 51.6641C45.0829 51.6622 45.0835 51.6617 45.0838 51.6614L39.4269 46.0045ZM39.4169 46.0145C39.4163 46.0152 39.4155 46.016 39.4134 46.018C39.4117 46.0197 39.4089 46.0226 39.4058 46.0257L45.0627 51.6825C45.0633 51.6819 45.0641 51.681 45.0662 51.679C45.0678 51.6773 45.0707 51.6744 45.0738 51.6714L39.4169 46.0145Z" fill="#F7F8FA" mask="url(#path-1-inside-1)"/>
</svg>
