<svg width="60" height="49" id="favouriteIconID" viewBox="0 0 60 49" fill="none" xmlns="http://www.w3.org/2000/svg">
<path d="M29.6047 46.0578L30.0799 43.6034L30.0799 43.6034L29.6047 46.0578ZM36.9622 40.5708L35.1944 38.803L35.1944 38.803L36.9622 40.5708ZM53.7062 23.8268L55.474 25.5945L55.474 25.5945L53.7062 23.8268ZM30.2706 12.666L28.5028 14.4338L30.2706 16.2015L32.0384 14.4338L30.2706 12.666ZM6.69557 6.4821L8.46334 8.24987L8.46334 8.24987L6.69557 6.4821ZM6.69557 23.8732L8.46334 22.1055L6.69557 23.8732ZM23.4743 40.652L25.244 38.8861L25.2421 38.8842L23.4743 40.652ZM23.4861 40.6638L21.7183 42.4315L21.7183 42.4315L23.4861 40.6638ZM28.0564 45.234L29.8241 43.4662L29.8241 43.4662L28.0564 45.234ZM30.5312 43.4662C30.4108 43.5866 30.2449 43.6353 30.0799 43.6034L29.1295 48.5122C30.8555 48.8464 32.7227 48.3459 34.0668 47.0018L30.5312 43.4662ZM35.1944 38.803L30.5312 43.4662L34.0668 47.0018L38.73 42.3386L35.1944 38.803ZM51.9385 22.059L35.1944 38.803L38.73 42.3386L55.474 25.5945L51.9385 22.059ZM51.9385 8.29634C55.7389 12.0968 55.7389 18.2586 51.9385 22.059L55.474 25.5945C61.2271 19.8415 61.2271 10.5139 55.474 4.76081L51.9385 8.29634ZM38.1758 8.29634C41.9763 4.49589 48.138 4.49589 51.9385 8.29634L55.474 4.76081C49.7209 -0.992263 40.3934 -0.99227 34.6403 4.76081L38.1758 8.29634ZM32.0384 14.4338L38.1758 8.29634L34.6403 4.76081L28.5028 10.8982L32.0384 14.4338ZM22.3189 8.24986L28.5028 14.4338L32.0384 10.8982L25.8545 4.71433L22.3189 8.24986ZM8.46334 8.24987C12.2895 4.42374 18.4928 4.42374 22.3189 8.24986L25.8545 4.71433C20.0757 -1.06441 10.7065 -1.06441 4.92781 4.71433L8.46334 8.24987ZM8.46334 22.1055C4.63722 18.2793 4.63722 12.076 8.46334 8.24987L4.92781 4.71433C-0.850934 10.4931 -0.850937 19.8623 4.92781 25.641L8.46334 22.1055ZM25.2421 38.8842L8.46334 22.1055L4.92781 25.641L21.7066 42.4198L25.2421 38.8842ZM25.2538 38.896C25.2506 38.8927 25.2473 38.8894 25.244 38.8861L21.7046 42.4178C21.7092 42.4224 21.7138 42.427 21.7183 42.4315L25.2538 38.896ZM29.8241 43.4662L25.2538 38.896L21.7183 42.4315L26.2886 47.0018L29.8241 43.4662ZM30.0799 43.6034C29.9869 43.5853 29.8998 43.5419 29.8241 43.4662L26.2886 47.0018C27.0916 47.8048 28.0879 48.3105 29.1295 48.5122L30.0799 43.6034Z" fill="#F7F8FA"/>
</svg>
