<svg width="59" id="favouriteIconID" height="49" viewBox="0 0 59 49" fill="none" xmlns="http://www.w3.org/2000/svg">
<path d="M28.6047 46.0578L28.9849 44.0942L28.9849 44.0942L28.6047 46.0578ZM35.9622 40.5708L34.548 39.1566L34.548 39.1566L35.9622 40.5708ZM52.7062 23.8268L54.1205 25.241L54.1205 25.241L52.7062 23.8268ZM29.2706 12.666L27.8564 14.0802L29.2706 15.4944L30.6848 14.0802L29.2706 12.666ZM23.0867 6.4821L24.5009 5.06788L24.5009 5.06788L23.0867 6.4821ZM5.69557 23.8732L7.10979 22.459L5.69557 23.8732ZM22.4743 40.652L23.8901 39.2393L23.8885 39.2378L22.4743 40.652ZM22.4861 40.6638L21.0719 42.078L21.0719 42.078L22.4861 40.6638ZM27.0564 45.234L28.4706 43.8198L28.4706 43.8198L27.0564 45.234ZM29.8848 43.8198C29.642 44.0626 29.306 44.1564 28.9849 44.0942L28.2245 48.0213C29.7944 48.3253 31.4915 47.8699 32.7132 46.6482L29.8848 43.8198ZM34.548 39.1566L29.8848 43.8198L32.7132 46.6482L37.3764 41.985L34.548 39.1566ZM51.292 22.4126L34.548 39.1566L37.3764 41.985L54.1205 25.241L51.292 22.4126ZM51.292 7.94279C55.2877 11.9385 55.2877 18.4168 51.292 22.4126L54.1205 25.241C59.6783 19.6832 59.6783 10.6722 54.1204 5.11436L51.292 7.94279ZM36.8223 7.94279C40.818 3.94707 47.2963 3.94707 51.292 7.94279L54.1204 5.11436C48.5626 -0.443448 39.5516 -0.443454 33.9938 5.11436L36.8223 7.94279ZM30.6848 14.0802L36.8223 7.94279L33.9938 5.11436L27.8564 11.2518L30.6848 14.0802ZM21.6725 7.89631L27.8564 14.0802L30.6848 11.2518L24.5009 5.06788L21.6725 7.89631ZM7.10979 7.89631C11.1312 3.87493 17.6511 3.87493 21.6725 7.89631L24.5009 5.06788C18.9174 -0.515596 9.86484 -0.515593 4.28136 5.06789L7.10979 7.89631ZM7.10979 22.459C3.0884 18.4376 3.08841 11.9177 7.10979 7.89631L4.28136 5.06789C-1.30212 10.6514 -1.30212 19.704 4.28136 25.2874L7.10979 22.459ZM23.8885 39.2378L7.10979 22.459L4.28136 25.2874L21.0601 42.0662L23.8885 39.2378ZM23.9003 39.2495C23.8969 39.2461 23.8935 39.2427 23.8901 39.2393L21.0586 42.0647C21.063 42.0691 21.0674 42.0735 21.0719 42.078L23.9003 39.2495ZM28.4706 43.8198L23.9003 39.2495L21.0719 42.078L25.6421 46.6482L28.4706 43.8198ZM28.9849 44.0942C28.797 44.0579 28.619 43.9682 28.4706 43.8198L25.6421 46.6482C26.3724 47.3785 27.2778 47.838 28.2245 48.0213L28.9849 44.0942Z" fill="#F7F8FA"/>
</svg>
