<svg width="68" height="31" fill="none" xmlns="http://www.w3.org/2000/svg"><g fill="#737C8E"><path fill-rule="evenodd" clip-rule="evenodd" d="M13.138 13.02V0h1.25v13.02h-1.25ZM28.152 1.24H14.39V0h13.763v1.24ZM13.138 31V17.98h1.25V31h-1.25ZM21.27 16.12h-8.132v-1.24h8.133v1.24ZM6.256 14.88h6.882v1.24H6.256v-1.24Z"/><path fill-rule="evenodd" clip-rule="evenodd" d="M2.575 13.494c.883.808 2.248 1.386 4.15 1.386v1.24c-2.164 0-3.849-.662-4.999-1.714A5.223 5.223 0 0 1 0 10.54c0-1.41.579-2.816 1.726-3.866 1.15-1.052 2.835-1.714 5-1.714V6.2c-1.903 0-3.268.578-4.151 1.386A3.988 3.988 0 0 0 1.25 10.54c0 1.07.438 2.144 1.324 2.954ZM24.425 17.488c-.807-.8-2.049-1.368-3.78-1.368v-1.24c2.023 0 3.596.672 4.665 1.732a5.403 5.403 0 0 1 1.591 3.848 5.403 5.403 0 0 1-1.59 3.848c-1.07 1.06-2.643 1.732-4.666 1.732V24.8c1.731 0 2.973-.568 3.78-1.368a4.17 4.17 0 0 0 1.225-2.972 4.17 4.17 0 0 0-1.224-2.972Z"/><path d="M24.108 12.474c-.76 0-1.446-.168-2.057-.505a3.815 3.815 0 0 1-1.441-1.429c-.35-.605-.526-1.29-.526-2.053 0-.764.176-1.449.526-2.054.35-.605.83-1.076 1.441-1.413.611-.338 1.297-.506 2.057-.506.761 0 1.447.168 2.057.506.611.337 1.086.808 1.427 1.413.35.605.525 1.29.525 2.054 0 .763-.175 1.448-.525 2.053a3.707 3.707 0 0 1-1.427 1.429c-.61.337-1.296.505-2.057.505Zm0-.937c.56 0 1.061-.124 1.502-.372.45-.258.8-.62 1.05-1.086.251-.467.376-.997.376-1.592 0-.596-.125-1.126-.375-1.593-.25-.466-.6-.823-1.051-1.071a2.915 2.915 0 0 0-1.502-.387c-.56 0-1.066.13-1.516.387a2.72 2.72 0 0 0-1.051 1.071c-.25.467-.375.997-.375 1.593 0 .595.125 1.125.375 1.592.26.466.61.828 1.05 1.086.451.248.957.372 1.517.372ZM33.522 12.474c-.761 0-1.447-.168-2.057-.505a3.815 3.815 0 0 1-1.442-1.429c-.35-.605-.525-1.29-.525-2.053 0-.764.175-1.449.525-2.054.35-.605.831-1.076 1.442-1.413.61-.338 1.296-.506 2.057-.506.76 0 1.446.168 2.057.506.61.337 1.086.808 1.426 1.413.35.605.526 1.29.526 2.054 0 .763-.175 1.448-.526 2.053a3.708 3.708 0 0 1-1.426 1.429c-.61.337-1.297.505-2.057.505Zm0-.937c.56 0 1.06-.124 1.501-.372.45-.258.801-.62 1.051-1.086.25-.467.376-.997.376-1.592 0-.596-.126-1.126-.376-1.593-.25-.466-.6-.823-1.05-1.071a2.915 2.915 0 0 0-1.502-.387c-.56 0-1.066.13-1.517.387a2.72 2.72 0 0 0-1.05 1.071c-.25.467-.376.997-.376 1.593 0 .595.125 1.125.375 1.592.26.466.61.828 1.051 1.086.45.248.956.372 1.517.372ZM46.914 1.359V12.4h-1.02v-1.548c-.321.526-.747.928-1.277 1.206-.52.277-1.111.416-1.772.416-.74 0-1.411-.168-2.012-.505a3.632 3.632 0 0 1-1.411-1.414c-.34-.605-.51-1.295-.51-2.068 0-.774.17-1.464.51-2.069a3.53 3.53 0 0 1 1.411-1.398 4.037 4.037 0 0 1 2.012-.506c.64 0 1.216.134 1.727.401.52.258.946.64 1.276 1.146V1.36h1.066Zm-3.979 10.178c.55 0 1.046-.124 1.487-.372.45-.258.8-.62 1.05-1.086.26-.467.391-.997.391-1.592 0-.596-.13-1.126-.39-1.593-.25-.466-.6-.823-1.051-1.071a2.886 2.886 0 0 0-1.487-.387c-.56 0-1.066.13-1.516.387a2.72 2.72 0 0 0-1.051 1.071c-.25.467-.376.997-.376 1.593 0 .595.126 1.125.376 1.592.26.466.61.828 1.05 1.086.451.248.957.372 1.517.372ZM32.547 25.564a2.1 2.1 0 0 1-.751.416c-.29.09-.596.134-.916.134-.74 0-1.311-.198-1.712-.595-.4-.397-.6-.957-.6-1.681v-4.732h-1.412v-.893h1.412v-1.711h1.066v1.711h2.402v.893h-2.402v4.672c0 .466.115.824.345 1.072.24.238.58.357 1.021.357.22 0 .43-.035.63-.104.21-.07.391-.17.541-.298l.376.759ZM37.437 26.114c-.761 0-1.447-.168-2.057-.506a3.816 3.816 0 0 1-1.442-1.428c-.35-.605-.525-1.29-.525-2.053 0-.764.175-1.449.525-2.054.35-.605.831-1.076 1.442-1.413.61-.338 1.296-.506 2.057-.506.76 0 1.446.168 2.057.506.61.337 1.086.808 1.426 1.413.35.605.526 1.29.526 2.054 0 .763-.176 1.448-.526 2.053a3.707 3.707 0 0 1-1.426 1.428c-.61.338-1.297.506-2.057.506Zm0-.937c.56 0 1.06-.124 1.501-.372.45-.258.8-.62 1.051-1.086.25-.466.376-.997.376-1.592 0-.596-.126-1.126-.376-1.593-.25-.466-.6-.823-1.05-1.071a2.916 2.916 0 0 0-1.502-.387c-.56 0-1.066.13-1.517.387a2.72 2.72 0 0 0-1.05 1.071c-.251.467-.376.997-.376 1.593 0 .595.125 1.126.375 1.592.26.466.61.828 1.051 1.086.45.248.956.372 1.517.372ZM44.643 19.746c.25-.526.62-.923 1.111-1.19.5-.268 1.116-.402 1.847-.402v1.026l-.255-.015c-.831 0-1.482.253-1.952.76-.47.505-.706 1.215-.706 2.127v3.988h-1.066v-7.827h1.021v1.533ZM49.531 18.213h1.066v7.827h-1.066v-7.827Zm.54-1.711a.759.759 0 0 1-.555-.223.727.727 0 0 1-.225-.536.71.71 0 0 1 .225-.52.759.759 0 0 1 .556-.224c.22 0 .405.074.555.223.15.14.225.308.225.506a.744.744 0 0 1-.225.55.758.758 0 0 1-.555.224ZM60.44 22.454h-6.606c.06.813.375 1.473.945 1.979.571.496 1.292.744 2.162.744.491 0 .941-.084 1.352-.253.41-.179.766-.436 1.066-.774l.6.685a3.37 3.37 0 0 1-1.32.952 4.422 4.422 0 0 1-1.728.327c-.81 0-1.531-.168-2.162-.506a3.785 3.785 0 0 1-1.456-1.428c-.35-.605-.526-1.29-.526-2.053 0-.764.166-1.449.496-2.054.34-.605.8-1.076 1.381-1.413a3.925 3.925 0 0 1 1.982-.506c.73 0 1.387.168 1.967.506.58.337 1.036.808 1.366 1.413.33.595.496 1.28.496 2.054l-.015.327Zm-3.814-3.393c-.76 0-1.401.243-1.922.73-.51.476-.8 1.1-.87 1.874h5.6c-.07-.773-.365-1.398-.886-1.875-.51-.486-1.151-.729-1.922-.729ZM64.742 26.114c-.64 0-1.256-.089-1.847-.267-.58-.189-1.036-.422-1.366-.7l.48-.833c.33.258.746.471 1.246.64.5.159 1.021.238 1.562.238.72 0 1.251-.11 1.592-.328.35-.228.525-.545.525-.952 0-.287-.095-.51-.285-.67a1.77 1.77 0 0 0-.721-.371 9.164 9.164 0 0 0-1.156-.253 14.718 14.718 0 0 1-1.547-.357 2.391 2.391 0 0 1-1.006-.64c-.27-.298-.405-.71-.405-1.235 0-.655.275-1.19.826-1.607.55-.417 1.316-.625 2.297-.625.51 0 1.021.069 1.532.208.51.129.93.303 1.26.52l-.465.849c-.65-.447-1.426-.67-2.327-.67-.68 0-1.196.12-1.546.357-.34.239-.511.551-.511.938 0 .297.095.535.285.714.2.179.446.313.736.402.29.08.69.163 1.201.253.63.119 1.136.238 1.517.357.38.119.705.322.976.61.27.288.405.684.405 1.19 0 .685-.29 1.23-.87 1.637-.571.397-1.367.595-2.388.595Z"/></g></svg>