<svg width="26" height="25" fill="none" xmlns="http://www.w3.org/2000/svg"><path d="M18.545 15.796a1.5 1.5 0 0 0-2.058 2.183l2.058-2.183Zm4.426 8.296a1.5 1.5 0 0 0 2.058-2.183l-2.058 2.183ZM17.74 10.758c0 4.03-3.21 7.257-7.12 7.257v3c5.611 0 10.12-4.615 10.12-10.258h-3Zm-7.12 7.257c-3.91 0-7.12-3.227-7.12-7.258h-3c0 5.643 4.509 10.258 10.12 10.258v-3ZM3.5 10.757c0-4.03 3.21-7.257 7.12-7.257v-3C5.009.5.5 5.115.5 10.758h3ZM10.62 3.5c3.91 0 7.12 3.227 7.12 7.258h3C20.74 5.115 16.23.5 10.62.5v3Zm5.867 14.48 6.484 6.111 2.058-2.183-6.484-6.112-2.058 2.183Z" fill="#737C8E"/></svg>