<svg width="48" height="49" id="userIconID" viewBox="0 0 48 49" fill="none" xmlns="http://www.w3.org/2000/svg">
<path fill-rule="evenodd" clip-rule="evenodd" d="M13 14.5C13 8.70101 17.701 4 23.5 4C29.299 4 34 8.70101 34 14.5C34 20.299 29.299 25 23.5 25C17.701 25 13 20.299 13 14.5ZM23.5 0C15.4919 0 9 6.49187 9 14.5C9 19.5321 11.5633 23.9654 15.4554 26.5656C6.41944 30.0091 0 38.7549 0 49H4C4 37.9543 12.9543 29 24 29C35.0457 29 44 37.9543 44 49H48C48 38.5094 41.2692 29.5908 31.8905 26.3272C35.5878 23.6995 38 19.3814 38 14.5C38 6.49187 31.5081 0 23.5 0Z" fill="#F7F8FA"/>
</svg>
