<svg width="50" id="userIconID" height="50" viewBox="0 0 50 50" fill="none" xmlns="http://www.w3.org/2000/svg">
<path fill-rule="evenodd" clip-rule="evenodd" d="M14.5 15.5C14.5 9.97715 18.9772 5.5 24.5 5.5C30.0228 5.5 34.5 9.97715 34.5 15.5C34.5 21.0228 30.0228 25.5 24.5 25.5C18.9772 25.5 14.5 21.0228 14.5 15.5ZM24.5 0.5C16.2157 0.5 9.5 7.21573 9.5 15.5C9.5 20.3727 11.8234 24.7027 15.4227 27.4426C6.65099 31.1716 0.5 39.8675 0.5 50H5.5C5.5 39.2304 14.2304 30.5 25 30.5C35.7696 30.5 44.5 39.2304 44.5 50H49.5C49.5 39.616 43.0399 30.7409 33.9195 27.1743C37.3232 24.4245 39.5 20.2164 39.5 15.5C39.5 7.21573 32.7843 0.5 24.5 0.5Z" fill="#F7F8FA"/>
</svg>
