<?xml version="1.0" encoding="utf-8"?>
<!-- Generator: Adobe Illustrator 24.0.1, SVG Export Plug-In . SVG Version: 6.00 Build 0)  -->
<svg version="1.1" id="userIconID" xmlns="http://www.w3.org/2000/svg" xmlns:xlink="http://www.w3.org/1999/xlink" x="0px" y="0px"
	 viewBox="0 0 48 49" style="enable-background:new 0 0 48 49;" xml:space="preserve">
<style type="text/css">
	.st0{fill-rule:evenodd;clip-rule:evenodd;fill:#F7F8FA;}
</style>
<path class="st0" d="M13,14.5C13,8.7,17.7,4,23.5,4S34,8.7,34,14.5C34,20.3,29.3,25,23.5,25S13,20.3,13,14.5z M23.5,0
	C15.5,0,9,6.5,9,14.5c0,5,2.6,9.5,6.5,12.1C6.4,30,0,38.8,0,49h4c0-11,9-20,20-20s20,9,20,20h4c0-10.5-6.7-19.4-16.1-22.7
	c3.7-2.6,6.1-6.9,6.1-11.8C38,6.5,31.5,0,23.5,0z"/>
<ellipse class="st0" cx="23" cy="14.5" rx="11" ry="11.4"/>
<polygon class="st0" points="2.2,49 46.1,49 38.9,33.3 26.3,26.7 13,30 3.6,40.3 "/>
</svg>
