<svg xmlns="http://www.w3.org/2000/svg" viewBox="0 0 236 298.5" style="enable-background:new 0 0 236 298.5; fill:none;stroke:#000000" xml:space="preserve"><path d="M117.9 123.9c32.4 0 58.7-26.3 58.7-58.7S150.3 6.5 117.9 6.5c-32.4 0-58.7 26.3-58.7 58.7 0 32.4 26.3 58.7 58.7 58.7zm-10.3 40L70 147.1c-5-2.3-10.7-3.1-16.2-2.3-35.8 5.2-47.2 40-47.2 77.5v51.1C37.8 285 76.4 292 118 292s80.2-7 111.5-18.7v-51c0-37.5-8.2-72.7-43.5-77.9-5.5-.8-11.1.1-16.1 2.5l-32.6 15.4c-.8.4-1.5.8-2.2 1.2-8.4 4.4-18.8 4.7-27.5.4z" style="stroke-width:13;stroke-linejoin:round"/></svg>