<svg width="52" height="55" id="userIconID" viewBox="0 0 52 55" fill="none" xmlns="http://www.w3.org/2000/svg">
<path fill-rule="evenodd" clip-rule="evenodd" d="M38 16C38 22.7481 32.7325 28 26.5 28C20.2675 28 15 22.7481 15 16C15 9.25193 20.2675 4 26.5 4C32.7325 4 38 9.25193 38 16ZM34.7338 29.5583C39.0987 26.7278 42 21.7137 42 16C42 7.16344 35.0604 0 26.5 0C17.9396 0 11 7.16344 11 16C11 21.561 13.7484 26.4594 17.9195 29.3268C7.48081 32.8643 0 43.0692 0 55H4C4 42.2197 13.9259 32 26 32C38.0741 32 48 42.2197 48 55H52C52 43.3196 44.8299 33.2934 34.7338 29.5583Z" fill="#F7F8FA"/>
</svg>
